%FSLAX45Y45*%
G04 Gerber Fmt 4.5, Leading zero omitted, Abs format (unit mm)*
G04 Created by KiCad (PCBNEW (6.0.0)) date 2022-08-29 11:13:16*
%MOMM*%
%LPD*%
G01*
G04 APERTURE LIST*
%TA.AperFunction,Profile*%
%ADD10C,0.100000*%
%TD*%
%ADD11C,0.200000*%
%ADD12C,0.030000*%
%ADD13C,0.040000*%
%ADD14C,0.175000*%
G04 APERTURE END LIST*
D10*
X14270920Y-9091680D02*
G75*
G03*
X14346000Y-9018200I3651J71367D01*
G01*
X12446000Y-7166680D02*
X12446000Y-9018200D01*
X14270920Y-7091680D02*
X12521000Y-7091680D01*
X12446000Y-9018200D02*
G75*
G03*
X12521000Y-9091680I72750J-761D01*
G01*
X12521000Y-9091680D02*
X14270920Y-9091680D01*
X12521000Y-7091680D02*
G75*
G03*
X12446000Y-7166680I-101J-74900D01*
G01*
X14346000Y-9018200D02*
X14346000Y-7166680D01*
X14346000Y-7166680D02*
G75*
G03*
X14270920Y-7091680I-74303J698D01*
G01*
D11*
D12*
X12530060Y-7541500D02*
X12560060Y-7571500D01*
X12560060Y-7541500D02*
X12530060Y-7571500D01*
X12804380Y-7244320D02*
X12834380Y-7274320D01*
X12834380Y-7244320D02*
X12804380Y-7274320D01*
X12812000Y-8737840D02*
X12842000Y-8767840D01*
X12842000Y-8737840D02*
X12812000Y-8767840D01*
X12982180Y-8171420D02*
X13012180Y-8201420D01*
X13012180Y-8171420D02*
X12982180Y-8201420D01*
X12997420Y-8737840D02*
X13027420Y-8767840D01*
X13027420Y-8737840D02*
X12997420Y-8767840D01*
X13177760Y-8737840D02*
X13207760Y-8767840D01*
X13207760Y-8737840D02*
X13177760Y-8767840D01*
X13212000Y-8180000D02*
X13242000Y-8210000D01*
X13242000Y-8180000D02*
X13212000Y-8210000D01*
X13350480Y-7785340D02*
X13380480Y-7815340D01*
X13380480Y-7785340D02*
X13350480Y-7815340D01*
X13360000Y-7188000D02*
X13390000Y-7218000D01*
X13390000Y-7188000D02*
X13360000Y-7218000D01*
X13406000Y-7837000D02*
X13436000Y-7867000D01*
X13436000Y-7837000D02*
X13406000Y-7867000D01*
X13447000Y-7765020D02*
X13477000Y-7795020D01*
X13477000Y-7765020D02*
X13447000Y-7795020D01*
X13450000Y-8820000D02*
X13480000Y-8850000D01*
X13480000Y-8820000D02*
X13450000Y-8850000D01*
X13551140Y-7173200D02*
X13581140Y-7203200D01*
X13581140Y-7173200D02*
X13551140Y-7203200D01*
X13559000Y-7261000D02*
X13589000Y-7291000D01*
X13589000Y-7261000D02*
X13559000Y-7291000D01*
X13574000Y-7358620D02*
X13604000Y-7388620D01*
X13604000Y-7358620D02*
X13574000Y-7388620D01*
X13751800Y-8417800D02*
X13781800Y-8447800D01*
X13781800Y-8417800D02*
X13751800Y-8447800D01*
X13867000Y-8725000D02*
X13897000Y-8755000D01*
X13897000Y-8725000D02*
X13867000Y-8755000D01*
X13886420Y-8300960D02*
X13916420Y-8330960D01*
X13916420Y-8300960D02*
X13886420Y-8330960D01*
X13896580Y-8143480D02*
X13926580Y-8173480D01*
X13926580Y-8143480D02*
X13896580Y-8173480D01*
X13940000Y-8826000D02*
X13970000Y-8856000D01*
X13970000Y-8826000D02*
X13940000Y-8856000D01*
X13942000Y-8945000D02*
X13972000Y-8975000D01*
X13972000Y-8945000D02*
X13942000Y-8975000D01*
X14285200Y-8417800D02*
X14315200Y-8447800D01*
X14315200Y-8417800D02*
X14285200Y-8447800D01*
X13534120Y-7981920D02*
G75*
G03*
X13534120Y-7981920I-15000J0D01*
G01*
X13534120Y-8059420D02*
G75*
G03*
X13534120Y-8059420I-15000J0D01*
G01*
X13534120Y-8136920D02*
G75*
G03*
X13534120Y-8136920I-15000J0D01*
G01*
X13611620Y-7981920D02*
G75*
G03*
X13611620Y-7981920I-15000J0D01*
G01*
X13611620Y-8059420D02*
G75*
G03*
X13611620Y-8059420I-15000J0D01*
G01*
X13611620Y-8136920D02*
G75*
G03*
X13611620Y-8136920I-15000J0D01*
G01*
X13689120Y-7981920D02*
G75*
G03*
X13689120Y-7981920I-15000J0D01*
G01*
X13689120Y-8059420D02*
G75*
G03*
X13689120Y-8059420I-15000J0D01*
G01*
X13689120Y-8136920D02*
G75*
G03*
X13689120Y-8136920I-15000J0D01*
G01*
D13*
X12601000Y-8434000D02*
X12601000Y-8474000D01*
X12581000Y-8454000D02*
X12621000Y-8454000D01*
X12683000Y-7276000D02*
X12683000Y-7316000D01*
X12663000Y-7296000D02*
X12703000Y-7296000D01*
X12697000Y-8639000D02*
X12697000Y-8679000D01*
X12677000Y-8659000D02*
X12717000Y-8659000D01*
X12701000Y-8793000D02*
X12701000Y-8833000D01*
X12681000Y-8813000D02*
X12721000Y-8813000D01*
X13034000Y-7323000D02*
X13034000Y-7363000D01*
X13014000Y-7343000D02*
X13054000Y-7343000D01*
X13600480Y-8822520D02*
X13600480Y-8862520D01*
X13580480Y-8842520D02*
X13620480Y-8842520D01*
X13963000Y-7316000D02*
X13963000Y-7356000D01*
X13943000Y-7336000D02*
X13983000Y-7336000D01*
X14063980Y-7795580D02*
X14063980Y-7835580D01*
X14043980Y-7815580D02*
X14083980Y-7815580D01*
X14087000Y-8881000D02*
X14087000Y-8921000D01*
X14067000Y-8901000D02*
X14107000Y-8901000D01*
X14104000Y-7502000D02*
X14104000Y-7542000D01*
X14084000Y-7522000D02*
X14124000Y-7522000D01*
X14287500Y-8214500D02*
X14287500Y-8254500D01*
X14267500Y-8234500D02*
X14307500Y-8234500D01*
D14*
X12507872Y-7366912D02*
X12507872Y-7243168D01*
X12384128Y-7243168D01*
X12384128Y-7366912D01*
X12507872Y-7366912D01*
X12507872Y-8639452D02*
X12507872Y-8515708D01*
X12384128Y-8515708D01*
X12384128Y-8639452D01*
X12507872Y-8639452D01*
X12507872Y-8941712D02*
X12507872Y-8817968D01*
X12384128Y-8817968D01*
X12384128Y-8941712D01*
X12507872Y-8941712D01*
X13130172Y-7153552D02*
X13130172Y-7029808D01*
X13006428Y-7029808D01*
X13006428Y-7153552D01*
X13130172Y-7153552D01*
X13739772Y-9152532D02*
X13739772Y-9028788D01*
X13616028Y-9028788D01*
X13616028Y-9152532D01*
X13739772Y-9152532D01*
X14143632Y-7153552D02*
X14143632Y-7029808D01*
X14019888Y-7029808D01*
X14019888Y-7153552D01*
X14143632Y-7153552D01*
X14407792Y-7570112D02*
X14407792Y-7446368D01*
X14284048Y-7446368D01*
X14284048Y-7570112D01*
X14407792Y-7570112D01*
X14407792Y-7862212D02*
X14407792Y-7738468D01*
X14284048Y-7738468D01*
X14284048Y-7862212D01*
X14407792Y-7862212D01*
X14407792Y-8156852D02*
X14407792Y-8033108D01*
X14284048Y-8033108D01*
X14284048Y-8156852D01*
X14407792Y-8156852D01*
X14407792Y-8946792D02*
X14407792Y-8823048D01*
X14284048Y-8823048D01*
X14284048Y-8946792D01*
X14407792Y-8946792D01*
D11*
X12698615Y-9407250D02*
X12698615Y-9207250D01*
X12746234Y-9207250D01*
X12774805Y-9216773D01*
X12793853Y-9235821D01*
X12803377Y-9254869D01*
X12812901Y-9292964D01*
X12812901Y-9321535D01*
X12803377Y-9359631D01*
X12793853Y-9378678D01*
X12774805Y-9397726D01*
X12746234Y-9407250D01*
X12698615Y-9407250D01*
X12898615Y-9407250D02*
X12898615Y-9273916D01*
X12898615Y-9312011D02*
X12908139Y-9292964D01*
X12917663Y-9283440D01*
X12936710Y-9273916D01*
X12955758Y-9273916D01*
X13022424Y-9407250D02*
X13022424Y-9273916D01*
X13022424Y-9207250D02*
X13012901Y-9216773D01*
X13022424Y-9226297D01*
X13031948Y-9216773D01*
X13022424Y-9207250D01*
X13022424Y-9226297D01*
X13146234Y-9407250D02*
X13127186Y-9397726D01*
X13117663Y-9378678D01*
X13117663Y-9207250D01*
X13250996Y-9407250D02*
X13231948Y-9397726D01*
X13222424Y-9378678D01*
X13222424Y-9207250D01*
X13479567Y-9407250D02*
X13479567Y-9207250D01*
X13546234Y-9350107D01*
X13612901Y-9207250D01*
X13612901Y-9407250D01*
X13793853Y-9407250D02*
X13793853Y-9302488D01*
X13784329Y-9283440D01*
X13765282Y-9273916D01*
X13727186Y-9273916D01*
X13708139Y-9283440D01*
X13793853Y-9397726D02*
X13774805Y-9407250D01*
X13727186Y-9407250D01*
X13708139Y-9397726D01*
X13698615Y-9378678D01*
X13698615Y-9359631D01*
X13708139Y-9340583D01*
X13727186Y-9331059D01*
X13774805Y-9331059D01*
X13793853Y-9321535D01*
X13889091Y-9273916D02*
X13889091Y-9473916D01*
X13889091Y-9283440D02*
X13908139Y-9273916D01*
X13946234Y-9273916D01*
X13965282Y-9283440D01*
X13974805Y-9292964D01*
X13984329Y-9312011D01*
X13984329Y-9369154D01*
X13974805Y-9388202D01*
X13965282Y-9397726D01*
X13946234Y-9407250D01*
X13908139Y-9407250D01*
X13889091Y-9397726D01*
X14070044Y-9388202D02*
X14079567Y-9397726D01*
X14070044Y-9407250D01*
X14060520Y-9397726D01*
X14070044Y-9388202D01*
X14070044Y-9407250D01*
X14070044Y-9283440D02*
X14079567Y-9292964D01*
X14070044Y-9302488D01*
X14060520Y-9292964D01*
X14070044Y-9283440D01*
X14070044Y-9302488D01*
D12*
X12410996Y-9721773D02*
X12440996Y-9751773D01*
X12440996Y-9721773D02*
X12410996Y-9751773D01*
D11*
X12736710Y-9627250D02*
X12755758Y-9627250D01*
X12774805Y-9636773D01*
X12784329Y-9646297D01*
X12793853Y-9665345D01*
X12803377Y-9703440D01*
X12803377Y-9751059D01*
X12793853Y-9789154D01*
X12784329Y-9808202D01*
X12774805Y-9817726D01*
X12755758Y-9827250D01*
X12736710Y-9827250D01*
X12717663Y-9817726D01*
X12708139Y-9808202D01*
X12698615Y-9789154D01*
X12689091Y-9751059D01*
X12689091Y-9703440D01*
X12698615Y-9665345D01*
X12708139Y-9646297D01*
X12717663Y-9636773D01*
X12736710Y-9627250D01*
X12889091Y-9808202D02*
X12898615Y-9817726D01*
X12889091Y-9827250D01*
X12879567Y-9817726D01*
X12889091Y-9808202D01*
X12889091Y-9827250D01*
X12965282Y-9627250D02*
X13089091Y-9627250D01*
X13022424Y-9703440D01*
X13050996Y-9703440D01*
X13070044Y-9712964D01*
X13079567Y-9722488D01*
X13089091Y-9741535D01*
X13089091Y-9789154D01*
X13079567Y-9808202D01*
X13070044Y-9817726D01*
X13050996Y-9827250D01*
X12993853Y-9827250D01*
X12974805Y-9817726D01*
X12965282Y-9808202D01*
X13212901Y-9627250D02*
X13231948Y-9627250D01*
X13250996Y-9636773D01*
X13260520Y-9646297D01*
X13270044Y-9665345D01*
X13279567Y-9703440D01*
X13279567Y-9751059D01*
X13270044Y-9789154D01*
X13260520Y-9808202D01*
X13250996Y-9817726D01*
X13231948Y-9827250D01*
X13212901Y-9827250D01*
X13193853Y-9817726D01*
X13184329Y-9808202D01*
X13174805Y-9789154D01*
X13165282Y-9751059D01*
X13165282Y-9703440D01*
X13174805Y-9665345D01*
X13184329Y-9646297D01*
X13193853Y-9636773D01*
X13212901Y-9627250D01*
X13403377Y-9627250D02*
X13422424Y-9627250D01*
X13441472Y-9636773D01*
X13450996Y-9646297D01*
X13460520Y-9665345D01*
X13470044Y-9703440D01*
X13470044Y-9751059D01*
X13460520Y-9789154D01*
X13450996Y-9808202D01*
X13441472Y-9817726D01*
X13422424Y-9827250D01*
X13403377Y-9827250D01*
X13384329Y-9817726D01*
X13374805Y-9808202D01*
X13365282Y-9789154D01*
X13355758Y-9751059D01*
X13355758Y-9703440D01*
X13365282Y-9665345D01*
X13374805Y-9646297D01*
X13384329Y-9636773D01*
X13403377Y-9627250D01*
X13555758Y-9827250D02*
X13555758Y-9693916D01*
X13555758Y-9712964D02*
X13565282Y-9703440D01*
X13584329Y-9693916D01*
X13612901Y-9693916D01*
X13631948Y-9703440D01*
X13641472Y-9722488D01*
X13641472Y-9827250D01*
X13641472Y-9722488D02*
X13650996Y-9703440D01*
X13670044Y-9693916D01*
X13698615Y-9693916D01*
X13717663Y-9703440D01*
X13727186Y-9722488D01*
X13727186Y-9827250D01*
X13822424Y-9827250D02*
X13822424Y-9693916D01*
X13822424Y-9712964D02*
X13831948Y-9703440D01*
X13850996Y-9693916D01*
X13879567Y-9693916D01*
X13898615Y-9703440D01*
X13908139Y-9722488D01*
X13908139Y-9827250D01*
X13908139Y-9722488D02*
X13917663Y-9703440D01*
X13936710Y-9693916D01*
X13965282Y-9693916D01*
X13984329Y-9703440D01*
X13993853Y-9722488D01*
X13993853Y-9827250D01*
X14384329Y-9617726D02*
X14212901Y-9874869D01*
X14641472Y-9627250D02*
X14660520Y-9627250D01*
X14679567Y-9636773D01*
X14689091Y-9646297D01*
X14698615Y-9665345D01*
X14708139Y-9703440D01*
X14708139Y-9751059D01*
X14698615Y-9789154D01*
X14689091Y-9808202D01*
X14679567Y-9817726D01*
X14660520Y-9827250D01*
X14641472Y-9827250D01*
X14622424Y-9817726D01*
X14612901Y-9808202D01*
X14603377Y-9789154D01*
X14593853Y-9751059D01*
X14593853Y-9703440D01*
X14603377Y-9665345D01*
X14612901Y-9646297D01*
X14622424Y-9636773D01*
X14641472Y-9627250D01*
X14793853Y-9808202D02*
X14803377Y-9817726D01*
X14793853Y-9827250D01*
X14784329Y-9817726D01*
X14793853Y-9808202D01*
X14793853Y-9827250D01*
X14927186Y-9627250D02*
X14946234Y-9627250D01*
X14965282Y-9636773D01*
X14974805Y-9646297D01*
X14984329Y-9665345D01*
X14993853Y-9703440D01*
X14993853Y-9751059D01*
X14984329Y-9789154D01*
X14974805Y-9808202D01*
X14965282Y-9817726D01*
X14946234Y-9827250D01*
X14927186Y-9827250D01*
X14908139Y-9817726D01*
X14898615Y-9808202D01*
X14889091Y-9789154D01*
X14879567Y-9751059D01*
X14879567Y-9703440D01*
X14889091Y-9665345D01*
X14898615Y-9646297D01*
X14908139Y-9636773D01*
X14927186Y-9627250D01*
X15184329Y-9827250D02*
X15070044Y-9827250D01*
X15127186Y-9827250D02*
X15127186Y-9627250D01*
X15108139Y-9655821D01*
X15089091Y-9674869D01*
X15070044Y-9684392D01*
X15374805Y-9827250D02*
X15260520Y-9827250D01*
X15317663Y-9827250D02*
X15317663Y-9627250D01*
X15298615Y-9655821D01*
X15279567Y-9674869D01*
X15260520Y-9684392D01*
X15489091Y-9712964D02*
X15470044Y-9703440D01*
X15460520Y-9693916D01*
X15450996Y-9674869D01*
X15450996Y-9665345D01*
X15460520Y-9646297D01*
X15470044Y-9636773D01*
X15489091Y-9627250D01*
X15527186Y-9627250D01*
X15546234Y-9636773D01*
X15555758Y-9646297D01*
X15565282Y-9665345D01*
X15565282Y-9674869D01*
X15555758Y-9693916D01*
X15546234Y-9703440D01*
X15527186Y-9712964D01*
X15489091Y-9712964D01*
X15470044Y-9722488D01*
X15460520Y-9732011D01*
X15450996Y-9751059D01*
X15450996Y-9789154D01*
X15460520Y-9808202D01*
X15470044Y-9817726D01*
X15489091Y-9827250D01*
X15527186Y-9827250D01*
X15546234Y-9817726D01*
X15555758Y-9808202D01*
X15565282Y-9789154D01*
X15565282Y-9751059D01*
X15555758Y-9732011D01*
X15546234Y-9722488D01*
X15527186Y-9712964D01*
X15641472Y-9627250D02*
X15641472Y-9665345D01*
X15717663Y-9627250D02*
X15717663Y-9665345D01*
X16012901Y-9903440D02*
X16003377Y-9893916D01*
X15984329Y-9865345D01*
X15974805Y-9846297D01*
X15965282Y-9817726D01*
X15955758Y-9770107D01*
X15955758Y-9732011D01*
X15965282Y-9684392D01*
X15974805Y-9655821D01*
X15984329Y-9636773D01*
X16003377Y-9608202D01*
X16012901Y-9598678D01*
X16079567Y-9646297D02*
X16089091Y-9636773D01*
X16108139Y-9627250D01*
X16155758Y-9627250D01*
X16174805Y-9636773D01*
X16184329Y-9646297D01*
X16193853Y-9665345D01*
X16193853Y-9684392D01*
X16184329Y-9712964D01*
X16070044Y-9827250D01*
X16193853Y-9827250D01*
X16270044Y-9646297D02*
X16279567Y-9636773D01*
X16298615Y-9627250D01*
X16346234Y-9627250D01*
X16365282Y-9636773D01*
X16374805Y-9646297D01*
X16384329Y-9665345D01*
X16384329Y-9684392D01*
X16374805Y-9712964D01*
X16260520Y-9827250D01*
X16384329Y-9827250D01*
X16622424Y-9827250D02*
X16622424Y-9627250D01*
X16708139Y-9827250D02*
X16708139Y-9722488D01*
X16698615Y-9703440D01*
X16679567Y-9693916D01*
X16650996Y-9693916D01*
X16631948Y-9703440D01*
X16622424Y-9712964D01*
X16831948Y-9827250D02*
X16812901Y-9817726D01*
X16803377Y-9808202D01*
X16793853Y-9789154D01*
X16793853Y-9732011D01*
X16803377Y-9712964D01*
X16812901Y-9703440D01*
X16831948Y-9693916D01*
X16860520Y-9693916D01*
X16879567Y-9703440D01*
X16889091Y-9712964D01*
X16898615Y-9732011D01*
X16898615Y-9789154D01*
X16889091Y-9808202D01*
X16879567Y-9817726D01*
X16860520Y-9827250D01*
X16831948Y-9827250D01*
X17012901Y-9827250D02*
X16993853Y-9817726D01*
X16984329Y-9798678D01*
X16984329Y-9627250D01*
X17165282Y-9817726D02*
X17146234Y-9827250D01*
X17108139Y-9827250D01*
X17089091Y-9817726D01*
X17079567Y-9798678D01*
X17079567Y-9722488D01*
X17089091Y-9703440D01*
X17108139Y-9693916D01*
X17146234Y-9693916D01*
X17165282Y-9703440D01*
X17174806Y-9722488D01*
X17174806Y-9741535D01*
X17079567Y-9760583D01*
X17250996Y-9817726D02*
X17270044Y-9827250D01*
X17308139Y-9827250D01*
X17327186Y-9817726D01*
X17336710Y-9798678D01*
X17336710Y-9789154D01*
X17327186Y-9770107D01*
X17308139Y-9760583D01*
X17279567Y-9760583D01*
X17260520Y-9751059D01*
X17250996Y-9732011D01*
X17250996Y-9722488D01*
X17260520Y-9703440D01*
X17279567Y-9693916D01*
X17308139Y-9693916D01*
X17327186Y-9703440D01*
X17403377Y-9903440D02*
X17412901Y-9893916D01*
X17431948Y-9865345D01*
X17441472Y-9846297D01*
X17450996Y-9817726D01*
X17460520Y-9770107D01*
X17460520Y-9732011D01*
X17450996Y-9684392D01*
X17441472Y-9655821D01*
X17431948Y-9636773D01*
X17412901Y-9608202D01*
X17403377Y-9598678D01*
D12*
X12440996Y-10000773D02*
G75*
G03*
X12440996Y-10000773I-15000J0D01*
G01*
D11*
X12736710Y-9891250D02*
X12755758Y-9891250D01*
X12774805Y-9900773D01*
X12784329Y-9910297D01*
X12793853Y-9929345D01*
X12803377Y-9967440D01*
X12803377Y-10015059D01*
X12793853Y-10053154D01*
X12784329Y-10072202D01*
X12774805Y-10081726D01*
X12755758Y-10091250D01*
X12736710Y-10091250D01*
X12717663Y-10081726D01*
X12708139Y-10072202D01*
X12698615Y-10053154D01*
X12689091Y-10015059D01*
X12689091Y-9967440D01*
X12698615Y-9929345D01*
X12708139Y-9910297D01*
X12717663Y-9900773D01*
X12736710Y-9891250D01*
X12889091Y-10072202D02*
X12898615Y-10081726D01*
X12889091Y-10091250D01*
X12879567Y-10081726D01*
X12889091Y-10072202D01*
X12889091Y-10091250D01*
X12965282Y-9891250D02*
X13089091Y-9891250D01*
X13022424Y-9967440D01*
X13050996Y-9967440D01*
X13070044Y-9976964D01*
X13079567Y-9986488D01*
X13089091Y-10005535D01*
X13089091Y-10053154D01*
X13079567Y-10072202D01*
X13070044Y-10081726D01*
X13050996Y-10091250D01*
X12993853Y-10091250D01*
X12974805Y-10081726D01*
X12965282Y-10072202D01*
X13212901Y-9891250D02*
X13231948Y-9891250D01*
X13250996Y-9900773D01*
X13260520Y-9910297D01*
X13270044Y-9929345D01*
X13279567Y-9967440D01*
X13279567Y-10015059D01*
X13270044Y-10053154D01*
X13260520Y-10072202D01*
X13250996Y-10081726D01*
X13231948Y-10091250D01*
X13212901Y-10091250D01*
X13193853Y-10081726D01*
X13184329Y-10072202D01*
X13174805Y-10053154D01*
X13165282Y-10015059D01*
X13165282Y-9967440D01*
X13174805Y-9929345D01*
X13184329Y-9910297D01*
X13193853Y-9900773D01*
X13212901Y-9891250D01*
X13403377Y-9891250D02*
X13422424Y-9891250D01*
X13441472Y-9900773D01*
X13450996Y-9910297D01*
X13460520Y-9929345D01*
X13470044Y-9967440D01*
X13470044Y-10015059D01*
X13460520Y-10053154D01*
X13450996Y-10072202D01*
X13441472Y-10081726D01*
X13422424Y-10091250D01*
X13403377Y-10091250D01*
X13384329Y-10081726D01*
X13374805Y-10072202D01*
X13365282Y-10053154D01*
X13355758Y-10015059D01*
X13355758Y-9967440D01*
X13365282Y-9929345D01*
X13374805Y-9910297D01*
X13384329Y-9900773D01*
X13403377Y-9891250D01*
X13555758Y-10091250D02*
X13555758Y-9957916D01*
X13555758Y-9976964D02*
X13565282Y-9967440D01*
X13584329Y-9957916D01*
X13612901Y-9957916D01*
X13631948Y-9967440D01*
X13641472Y-9986488D01*
X13641472Y-10091250D01*
X13641472Y-9986488D02*
X13650996Y-9967440D01*
X13670044Y-9957916D01*
X13698615Y-9957916D01*
X13717663Y-9967440D01*
X13727186Y-9986488D01*
X13727186Y-10091250D01*
X13822424Y-10091250D02*
X13822424Y-9957916D01*
X13822424Y-9976964D02*
X13831948Y-9967440D01*
X13850996Y-9957916D01*
X13879567Y-9957916D01*
X13898615Y-9967440D01*
X13908139Y-9986488D01*
X13908139Y-10091250D01*
X13908139Y-9986488D02*
X13917663Y-9967440D01*
X13936710Y-9957916D01*
X13965282Y-9957916D01*
X13984329Y-9967440D01*
X13993853Y-9986488D01*
X13993853Y-10091250D01*
X14384329Y-9881726D02*
X14212901Y-10138869D01*
X14641472Y-9891250D02*
X14660520Y-9891250D01*
X14679567Y-9900773D01*
X14689091Y-9910297D01*
X14698615Y-9929345D01*
X14708139Y-9967440D01*
X14708139Y-10015059D01*
X14698615Y-10053154D01*
X14689091Y-10072202D01*
X14679567Y-10081726D01*
X14660520Y-10091250D01*
X14641472Y-10091250D01*
X14622424Y-10081726D01*
X14612901Y-10072202D01*
X14603377Y-10053154D01*
X14593853Y-10015059D01*
X14593853Y-9967440D01*
X14603377Y-9929345D01*
X14612901Y-9910297D01*
X14622424Y-9900773D01*
X14641472Y-9891250D01*
X14793853Y-10072202D02*
X14803377Y-10081726D01*
X14793853Y-10091250D01*
X14784329Y-10081726D01*
X14793853Y-10072202D01*
X14793853Y-10091250D01*
X14927186Y-9891250D02*
X14946234Y-9891250D01*
X14965282Y-9900773D01*
X14974805Y-9910297D01*
X14984329Y-9929345D01*
X14993853Y-9967440D01*
X14993853Y-10015059D01*
X14984329Y-10053154D01*
X14974805Y-10072202D01*
X14965282Y-10081726D01*
X14946234Y-10091250D01*
X14927186Y-10091250D01*
X14908139Y-10081726D01*
X14898615Y-10072202D01*
X14889091Y-10053154D01*
X14879567Y-10015059D01*
X14879567Y-9967440D01*
X14889091Y-9929345D01*
X14898615Y-9910297D01*
X14908139Y-9900773D01*
X14927186Y-9891250D01*
X15184329Y-10091250D02*
X15070044Y-10091250D01*
X15127186Y-10091250D02*
X15127186Y-9891250D01*
X15108139Y-9919821D01*
X15089091Y-9938869D01*
X15070044Y-9948392D01*
X15374805Y-10091250D02*
X15260520Y-10091250D01*
X15317663Y-10091250D02*
X15317663Y-9891250D01*
X15298615Y-9919821D01*
X15279567Y-9938869D01*
X15260520Y-9948392D01*
X15489091Y-9976964D02*
X15470044Y-9967440D01*
X15460520Y-9957916D01*
X15450996Y-9938869D01*
X15450996Y-9929345D01*
X15460520Y-9910297D01*
X15470044Y-9900773D01*
X15489091Y-9891250D01*
X15527186Y-9891250D01*
X15546234Y-9900773D01*
X15555758Y-9910297D01*
X15565282Y-9929345D01*
X15565282Y-9938869D01*
X15555758Y-9957916D01*
X15546234Y-9967440D01*
X15527186Y-9976964D01*
X15489091Y-9976964D01*
X15470044Y-9986488D01*
X15460520Y-9996011D01*
X15450996Y-10015059D01*
X15450996Y-10053154D01*
X15460520Y-10072202D01*
X15470044Y-10081726D01*
X15489091Y-10091250D01*
X15527186Y-10091250D01*
X15546234Y-10081726D01*
X15555758Y-10072202D01*
X15565282Y-10053154D01*
X15565282Y-10015059D01*
X15555758Y-9996011D01*
X15546234Y-9986488D01*
X15527186Y-9976964D01*
X15641472Y-9891250D02*
X15641472Y-9929345D01*
X15717663Y-9891250D02*
X15717663Y-9929345D01*
X16012901Y-10167440D02*
X16003377Y-10157916D01*
X15984329Y-10129345D01*
X15974805Y-10110297D01*
X15965282Y-10081726D01*
X15955758Y-10034107D01*
X15955758Y-9996011D01*
X15965282Y-9948392D01*
X15974805Y-9919821D01*
X15984329Y-9900773D01*
X16003377Y-9872202D01*
X16012901Y-9862678D01*
X16098615Y-10091250D02*
X16136710Y-10091250D01*
X16155758Y-10081726D01*
X16165282Y-10072202D01*
X16184329Y-10043631D01*
X16193853Y-10005535D01*
X16193853Y-9929345D01*
X16184329Y-9910297D01*
X16174805Y-9900773D01*
X16155758Y-9891250D01*
X16117663Y-9891250D01*
X16098615Y-9900773D01*
X16089091Y-9910297D01*
X16079567Y-9929345D01*
X16079567Y-9976964D01*
X16089091Y-9996011D01*
X16098615Y-10005535D01*
X16117663Y-10015059D01*
X16155758Y-10015059D01*
X16174805Y-10005535D01*
X16184329Y-9996011D01*
X16193853Y-9976964D01*
X16431948Y-10091250D02*
X16431948Y-9891250D01*
X16517663Y-10091250D02*
X16517663Y-9986488D01*
X16508139Y-9967440D01*
X16489091Y-9957916D01*
X16460520Y-9957916D01*
X16441472Y-9967440D01*
X16431948Y-9976964D01*
X16641472Y-10091250D02*
X16622424Y-10081726D01*
X16612901Y-10072202D01*
X16603377Y-10053154D01*
X16603377Y-9996011D01*
X16612901Y-9976964D01*
X16622424Y-9967440D01*
X16641472Y-9957916D01*
X16670044Y-9957916D01*
X16689091Y-9967440D01*
X16698615Y-9976964D01*
X16708139Y-9996011D01*
X16708139Y-10053154D01*
X16698615Y-10072202D01*
X16689091Y-10081726D01*
X16670044Y-10091250D01*
X16641472Y-10091250D01*
X16822425Y-10091250D02*
X16803377Y-10081726D01*
X16793853Y-10062678D01*
X16793853Y-9891250D01*
X16974806Y-10081726D02*
X16955758Y-10091250D01*
X16917663Y-10091250D01*
X16898615Y-10081726D01*
X16889091Y-10062678D01*
X16889091Y-9986488D01*
X16898615Y-9967440D01*
X16917663Y-9957916D01*
X16955758Y-9957916D01*
X16974806Y-9967440D01*
X16984329Y-9986488D01*
X16984329Y-10005535D01*
X16889091Y-10024583D01*
X17060520Y-10081726D02*
X17079567Y-10091250D01*
X17117663Y-10091250D01*
X17136710Y-10081726D01*
X17146234Y-10062678D01*
X17146234Y-10053154D01*
X17136710Y-10034107D01*
X17117663Y-10024583D01*
X17089091Y-10024583D01*
X17070044Y-10015059D01*
X17060520Y-9996011D01*
X17060520Y-9986488D01*
X17070044Y-9967440D01*
X17089091Y-9957916D01*
X17117663Y-9957916D01*
X17136710Y-9967440D01*
X17212901Y-10167440D02*
X17222425Y-10157916D01*
X17241472Y-10129345D01*
X17250996Y-10110297D01*
X17260520Y-10081726D01*
X17270044Y-10034107D01*
X17270044Y-9996011D01*
X17260520Y-9948392D01*
X17250996Y-9919821D01*
X17241472Y-9900773D01*
X17222425Y-9872202D01*
X17212901Y-9862678D01*
D13*
X12420996Y-10244773D02*
X12420996Y-10284773D01*
X12400996Y-10264773D02*
X12440996Y-10264773D01*
D11*
X12736710Y-10155250D02*
X12755758Y-10155250D01*
X12774805Y-10164773D01*
X12784329Y-10174297D01*
X12793853Y-10193345D01*
X12803377Y-10231440D01*
X12803377Y-10279059D01*
X12793853Y-10317154D01*
X12784329Y-10336202D01*
X12774805Y-10345726D01*
X12755758Y-10355250D01*
X12736710Y-10355250D01*
X12717663Y-10345726D01*
X12708139Y-10336202D01*
X12698615Y-10317154D01*
X12689091Y-10279059D01*
X12689091Y-10231440D01*
X12698615Y-10193345D01*
X12708139Y-10174297D01*
X12717663Y-10164773D01*
X12736710Y-10155250D01*
X12889091Y-10336202D02*
X12898615Y-10345726D01*
X12889091Y-10355250D01*
X12879567Y-10345726D01*
X12889091Y-10336202D01*
X12889091Y-10355250D01*
X13070044Y-10221916D02*
X13070044Y-10355250D01*
X13022424Y-10145726D02*
X12974805Y-10288583D01*
X13098615Y-10288583D01*
X13212901Y-10155250D02*
X13231948Y-10155250D01*
X13250996Y-10164773D01*
X13260520Y-10174297D01*
X13270044Y-10193345D01*
X13279567Y-10231440D01*
X13279567Y-10279059D01*
X13270044Y-10317154D01*
X13260520Y-10336202D01*
X13250996Y-10345726D01*
X13231948Y-10355250D01*
X13212901Y-10355250D01*
X13193853Y-10345726D01*
X13184329Y-10336202D01*
X13174805Y-10317154D01*
X13165282Y-10279059D01*
X13165282Y-10231440D01*
X13174805Y-10193345D01*
X13184329Y-10174297D01*
X13193853Y-10164773D01*
X13212901Y-10155250D01*
X13403377Y-10155250D02*
X13422424Y-10155250D01*
X13441472Y-10164773D01*
X13450996Y-10174297D01*
X13460520Y-10193345D01*
X13470044Y-10231440D01*
X13470044Y-10279059D01*
X13460520Y-10317154D01*
X13450996Y-10336202D01*
X13441472Y-10345726D01*
X13422424Y-10355250D01*
X13403377Y-10355250D01*
X13384329Y-10345726D01*
X13374805Y-10336202D01*
X13365282Y-10317154D01*
X13355758Y-10279059D01*
X13355758Y-10231440D01*
X13365282Y-10193345D01*
X13374805Y-10174297D01*
X13384329Y-10164773D01*
X13403377Y-10155250D01*
X13555758Y-10355250D02*
X13555758Y-10221916D01*
X13555758Y-10240964D02*
X13565282Y-10231440D01*
X13584329Y-10221916D01*
X13612901Y-10221916D01*
X13631948Y-10231440D01*
X13641472Y-10250488D01*
X13641472Y-10355250D01*
X13641472Y-10250488D02*
X13650996Y-10231440D01*
X13670044Y-10221916D01*
X13698615Y-10221916D01*
X13717663Y-10231440D01*
X13727186Y-10250488D01*
X13727186Y-10355250D01*
X13822424Y-10355250D02*
X13822424Y-10221916D01*
X13822424Y-10240964D02*
X13831948Y-10231440D01*
X13850996Y-10221916D01*
X13879567Y-10221916D01*
X13898615Y-10231440D01*
X13908139Y-10250488D01*
X13908139Y-10355250D01*
X13908139Y-10250488D02*
X13917663Y-10231440D01*
X13936710Y-10221916D01*
X13965282Y-10221916D01*
X13984329Y-10231440D01*
X13993853Y-10250488D01*
X13993853Y-10355250D01*
X14384329Y-10145726D02*
X14212901Y-10402869D01*
X14641472Y-10155250D02*
X14660520Y-10155250D01*
X14679567Y-10164773D01*
X14689091Y-10174297D01*
X14698615Y-10193345D01*
X14708139Y-10231440D01*
X14708139Y-10279059D01*
X14698615Y-10317154D01*
X14689091Y-10336202D01*
X14679567Y-10345726D01*
X14660520Y-10355250D01*
X14641472Y-10355250D01*
X14622424Y-10345726D01*
X14612901Y-10336202D01*
X14603377Y-10317154D01*
X14593853Y-10279059D01*
X14593853Y-10231440D01*
X14603377Y-10193345D01*
X14612901Y-10174297D01*
X14622424Y-10164773D01*
X14641472Y-10155250D01*
X14793853Y-10336202D02*
X14803377Y-10345726D01*
X14793853Y-10355250D01*
X14784329Y-10345726D01*
X14793853Y-10336202D01*
X14793853Y-10355250D01*
X14927186Y-10155250D02*
X14946234Y-10155250D01*
X14965282Y-10164773D01*
X14974805Y-10174297D01*
X14984329Y-10193345D01*
X14993853Y-10231440D01*
X14993853Y-10279059D01*
X14984329Y-10317154D01*
X14974805Y-10336202D01*
X14965282Y-10345726D01*
X14946234Y-10355250D01*
X14927186Y-10355250D01*
X14908139Y-10345726D01*
X14898615Y-10336202D01*
X14889091Y-10317154D01*
X14879567Y-10279059D01*
X14879567Y-10231440D01*
X14889091Y-10193345D01*
X14898615Y-10174297D01*
X14908139Y-10164773D01*
X14927186Y-10155250D01*
X15184329Y-10355250D02*
X15070044Y-10355250D01*
X15127186Y-10355250D02*
X15127186Y-10155250D01*
X15108139Y-10183821D01*
X15089091Y-10202869D01*
X15070044Y-10212392D01*
X15365282Y-10155250D02*
X15270044Y-10155250D01*
X15260520Y-10250488D01*
X15270044Y-10240964D01*
X15289091Y-10231440D01*
X15336710Y-10231440D01*
X15355758Y-10240964D01*
X15365282Y-10250488D01*
X15374805Y-10269535D01*
X15374805Y-10317154D01*
X15365282Y-10336202D01*
X15355758Y-10345726D01*
X15336710Y-10355250D01*
X15289091Y-10355250D01*
X15270044Y-10345726D01*
X15260520Y-10336202D01*
X15441472Y-10155250D02*
X15574805Y-10155250D01*
X15489091Y-10355250D01*
X15641472Y-10155250D02*
X15641472Y-10193345D01*
X15717663Y-10155250D02*
X15717663Y-10193345D01*
X16012901Y-10431440D02*
X16003377Y-10421916D01*
X15984329Y-10393345D01*
X15974805Y-10374297D01*
X15965282Y-10345726D01*
X15955758Y-10298107D01*
X15955758Y-10260011D01*
X15965282Y-10212392D01*
X15974805Y-10183821D01*
X15984329Y-10164773D01*
X16003377Y-10136202D01*
X16012901Y-10126678D01*
X16193853Y-10355250D02*
X16079567Y-10355250D01*
X16136710Y-10355250D02*
X16136710Y-10155250D01*
X16117663Y-10183821D01*
X16098615Y-10202869D01*
X16079567Y-10212392D01*
X16384329Y-10355250D02*
X16270044Y-10355250D01*
X16327186Y-10355250D02*
X16327186Y-10155250D01*
X16308139Y-10183821D01*
X16289091Y-10202869D01*
X16270044Y-10212392D01*
X16622424Y-10355250D02*
X16622424Y-10155250D01*
X16708139Y-10355250D02*
X16708139Y-10250488D01*
X16698615Y-10231440D01*
X16679567Y-10221916D01*
X16650996Y-10221916D01*
X16631948Y-10231440D01*
X16622424Y-10240964D01*
X16831948Y-10355250D02*
X16812901Y-10345726D01*
X16803377Y-10336202D01*
X16793853Y-10317154D01*
X16793853Y-10260011D01*
X16803377Y-10240964D01*
X16812901Y-10231440D01*
X16831948Y-10221916D01*
X16860520Y-10221916D01*
X16879567Y-10231440D01*
X16889091Y-10240964D01*
X16898615Y-10260011D01*
X16898615Y-10317154D01*
X16889091Y-10336202D01*
X16879567Y-10345726D01*
X16860520Y-10355250D01*
X16831948Y-10355250D01*
X17012901Y-10355250D02*
X16993853Y-10345726D01*
X16984329Y-10326678D01*
X16984329Y-10155250D01*
X17165282Y-10345726D02*
X17146234Y-10355250D01*
X17108139Y-10355250D01*
X17089091Y-10345726D01*
X17079567Y-10326678D01*
X17079567Y-10250488D01*
X17089091Y-10231440D01*
X17108139Y-10221916D01*
X17146234Y-10221916D01*
X17165282Y-10231440D01*
X17174806Y-10250488D01*
X17174806Y-10269535D01*
X17079567Y-10288583D01*
X17250996Y-10345726D02*
X17270044Y-10355250D01*
X17308139Y-10355250D01*
X17327186Y-10345726D01*
X17336710Y-10326678D01*
X17336710Y-10317154D01*
X17327186Y-10298107D01*
X17308139Y-10288583D01*
X17279567Y-10288583D01*
X17260520Y-10279059D01*
X17250996Y-10260011D01*
X17250996Y-10250488D01*
X17260520Y-10231440D01*
X17279567Y-10221916D01*
X17308139Y-10221916D01*
X17327186Y-10231440D01*
X17403377Y-10431440D02*
X17412901Y-10421916D01*
X17431948Y-10393345D01*
X17441472Y-10374297D01*
X17450996Y-10345726D01*
X17460520Y-10298107D01*
X17460520Y-10260011D01*
X17450996Y-10212392D01*
X17441472Y-10183821D01*
X17431948Y-10164773D01*
X17412901Y-10136202D01*
X17403377Y-10126678D01*
D14*
X12415368Y-10590646D02*
X12415368Y-10466901D01*
X12291624Y-10466901D01*
X12291624Y-10590646D01*
X12415368Y-10590646D01*
D11*
X12803377Y-10619250D02*
X12689091Y-10619250D01*
X12746234Y-10619250D02*
X12746234Y-10419250D01*
X12727186Y-10447821D01*
X12708139Y-10466869D01*
X12689091Y-10476392D01*
X12889091Y-10600202D02*
X12898615Y-10609726D01*
X12889091Y-10619250D01*
X12879567Y-10609726D01*
X12889091Y-10600202D01*
X12889091Y-10619250D01*
X12965282Y-10419250D02*
X13098615Y-10419250D01*
X13012901Y-10619250D01*
X13270044Y-10419250D02*
X13174805Y-10419250D01*
X13165282Y-10514488D01*
X13174805Y-10504964D01*
X13193853Y-10495440D01*
X13241472Y-10495440D01*
X13260520Y-10504964D01*
X13270044Y-10514488D01*
X13279567Y-10533535D01*
X13279567Y-10581154D01*
X13270044Y-10600202D01*
X13260520Y-10609726D01*
X13241472Y-10619250D01*
X13193853Y-10619250D01*
X13174805Y-10609726D01*
X13165282Y-10600202D01*
X13403377Y-10419250D02*
X13422424Y-10419250D01*
X13441472Y-10428773D01*
X13450996Y-10438297D01*
X13460520Y-10457345D01*
X13470044Y-10495440D01*
X13470044Y-10543059D01*
X13460520Y-10581154D01*
X13450996Y-10600202D01*
X13441472Y-10609726D01*
X13422424Y-10619250D01*
X13403377Y-10619250D01*
X13384329Y-10609726D01*
X13374805Y-10600202D01*
X13365282Y-10581154D01*
X13355758Y-10543059D01*
X13355758Y-10495440D01*
X13365282Y-10457345D01*
X13374805Y-10438297D01*
X13384329Y-10428773D01*
X13403377Y-10419250D01*
X13555758Y-10619250D02*
X13555758Y-10485916D01*
X13555758Y-10504964D02*
X13565282Y-10495440D01*
X13584329Y-10485916D01*
X13612901Y-10485916D01*
X13631948Y-10495440D01*
X13641472Y-10514488D01*
X13641472Y-10619250D01*
X13641472Y-10514488D02*
X13650996Y-10495440D01*
X13670044Y-10485916D01*
X13698615Y-10485916D01*
X13717663Y-10495440D01*
X13727186Y-10514488D01*
X13727186Y-10619250D01*
X13822424Y-10619250D02*
X13822424Y-10485916D01*
X13822424Y-10504964D02*
X13831948Y-10495440D01*
X13850996Y-10485916D01*
X13879567Y-10485916D01*
X13898615Y-10495440D01*
X13908139Y-10514488D01*
X13908139Y-10619250D01*
X13908139Y-10514488D02*
X13917663Y-10495440D01*
X13936710Y-10485916D01*
X13965282Y-10485916D01*
X13984329Y-10495440D01*
X13993853Y-10514488D01*
X13993853Y-10619250D01*
X14384329Y-10409726D02*
X14212901Y-10666869D01*
X14641472Y-10419250D02*
X14660520Y-10419250D01*
X14679567Y-10428773D01*
X14689091Y-10438297D01*
X14698615Y-10457345D01*
X14708139Y-10495440D01*
X14708139Y-10543059D01*
X14698615Y-10581154D01*
X14689091Y-10600202D01*
X14679567Y-10609726D01*
X14660520Y-10619250D01*
X14641472Y-10619250D01*
X14622424Y-10609726D01*
X14612901Y-10600202D01*
X14603377Y-10581154D01*
X14593853Y-10543059D01*
X14593853Y-10495440D01*
X14603377Y-10457345D01*
X14612901Y-10438297D01*
X14622424Y-10428773D01*
X14641472Y-10419250D01*
X14793853Y-10600202D02*
X14803377Y-10609726D01*
X14793853Y-10619250D01*
X14784329Y-10609726D01*
X14793853Y-10600202D01*
X14793853Y-10619250D01*
X14927186Y-10419250D02*
X14946234Y-10419250D01*
X14965282Y-10428773D01*
X14974805Y-10438297D01*
X14984329Y-10457345D01*
X14993853Y-10495440D01*
X14993853Y-10543059D01*
X14984329Y-10581154D01*
X14974805Y-10600202D01*
X14965282Y-10609726D01*
X14946234Y-10619250D01*
X14927186Y-10619250D01*
X14908139Y-10609726D01*
X14898615Y-10600202D01*
X14889091Y-10581154D01*
X14879567Y-10543059D01*
X14879567Y-10495440D01*
X14889091Y-10457345D01*
X14898615Y-10438297D01*
X14908139Y-10428773D01*
X14927186Y-10419250D01*
X15165282Y-10419250D02*
X15127186Y-10419250D01*
X15108139Y-10428773D01*
X15098615Y-10438297D01*
X15079567Y-10466869D01*
X15070044Y-10504964D01*
X15070044Y-10581154D01*
X15079567Y-10600202D01*
X15089091Y-10609726D01*
X15108139Y-10619250D01*
X15146234Y-10619250D01*
X15165282Y-10609726D01*
X15174805Y-10600202D01*
X15184329Y-10581154D01*
X15184329Y-10533535D01*
X15174805Y-10514488D01*
X15165282Y-10504964D01*
X15146234Y-10495440D01*
X15108139Y-10495440D01*
X15089091Y-10504964D01*
X15079567Y-10514488D01*
X15070044Y-10533535D01*
X15298615Y-10504964D02*
X15279567Y-10495440D01*
X15270044Y-10485916D01*
X15260520Y-10466869D01*
X15260520Y-10457345D01*
X15270044Y-10438297D01*
X15279567Y-10428773D01*
X15298615Y-10419250D01*
X15336710Y-10419250D01*
X15355758Y-10428773D01*
X15365282Y-10438297D01*
X15374805Y-10457345D01*
X15374805Y-10466869D01*
X15365282Y-10485916D01*
X15355758Y-10495440D01*
X15336710Y-10504964D01*
X15298615Y-10504964D01*
X15279567Y-10514488D01*
X15270044Y-10524011D01*
X15260520Y-10543059D01*
X15260520Y-10581154D01*
X15270044Y-10600202D01*
X15279567Y-10609726D01*
X15298615Y-10619250D01*
X15336710Y-10619250D01*
X15355758Y-10609726D01*
X15365282Y-10600202D01*
X15374805Y-10581154D01*
X15374805Y-10543059D01*
X15365282Y-10524011D01*
X15355758Y-10514488D01*
X15336710Y-10504964D01*
X15470044Y-10619250D02*
X15508139Y-10619250D01*
X15527186Y-10609726D01*
X15536710Y-10600202D01*
X15555758Y-10571631D01*
X15565282Y-10533535D01*
X15565282Y-10457345D01*
X15555758Y-10438297D01*
X15546234Y-10428773D01*
X15527186Y-10419250D01*
X15489091Y-10419250D01*
X15470044Y-10428773D01*
X15460520Y-10438297D01*
X15450996Y-10457345D01*
X15450996Y-10504964D01*
X15460520Y-10524011D01*
X15470044Y-10533535D01*
X15489091Y-10543059D01*
X15527186Y-10543059D01*
X15546234Y-10533535D01*
X15555758Y-10524011D01*
X15565282Y-10504964D01*
X15641472Y-10419250D02*
X15641472Y-10457345D01*
X15717663Y-10419250D02*
X15717663Y-10457345D01*
X16012901Y-10695440D02*
X16003377Y-10685916D01*
X15984329Y-10657345D01*
X15974805Y-10638297D01*
X15965282Y-10609726D01*
X15955758Y-10562107D01*
X15955758Y-10524011D01*
X15965282Y-10476392D01*
X15974805Y-10447821D01*
X15984329Y-10428773D01*
X16003377Y-10400202D01*
X16012901Y-10390678D01*
X16193853Y-10619250D02*
X16079567Y-10619250D01*
X16136710Y-10619250D02*
X16136710Y-10419250D01*
X16117663Y-10447821D01*
X16098615Y-10466869D01*
X16079567Y-10476392D01*
X16317663Y-10419250D02*
X16336710Y-10419250D01*
X16355758Y-10428773D01*
X16365282Y-10438297D01*
X16374805Y-10457345D01*
X16384329Y-10495440D01*
X16384329Y-10543059D01*
X16374805Y-10581154D01*
X16365282Y-10600202D01*
X16355758Y-10609726D01*
X16336710Y-10619250D01*
X16317663Y-10619250D01*
X16298615Y-10609726D01*
X16289091Y-10600202D01*
X16279567Y-10581154D01*
X16270044Y-10543059D01*
X16270044Y-10495440D01*
X16279567Y-10457345D01*
X16289091Y-10438297D01*
X16298615Y-10428773D01*
X16317663Y-10419250D01*
X16622424Y-10619250D02*
X16622424Y-10419250D01*
X16708139Y-10619250D02*
X16708139Y-10514488D01*
X16698615Y-10495440D01*
X16679567Y-10485916D01*
X16650996Y-10485916D01*
X16631948Y-10495440D01*
X16622424Y-10504964D01*
X16831948Y-10619250D02*
X16812901Y-10609726D01*
X16803377Y-10600202D01*
X16793853Y-10581154D01*
X16793853Y-10524011D01*
X16803377Y-10504964D01*
X16812901Y-10495440D01*
X16831948Y-10485916D01*
X16860520Y-10485916D01*
X16879567Y-10495440D01*
X16889091Y-10504964D01*
X16898615Y-10524011D01*
X16898615Y-10581154D01*
X16889091Y-10600202D01*
X16879567Y-10609726D01*
X16860520Y-10619250D01*
X16831948Y-10619250D01*
X17012901Y-10619250D02*
X16993853Y-10609726D01*
X16984329Y-10590678D01*
X16984329Y-10419250D01*
X17165282Y-10609726D02*
X17146234Y-10619250D01*
X17108139Y-10619250D01*
X17089091Y-10609726D01*
X17079567Y-10590678D01*
X17079567Y-10514488D01*
X17089091Y-10495440D01*
X17108139Y-10485916D01*
X17146234Y-10485916D01*
X17165282Y-10495440D01*
X17174806Y-10514488D01*
X17174806Y-10533535D01*
X17079567Y-10552583D01*
X17250996Y-10609726D02*
X17270044Y-10619250D01*
X17308139Y-10619250D01*
X17327186Y-10609726D01*
X17336710Y-10590678D01*
X17336710Y-10581154D01*
X17327186Y-10562107D01*
X17308139Y-10552583D01*
X17279567Y-10552583D01*
X17260520Y-10543059D01*
X17250996Y-10524011D01*
X17250996Y-10514488D01*
X17260520Y-10495440D01*
X17279567Y-10485916D01*
X17308139Y-10485916D01*
X17327186Y-10495440D01*
X17403377Y-10695440D02*
X17412901Y-10685916D01*
X17431948Y-10657345D01*
X17441472Y-10638297D01*
X17450996Y-10609726D01*
X17460520Y-10562107D01*
X17460520Y-10524011D01*
X17450996Y-10476392D01*
X17441472Y-10447821D01*
X17431948Y-10428773D01*
X17412901Y-10400202D01*
X17403377Y-10390678D01*
M02*
