%TF.GenerationSoftware,KiCad,Pcbnew,(6.0.0)*%
%TF.CreationDate,2022-08-29T11:13:11+02:00*%
%TF.ProjectId,LiIon_Charger,4c69496f-6e5f-4436-9861-726765722e6b,rev?*%
%TF.SameCoordinates,Original*%
%TF.FileFunction,Copper,L1,Top*%
%TF.FilePolarity,Positive*%
%FSLAX46Y46*%
G04 Gerber Fmt 4.6, Leading zero omitted, Abs format (unit mm)*
G04 Created by KiCad (PCBNEW (6.0.0)) date 2022-08-29 11:13:11*
%MOMM*%
%LPD*%
G01*
G04 APERTURE LIST*
G04 Aperture macros list*
%AMRoundRect*
0 Rectangle with rounded corners*
0 $1 Rounding radius*
0 $2 $3 $4 $5 $6 $7 $8 $9 X,Y pos of 4 corners*
0 Add a 4 corners polygon primitive as box body*
4,1,4,$2,$3,$4,$5,$6,$7,$8,$9,$2,$3,0*
0 Add four circle primitives for the rounded corners*
1,1,$1+$1,$2,$3*
1,1,$1+$1,$4,$5*
1,1,$1+$1,$6,$7*
1,1,$1+$1,$8,$9*
0 Add four rect primitives between the rounded corners*
20,1,$1+$1,$2,$3,$4,$5,0*
20,1,$1+$1,$4,$5,$6,$7,0*
20,1,$1+$1,$6,$7,$8,$9,0*
20,1,$1+$1,$8,$9,$2,$3,0*%
%AMFreePoly0*
4,1,5,2.500000,-1.250000,-2.500000,-1.250000,-2.500000,1.250000,2.500000,1.250000,2.500000,-1.250000,2.500000,-1.250000,$1*%
%AMFreePoly1*
4,1,22,0.500000,-0.750000,0.000000,-0.750000,0.000000,-0.745033,-0.079941,-0.743568,-0.215256,-0.701293,-0.333266,-0.622738,-0.424486,-0.514219,-0.481581,-0.384460,-0.499164,-0.250000,-0.500000,-0.250000,-0.500000,0.250000,-0.499164,0.250000,-0.499963,0.256109,-0.478152,0.396186,-0.417904,0.524511,-0.324060,0.630769,-0.204165,0.706417,-0.067858,0.745374,0.000000,0.744959,0.000000,0.750000,
0.500000,0.750000,0.500000,-0.750000,0.500000,-0.750000,$1*%
%AMFreePoly2*
4,1,20,0.000000,0.744959,0.073905,0.744508,0.209726,0.703889,0.328688,0.626782,0.421226,0.519385,0.479903,0.390333,0.500000,0.250000,0.500000,-0.250000,0.499851,-0.262216,0.476331,-0.402017,0.414519,-0.529596,0.319384,-0.634700,0.198574,-0.708877,0.061801,-0.746166,0.000000,-0.745033,0.000000,-0.750000,-0.500000,-0.750000,-0.500000,0.750000,0.000000,0.750000,0.000000,0.744959,
0.000000,0.744959,$1*%
G04 Aperture macros list end*
%TA.AperFunction,ComponentPad*%
%ADD10FreePoly0,90.000000*%
%TD*%
%TA.AperFunction,SMDPad,CuDef*%
%ADD11R,2.100000X1.400000*%
%TD*%
%TA.AperFunction,ComponentPad*%
%ADD12FreePoly0,0.000000*%
%TD*%
%TA.AperFunction,SMDPad,CuDef*%
%ADD13RoundRect,0.140000X0.170000X-0.140000X0.170000X0.140000X-0.170000X0.140000X-0.170000X-0.140000X0*%
%TD*%
%TA.AperFunction,SMDPad,CuDef*%
%ADD14RoundRect,0.250000X0.250000X0.475000X-0.250000X0.475000X-0.250000X-0.475000X0.250000X-0.475000X0*%
%TD*%
%TA.AperFunction,SMDPad,CuDef*%
%ADD15RoundRect,0.200000X-0.200000X-0.275000X0.200000X-0.275000X0.200000X0.275000X-0.200000X0.275000X0*%
%TD*%
%TA.AperFunction,SMDPad,CuDef*%
%ADD16RoundRect,0.225000X-0.225000X-0.250000X0.225000X-0.250000X0.225000X0.250000X-0.225000X0.250000X0*%
%TD*%
%TA.AperFunction,SMDPad,CuDef*%
%ADD17RoundRect,0.218750X0.218750X0.256250X-0.218750X0.256250X-0.218750X-0.256250X0.218750X-0.256250X0*%
%TD*%
%TA.AperFunction,SMDPad,CuDef*%
%ADD18RoundRect,0.250000X-0.475000X0.250000X-0.475000X-0.250000X0.475000X-0.250000X0.475000X0.250000X0*%
%TD*%
%TA.AperFunction,SMDPad,CuDef*%
%ADD19R,4.200000X1.400000*%
%TD*%
%TA.AperFunction,SMDPad,CuDef*%
%ADD20RoundRect,0.250000X-0.450000X0.262500X-0.450000X-0.262500X0.450000X-0.262500X0.450000X0.262500X0*%
%TD*%
%TA.AperFunction,SMDPad,CuDef*%
%ADD21RoundRect,0.225000X0.250000X-0.225000X0.250000X0.225000X-0.250000X0.225000X-0.250000X-0.225000X0*%
%TD*%
%TA.AperFunction,SMDPad,CuDef*%
%ADD22RoundRect,0.200000X0.200000X0.275000X-0.200000X0.275000X-0.200000X-0.275000X0.200000X-0.275000X0*%
%TD*%
%TA.AperFunction,SMDPad,CuDef*%
%ADD23RoundRect,0.225000X-0.250000X0.225000X-0.250000X-0.225000X0.250000X-0.225000X0.250000X0.225000X0*%
%TD*%
%TA.AperFunction,SMDPad,CuDef*%
%ADD24FreePoly1,180.000000*%
%TD*%
%TA.AperFunction,SMDPad,CuDef*%
%ADD25FreePoly2,180.000000*%
%TD*%
%TA.AperFunction,SMDPad,CuDef*%
%ADD26RoundRect,0.075000X0.075000X-0.462500X0.075000X0.462500X-0.075000X0.462500X-0.075000X-0.462500X0*%
%TD*%
%TA.AperFunction,SMDPad,CuDef*%
%ADD27RoundRect,0.075000X0.462500X-0.075000X0.462500X0.075000X-0.462500X0.075000X-0.462500X-0.075000X0*%
%TD*%
%TA.AperFunction,ComponentPad*%
%ADD28C,0.600000*%
%TD*%
%TA.AperFunction,SMDPad,CuDef*%
%ADD29R,2.150000X2.150000*%
%TD*%
%TA.AperFunction,SMDPad,CuDef*%
%ADD30RoundRect,0.200000X0.275000X-0.200000X0.275000X0.200000X-0.275000X0.200000X-0.275000X-0.200000X0*%
%TD*%
%TA.AperFunction,SMDPad,CuDef*%
%ADD31RoundRect,0.250000X0.475000X-0.250000X0.475000X0.250000X-0.475000X0.250000X-0.475000X-0.250000X0*%
%TD*%
%TA.AperFunction,ComponentPad*%
%ADD32FreePoly0,180.000000*%
%TD*%
%TA.AperFunction,SMDPad,CuDef*%
%ADD33RoundRect,0.250000X-0.312500X-1.075000X0.312500X-1.075000X0.312500X1.075000X-0.312500X1.075000X0*%
%TD*%
%TA.AperFunction,ViaPad*%
%ADD34C,0.800000*%
%TD*%
%TA.AperFunction,ViaPad*%
%ADD35C,0.600000*%
%TD*%
%TA.AperFunction,Conductor*%
%ADD36C,0.250000*%
%TD*%
%TA.AperFunction,Conductor*%
%ADD37C,0.500000*%
%TD*%
G04 APERTURE END LIST*
D10*
%TO.P,j5,1,Pin_1*%
%TO.N,Net-(U1-Pad6)*%
X140817600Y-70916800D03*
%TD*%
D11*
%TO.P,D4,1,K*%
%TO.N,Net-(C3-Pad1)*%
X131724400Y-85303000D03*
%TO.P,D4,2,A*%
%TO.N,Net-(C1-Pad1)*%
X131724400Y-89703000D03*
%TD*%
D12*
%TO.P,H2,1,1*%
%TO.N,GND*%
X143459200Y-75082400D03*
%TD*%
D13*
%TO.P,C5,1*%
%TO.N,Net-(C5-Pad1)*%
X132791200Y-80744000D03*
%TO.P,C5,2*%
%TO.N,Net-(C5-Pad2)*%
X132791200Y-79784000D03*
%TD*%
D10*
%TO.P,j6,1,Pin_1*%
%TO.N,/Battery*%
X130683000Y-70916800D03*
%TD*%
D14*
%TO.P,C9,1*%
%TO.N,/Battery*%
X128432600Y-75539600D03*
%TO.P,C9,2*%
%TO.N,GND*%
X126532600Y-75539600D03*
%TD*%
D15*
%TO.P,R2,1*%
%TO.N,/NTC*%
X136004800Y-87426800D03*
%TO.P,R2,2*%
%TO.N,GND*%
X137654800Y-87426800D03*
%TD*%
D16*
%TO.P,C4,1*%
%TO.N,Net-(C4-Pad1)*%
X131940000Y-77165200D03*
%TO.P,C4,2*%
%TO.N,GND*%
X133490000Y-77165200D03*
%TD*%
D17*
%TO.P,D3,1,K*%
%TO.N,/~{CHGOK}*%
X142197500Y-83500000D03*
%TO.P,D3,2,A*%
%TO.N,Net-(D3-Pad2)*%
X140622500Y-83500000D03*
%TD*%
D12*
%TO.P,H4,1,1*%
%TO.N,GND*%
X124460000Y-73050400D03*
%TD*%
D18*
%TO.P,C1,1*%
%TO.N,Net-(C1-Pad1)*%
X134289800Y-87213400D03*
%TO.P,C1,2*%
%TO.N,GND*%
X134289800Y-89113400D03*
%TD*%
D19*
%TO.P,L1,1,1*%
%TO.N,Net-(C5-Pad1)*%
X126822200Y-80190800D03*
%TO.P,L1,2,2*%
%TO.N,Net-(L1-Pad2)*%
X126822200Y-77390800D03*
%TD*%
D20*
%TO.P,R7,1*%
%TO.N,/Battery*%
X130225800Y-75312900D03*
%TO.P,R7,2*%
%TO.N,Net-(L1-Pad2)*%
X130225800Y-77137900D03*
%TD*%
D21*
%TO.P,C7,1*%
%TO.N,Net-(C7-Pad1)*%
X132969000Y-73419000D03*
%TO.P,C7,2*%
%TO.N,GND*%
X132969000Y-71869000D03*
%TD*%
D12*
%TO.P,j4,1,Pin_1*%
%TO.N,/~{CHGOK}*%
X143459200Y-78003400D03*
%TD*%
D22*
%TO.P,R1,1*%
%TO.N,Net-(C2-Pad1)*%
X137654800Y-85902800D03*
%TO.P,R1,2*%
%TO.N,/NTC*%
X136004800Y-85902800D03*
%TD*%
D17*
%TO.P,D2,1,K*%
%TO.N,/~{ACOK}*%
X142214700Y-85115400D03*
%TO.P,D2,2,A*%
%TO.N,Net-(D2-Pad2)*%
X140639700Y-85115400D03*
%TD*%
D11*
%TO.P,D5,1,K*%
%TO.N,Net-(C5-Pad1)*%
X130759200Y-78927600D03*
%TO.P,D5,2,A*%
%TO.N,GND*%
X130759200Y-83327600D03*
%TD*%
D15*
%TO.P,R3,1*%
%TO.N,Net-(C2-Pad1)*%
X140602200Y-86639400D03*
%TO.P,R3,2*%
%TO.N,Net-(D2-Pad2)*%
X142252200Y-86639400D03*
%TD*%
D12*
%TO.P,H3,1,1*%
%TO.N,GND*%
X143459200Y-88849200D03*
%TD*%
D15*
%TO.P,R5,1*%
%TO.N,Net-(C7-Pad1)*%
X131966200Y-74980800D03*
%TO.P,R5,2*%
%TO.N,Net-(R5-Pad2)*%
X133616200Y-74980800D03*
%TD*%
D11*
%TO.P,D1,1,K*%
%TO.N,Net-(C1-Pad1)*%
X128651000Y-89703000D03*
%TO.P,D1,2,A*%
%TO.N,Net-(D1-Pad2)*%
X128651000Y-85303000D03*
%TD*%
D23*
%TO.P,C3,1*%
%TO.N,Net-(C3-Pad1)*%
X134040000Y-83984800D03*
%TO.P,C3,2*%
%TO.N,GND*%
X134040000Y-85534800D03*
%TD*%
D21*
%TO.P,C6,1*%
%TO.N,Net-(C6-Pad1)*%
X134543800Y-73419000D03*
%TO.P,C6,2*%
%TO.N,GND*%
X134543800Y-71869000D03*
%TD*%
D24*
%TO.P,JP1,1,A*%
%TO.N,Net-(JP1-Pad1)*%
X138191000Y-72694800D03*
D25*
%TO.P,JP1,2,B*%
%TO.N,GND*%
X136891000Y-72694800D03*
%TD*%
D26*
%TO.P,U1,1,VCC*%
%TO.N,Net-(C1-Pad1)*%
X134991200Y-82431700D03*
%TO.P,U1,2,NTC*%
%TO.N,/NTC*%
X135641200Y-82431700D03*
%TO.P,U1,3,~{ACOK}*%
%TO.N,/~{ACOK}*%
X136291200Y-82431700D03*
%TO.P,U1,4,~{CHGOK}*%
%TO.N,/~{CHGOK}*%
X136941200Y-82431700D03*
D27*
%TO.P,U1,5,VREF33*%
%TO.N,Net-(C2-Pad1)*%
X137803700Y-81569200D03*
%TO.P,U1,6,~{EN}*%
%TO.N,Net-(U1-Pad6)*%
X137803700Y-80919200D03*
%TO.P,U1,7,CELLS*%
%TO.N,Net-(JP1-Pad1)*%
X137803700Y-80269200D03*
%TO.P,U1,8,COMPV*%
%TO.N,Net-(R6-Pad2)*%
X137803700Y-79619200D03*
D26*
%TO.P,U1,9,COMPI*%
%TO.N,Net-(R5-Pad2)*%
X136941200Y-78756700D03*
%TO.P,U1,10,BATT*%
%TO.N,/Battery*%
X136291200Y-78756700D03*
%TO.P,U1,11,CSP*%
%TO.N,Net-(L1-Pad2)*%
X135641200Y-78756700D03*
%TO.P,U1,12,GND*%
%TO.N,GND*%
X134991200Y-78756700D03*
D27*
%TO.P,U1,13,TMR*%
%TO.N,Net-(C4-Pad1)*%
X134128700Y-79619200D03*
%TO.P,U1,14,BST*%
%TO.N,Net-(C5-Pad2)*%
X134128700Y-80269200D03*
%TO.P,U1,15,SW*%
%TO.N,Net-(C5-Pad1)*%
X134128700Y-80919200D03*
%TO.P,U1,16,VIN*%
%TO.N,Net-(C3-Pad1)*%
X134128700Y-81569200D03*
D28*
%TO.P,U1,17,NC*%
%TO.N,unconnected-(U1-Pad17)*%
X135191200Y-81369200D03*
X136741200Y-79819200D03*
X136741200Y-81369200D03*
X135191200Y-79819200D03*
D29*
X135966200Y-80594200D03*
D28*
X135966200Y-80594200D03*
X135966200Y-79819200D03*
X135966200Y-81369200D03*
X136741200Y-80594200D03*
X135191200Y-80594200D03*
%TD*%
D12*
%TO.P,H1,1,1*%
%TO.N,GND*%
X124460000Y-88798400D03*
%TD*%
D30*
%TO.P,R4,1*%
%TO.N,Net-(C2-Pad1)*%
X139115800Y-85915000D03*
%TO.P,R4,2*%
%TO.N,Net-(D3-Pad2)*%
X139115800Y-84265000D03*
%TD*%
D31*
%TO.P,C8,1*%
%TO.N,/Battery*%
X128193800Y-73721000D03*
%TO.P,C8,2*%
%TO.N,GND*%
X128193800Y-71821000D03*
%TD*%
D12*
%TO.P,j1,1,Pin_1*%
%TO.N,/Charger*%
X124460000Y-85775800D03*
%TD*%
D21*
%TO.P,C2,1*%
%TO.N,Net-(C2-Pad1)*%
X139725400Y-76492400D03*
%TO.P,C2,2*%
%TO.N,GND*%
X139725400Y-74942400D03*
%TD*%
D10*
%TO.P,j2,1,Pin_1*%
%TO.N,/NTC*%
X136779000Y-90906600D03*
%TD*%
D15*
%TO.P,R6,1*%
%TO.N,Net-(C6-Pad1)*%
X135192000Y-74980800D03*
%TO.P,R6,2*%
%TO.N,Net-(R6-Pad2)*%
X136842000Y-74980800D03*
%TD*%
D32*
%TO.P,j3,1,Pin_1*%
%TO.N,/~{ACOK}*%
X143459200Y-80949800D03*
%TD*%
D33*
%TO.P,F1,1*%
%TO.N,/Charger*%
X125435900Y-82677000D03*
%TO.P,F1,2*%
%TO.N,Net-(D1-Pad2)*%
X128360900Y-82677000D03*
%TD*%
D34*
%TO.N,Net-(U1-Pad6)*%
X139630000Y-73360000D03*
%TO.N,GND*%
X141040000Y-75220000D03*
%TO.N,/Battery*%
X130340000Y-73430000D03*
%TO.N,GND*%
X126830000Y-72960000D03*
%TO.N,/Charger*%
X126010000Y-84540000D03*
X126970000Y-86590000D03*
%TO.N,GND*%
X127010000Y-88130000D03*
%TO.N,/NTC*%
X136004800Y-88425200D03*
%TO.N,GND*%
X140870000Y-89010000D03*
%TO.N,/~{ACOK}*%
X142875000Y-82345000D03*
%TO.N,/~{CHGOK}*%
X140639800Y-78155800D03*
D35*
%TO.N,GND*%
X139570000Y-89600000D03*
X132270000Y-81950000D03*
X131927600Y-87528400D03*
X125450600Y-75565000D03*
X130124200Y-87528400D03*
X135890000Y-73736200D03*
X135740000Y-72760000D03*
X135661400Y-71882000D03*
X129971800Y-81864200D03*
X139550000Y-88410000D03*
X128270000Y-87528400D03*
X134210000Y-78520000D03*
X134650000Y-88350000D03*
X138820000Y-87400000D03*
X134620000Y-77800200D03*
X128193800Y-72593200D03*
X133750000Y-72030000D03*
X133654800Y-78003400D03*
%TO.N,Net-(C2-Pad1)*%
X139115800Y-81584800D03*
X139014200Y-83159600D03*
%TO.N,/~{ACOK}*%
X137668000Y-84328000D03*
X143002000Y-84328000D03*
%TD*%
D36*
%TO.N,/NTC*%
X136004800Y-88425200D02*
X136004800Y-87426800D01*
%TO.N,/~{ACOK}*%
X142875000Y-82345000D02*
X142875000Y-82651600D01*
%TO.N,Net-(U1-Pad6)*%
X139380000Y-73580000D02*
X140817600Y-72142400D01*
%TO.N,Net-(D3-Pad2)*%
X139857500Y-84265000D02*
X140622500Y-83500000D01*
X139115800Y-84265000D02*
X139857500Y-84265000D01*
%TO.N,/~{CHGOK}*%
X140496100Y-82431700D02*
X140744400Y-82680000D01*
X140744400Y-82680000D02*
X141887400Y-82680000D01*
X141887400Y-82680000D02*
X142197500Y-82990100D01*
X142197500Y-82990100D02*
X142197500Y-83500000D01*
%TO.N,Net-(C1-Pad1)*%
X134147600Y-87213400D02*
X134289800Y-87213400D01*
X131724400Y-89703000D02*
X132470800Y-89703000D01*
X134289800Y-86614000D02*
X134289800Y-87213400D01*
X134848600Y-86055200D02*
X134289800Y-86614000D01*
X132470800Y-89703000D02*
X132638800Y-89535000D01*
X132638800Y-89535000D02*
X132638800Y-88722200D01*
X132638800Y-88722200D02*
X134147600Y-87213400D01*
X134991200Y-82431700D02*
X134848600Y-82574300D01*
X134848600Y-82574300D02*
X134848600Y-86055200D01*
%TO.N,GND*%
X125476000Y-75539600D02*
X125450600Y-75565000D01*
X133921200Y-85534800D02*
X131927600Y-87528400D01*
X134035800Y-85534800D02*
X133921200Y-85534800D01*
X128193800Y-72593200D02*
X128193800Y-71821000D01*
%TO.N,Net-(C2-Pad1)*%
X138303000Y-83718400D02*
X138303000Y-84683600D01*
X139801600Y-80899000D02*
X139801600Y-76568600D01*
X139115800Y-85915000D02*
X139877800Y-85915000D01*
X138303000Y-84683600D02*
X139115800Y-85496400D01*
X137654800Y-85902800D02*
X139103600Y-85902800D01*
X139103600Y-85902800D02*
X139115800Y-85915000D01*
X138861800Y-83159600D02*
X138303000Y-83718400D01*
X139115800Y-85496400D02*
X139115800Y-85915000D01*
X139801600Y-76568600D02*
X139725400Y-76492400D01*
X137803700Y-81569200D02*
X139131400Y-81569200D01*
X139014200Y-83159600D02*
X138861800Y-83159600D01*
X139115800Y-81584800D02*
X139131400Y-81569200D01*
X139131400Y-81569200D02*
X139801600Y-80899000D01*
X139877800Y-85915000D02*
X140602200Y-86639400D01*
%TO.N,Net-(C4-Pad1)*%
X133797400Y-79619200D02*
X134128700Y-79619200D01*
X131940000Y-77761800D02*
X133797400Y-79619200D01*
X131940000Y-77165200D02*
X131940000Y-77761800D01*
%TO.N,Net-(C5-Pad1)*%
X134128700Y-80919200D02*
X132966400Y-80919200D01*
X132966400Y-80919200D02*
X132791200Y-80744000D01*
%TO.N,Net-(C6-Pad1)*%
X135192000Y-74943200D02*
X134543800Y-74295000D01*
X135192000Y-74980800D02*
X135192000Y-74943200D01*
X134543800Y-74295000D02*
X134543800Y-73419000D01*
%TO.N,Net-(C7-Pad1)*%
X132740400Y-73647600D02*
X132969000Y-73419000D01*
X132740400Y-74803000D02*
X132740400Y-73647600D01*
X132562600Y-74980800D02*
X132740400Y-74803000D01*
X131966200Y-74980800D02*
X132562600Y-74980800D01*
%TO.N,/Battery*%
X134594600Y-76301600D02*
X134188200Y-75895200D01*
X136067800Y-76301600D02*
X134594600Y-76301600D01*
X130456300Y-75312900D02*
X130225800Y-75312900D01*
X136291200Y-76525000D02*
X136067800Y-76301600D01*
X128659300Y-75312900D02*
X128432600Y-75539600D01*
X130225800Y-75539600D02*
X130225800Y-75312900D01*
X134188200Y-75895200D02*
X130581400Y-75895200D01*
X136291200Y-78756700D02*
X136291200Y-76525000D01*
X130581400Y-75895200D02*
X130225800Y-75539600D01*
X130251200Y-75287500D02*
X130225800Y-75312900D01*
%TO.N,/Charger*%
X125435900Y-84723700D02*
X124383800Y-85775800D01*
%TO.N,/~{ACOK}*%
X143002000Y-82778600D02*
X143002000Y-84328000D01*
X136702800Y-84328000D02*
X136291200Y-83916400D01*
X143459200Y-80949800D02*
X142875000Y-81534000D01*
X142875000Y-82651600D02*
X143002000Y-82778600D01*
X142214700Y-85115400D02*
X142214700Y-85115300D01*
X137668000Y-84328000D02*
X136702800Y-84328000D01*
X142214700Y-85115300D02*
X143002000Y-84328000D01*
X142875000Y-81534000D02*
X142875000Y-82345000D01*
X136291200Y-83916400D02*
X136291200Y-82431700D01*
%TO.N,/~{CHGOK}*%
X136941200Y-82431700D02*
X140496100Y-82431700D01*
X140496100Y-82431700D02*
X140496100Y-78299500D01*
X143306800Y-78155800D02*
X143459200Y-78003400D01*
X140496100Y-78299500D02*
X140639800Y-78155800D01*
X140639800Y-78155800D02*
X143306800Y-78155800D01*
%TO.N,Net-(L1-Pad2)*%
X133985000Y-76352400D02*
X131216400Y-76352400D01*
X130430900Y-77137900D02*
X130225800Y-77137900D01*
X135641200Y-78756700D02*
X135641200Y-77018000D01*
X134416800Y-76784200D02*
X133985000Y-76352400D01*
X135641200Y-77018000D02*
X135407400Y-76784200D01*
X131216400Y-76352400D02*
X130430900Y-77137900D01*
X135407400Y-76784200D02*
X134416800Y-76784200D01*
%TO.N,/NTC*%
X135641200Y-85539200D02*
X136004800Y-85902800D01*
X136004800Y-87426800D02*
X136004800Y-85902800D01*
X136779000Y-89662000D02*
X136004800Y-88887800D01*
X136004800Y-88887800D02*
X136004800Y-88425200D01*
X135641200Y-82431700D02*
X135641200Y-85539200D01*
X136779000Y-90906600D02*
X136779000Y-89662000D01*
%TO.N,Net-(R6-Pad2)*%
X137803700Y-78012100D02*
X137464800Y-77673200D01*
X137464800Y-75603600D02*
X136842000Y-74980800D01*
X137803700Y-79619200D02*
X137803700Y-78012100D01*
X137464800Y-77673200D02*
X137464800Y-75603600D01*
%TO.N,Net-(JP1-Pad1)*%
X137803700Y-80269200D02*
X138424800Y-80269200D01*
X137922000Y-72963800D02*
X138191000Y-72694800D01*
X138684000Y-77901800D02*
X137922000Y-77139800D01*
X138684000Y-80010000D02*
X138684000Y-77901800D01*
X137922000Y-77139800D02*
X137922000Y-72963800D01*
X138424800Y-80269200D02*
X138684000Y-80010000D01*
%TO.N,Net-(C5-Pad2)*%
X134128700Y-80269200D02*
X133380600Y-80269200D01*
X133380600Y-80269200D02*
X132895400Y-79784000D01*
X132895400Y-79784000D02*
X132791200Y-79784000D01*
%TO.N,Net-(D2-Pad2)*%
X140728200Y-85115400D02*
X142252200Y-86639400D01*
X140639700Y-85115400D02*
X140728200Y-85115400D01*
%TO.N,Net-(U1-Pad6)*%
X138963400Y-73990200D02*
X138969800Y-73990200D01*
X138969800Y-73990200D02*
X139380000Y-73580000D01*
X140817600Y-72142400D02*
X140817600Y-71041820D01*
X138994000Y-80919200D02*
X139242800Y-80670400D01*
X139242800Y-77774800D02*
X138379200Y-76911200D01*
X138379200Y-76911200D02*
X138379200Y-74574400D01*
X138379200Y-74574400D02*
X138963400Y-73990200D01*
X137803700Y-80919200D02*
X138994000Y-80919200D01*
X139242800Y-80670400D02*
X139242800Y-77774800D01*
%TO.N,Net-(R5-Pad2)*%
X134188200Y-74980800D02*
X133616200Y-74980800D01*
X134772400Y-75819000D02*
X134442200Y-75488800D01*
X134442200Y-75488800D02*
X134442200Y-75234800D01*
X134442200Y-75234800D02*
X134188200Y-74980800D01*
X136941200Y-76209800D02*
X136550400Y-75819000D01*
X136941200Y-78756700D02*
X136941200Y-76209800D01*
X136550400Y-75819000D02*
X134772400Y-75819000D01*
D37*
%TO.N,Net-(D1-Pad2)*%
X128360900Y-82677000D02*
X128360900Y-85012900D01*
D36*
X128360900Y-85012900D02*
X128651000Y-85303000D01*
%TD*%
%TA.AperFunction,Conductor*%
%TO.N,Net-(L1-Pad2)*%
G36*
X130761450Y-76657197D02*
G01*
X130829570Y-76677201D01*
X130876062Y-76730857D01*
X130887447Y-76783387D01*
X130886369Y-77496415D01*
X130866264Y-77564506D01*
X130812538Y-77610918D01*
X130760386Y-77622225D01*
X129463779Y-77622400D01*
X129456249Y-77629931D01*
X129456248Y-77629931D01*
X129068905Y-78017293D01*
X129006593Y-78051320D01*
X128979807Y-78054200D01*
X125094000Y-78054200D01*
X125025879Y-78034198D01*
X124979386Y-77980542D01*
X124968000Y-77928200D01*
X124968000Y-76859400D01*
X124988002Y-76791279D01*
X125041658Y-76744786D01*
X125094000Y-76733400D01*
X126019965Y-76733400D01*
X126059632Y-76739807D01*
X126121211Y-76760232D01*
X126121213Y-76760232D01*
X126127739Y-76762397D01*
X126134575Y-76763097D01*
X126134578Y-76763098D01*
X126177631Y-76767509D01*
X126232200Y-76773100D01*
X126833000Y-76773100D01*
X126836246Y-76772763D01*
X126836250Y-76772763D01*
X126931908Y-76762838D01*
X126931912Y-76762837D01*
X126938766Y-76762126D01*
X126945302Y-76759945D01*
X126945304Y-76759945D01*
X127005457Y-76739876D01*
X127045333Y-76733400D01*
X127919965Y-76733400D01*
X127959632Y-76739807D01*
X128021211Y-76760232D01*
X128021213Y-76760232D01*
X128027739Y-76762397D01*
X128034575Y-76763097D01*
X128034578Y-76763098D01*
X128077631Y-76767509D01*
X128132200Y-76773100D01*
X128733000Y-76773100D01*
X128736246Y-76772763D01*
X128736250Y-76772763D01*
X128831908Y-76762838D01*
X128831912Y-76762837D01*
X128838766Y-76762126D01*
X128845302Y-76759945D01*
X128845304Y-76759945D01*
X128905457Y-76739876D01*
X128945333Y-76733400D01*
X129616200Y-76733400D01*
X129657078Y-76693265D01*
X129719700Y-76659813D01*
X129745354Y-76657174D01*
X130761450Y-76657197D01*
G37*
%TD.AperFunction*%
%TD*%
%TA.AperFunction,Conductor*%
%TO.N,/Battery*%
G36*
X131895121Y-71444802D02*
G01*
X131941614Y-71498458D01*
X131953000Y-71550800D01*
X131953000Y-73457800D01*
X131932998Y-73525921D01*
X131879342Y-73572414D01*
X131827000Y-73583800D01*
X130886200Y-73583800D01*
X130886027Y-73596926D01*
X130886027Y-73596927D01*
X130861474Y-75462983D01*
X130840578Y-75530834D01*
X130824580Y-75550420D01*
X130643705Y-75731295D01*
X130581393Y-75765321D01*
X130554610Y-75768200D01*
X128778000Y-75768200D01*
X128778000Y-75972400D01*
X128757998Y-76040521D01*
X128704342Y-76087014D01*
X128652000Y-76098400D01*
X128116600Y-76098400D01*
X128048479Y-76078398D01*
X128001986Y-76024742D01*
X127990600Y-75972400D01*
X127990600Y-74117200D01*
X127684800Y-74117200D01*
X127616679Y-74097198D01*
X127570186Y-74043542D01*
X127558800Y-73991200D01*
X127558800Y-73548441D01*
X127575680Y-73485443D01*
X127629169Y-73392798D01*
X127680551Y-73343806D01*
X127738287Y-73329800D01*
X127832195Y-73329800D01*
X127876115Y-73337703D01*
X127990358Y-73380190D01*
X127990360Y-73380190D01*
X127996968Y-73382648D01*
X128073045Y-73392799D01*
X128169780Y-73405707D01*
X128169784Y-73405707D01*
X128176761Y-73406638D01*
X128183772Y-73406000D01*
X128183776Y-73406000D01*
X128328821Y-73392799D01*
X128357400Y-73390198D01*
X128364102Y-73388020D01*
X128364104Y-73388020D01*
X128524307Y-73335967D01*
X128563243Y-73329800D01*
X129387600Y-73329800D01*
X129387600Y-72333635D01*
X129394007Y-72293968D01*
X129414432Y-72232389D01*
X129414432Y-72232387D01*
X129416597Y-72225861D01*
X129427300Y-72121400D01*
X129427300Y-71550800D01*
X129447302Y-71482679D01*
X129500958Y-71436186D01*
X129553300Y-71424800D01*
X131827000Y-71424800D01*
X131895121Y-71444802D01*
G37*
%TD.AperFunction*%
%TD*%
%TA.AperFunction,Conductor*%
%TO.N,Net-(C5-Pad1)*%
G36*
X131428627Y-78150402D02*
G01*
X131449601Y-78167305D01*
X131449779Y-78167483D01*
X131462619Y-78182516D01*
X131474528Y-78198907D01*
X131508605Y-78227098D01*
X131517384Y-78235088D01*
X131890695Y-78608399D01*
X131924721Y-78670711D01*
X131927600Y-78697494D01*
X131927600Y-79908400D01*
X131936756Y-79917556D01*
X131970782Y-79979868D01*
X131973273Y-79996764D01*
X131975594Y-80026254D01*
X131977389Y-80032431D01*
X132013276Y-80155956D01*
X132021306Y-80183597D01*
X132104712Y-80324629D01*
X132220571Y-80440488D01*
X132361603Y-80523894D01*
X132369214Y-80526105D01*
X132369216Y-80526106D01*
X132420195Y-80540916D01*
X132518946Y-80569606D01*
X132525351Y-80570110D01*
X132525356Y-80570111D01*
X132553260Y-80572307D01*
X132553268Y-80572307D01*
X132555716Y-80572500D01*
X132735806Y-80572500D01*
X132803927Y-80592502D01*
X132824901Y-80609405D01*
X132876943Y-80661447D01*
X132884487Y-80669737D01*
X132888600Y-80676218D01*
X132894377Y-80681643D01*
X132938267Y-80722858D01*
X132941109Y-80725613D01*
X132960830Y-80745334D01*
X132964025Y-80747812D01*
X132973046Y-80755517D01*
X132988301Y-80769842D01*
X132990569Y-80771972D01*
X133026535Y-80833185D01*
X133023698Y-80904125D01*
X132982958Y-80962269D01*
X132972438Y-80969821D01*
X132894772Y-81019734D01*
X132894768Y-81019737D01*
X132890990Y-81022165D01*
X132887595Y-81025107D01*
X132887592Y-81025109D01*
X132857320Y-81051340D01*
X132837334Y-81068658D01*
X132834393Y-81072052D01*
X132823942Y-81084113D01*
X132764216Y-81122496D01*
X132728718Y-81127600D01*
X130335269Y-81127600D01*
X130293002Y-81120299D01*
X130164225Y-81074443D01*
X130164220Y-81074442D01*
X130157590Y-81072081D01*
X130150602Y-81071248D01*
X130150599Y-81071247D01*
X130022447Y-81055966D01*
X129977480Y-81050604D01*
X129970477Y-81051340D01*
X129970476Y-81051340D01*
X129804088Y-81068828D01*
X129804086Y-81068829D01*
X129797088Y-81069564D01*
X129705752Y-81100657D01*
X129634821Y-81103675D01*
X129573517Y-81067865D01*
X129564406Y-81057057D01*
X129563587Y-81055966D01*
X129563586Y-81055965D01*
X129558178Y-81048766D01*
X129550959Y-81043381D01*
X129550957Y-81043379D01*
X129445889Y-80965002D01*
X129445887Y-80965001D01*
X129442280Y-80962310D01*
X129379911Y-80928390D01*
X129337577Y-80912681D01*
X129262504Y-80884824D01*
X129244351Y-80878088D01*
X129235361Y-80877460D01*
X129235360Y-80877460D01*
X129199347Y-80874946D01*
X129100110Y-80868016D01*
X129095630Y-80868344D01*
X129095623Y-80868344D01*
X129047245Y-80871886D01*
X129029303Y-80873200D01*
X128976561Y-80884766D01*
X128909908Y-80881283D01*
X128834792Y-80856369D01*
X128834790Y-80856369D01*
X128828261Y-80854203D01*
X128821425Y-80853503D01*
X128821422Y-80853502D01*
X128778369Y-80849091D01*
X128723800Y-80843500D01*
X127998000Y-80843500D01*
X127994754Y-80843837D01*
X127994750Y-80843837D01*
X127899092Y-80853762D01*
X127899088Y-80853763D01*
X127892234Y-80854474D01*
X127885698Y-80856655D01*
X127885696Y-80856655D01*
X127801264Y-80884824D01*
X127761388Y-80891300D01*
X127026000Y-80891300D01*
X126918020Y-80902909D01*
X126914736Y-80903623D01*
X126914732Y-80903624D01*
X126889661Y-80909078D01*
X126865678Y-80914295D01*
X126762628Y-80948593D01*
X126756000Y-80952853D01*
X126755995Y-80952855D01*
X126717158Y-80977815D01*
X126649037Y-80997818D01*
X126596694Y-80986432D01*
X126592494Y-80984514D01*
X126477240Y-80931879D01*
X126453486Y-80924904D01*
X126413442Y-80913146D01*
X126413438Y-80913145D01*
X126409119Y-80911877D01*
X126404671Y-80911237D01*
X126404664Y-80911236D01*
X126270448Y-80891939D01*
X126270441Y-80891938D01*
X126266000Y-80891300D01*
X126035456Y-80891300D01*
X125995789Y-80884893D01*
X125984728Y-80881224D01*
X125945853Y-80868330D01*
X125909789Y-80856368D01*
X125909787Y-80856368D01*
X125903261Y-80854203D01*
X125896425Y-80853503D01*
X125896422Y-80853502D01*
X125853369Y-80849091D01*
X125798800Y-80843500D01*
X125094000Y-80843500D01*
X125025879Y-80823498D01*
X124979386Y-80769842D01*
X124968000Y-80717500D01*
X124968000Y-79145400D01*
X124988002Y-79077279D01*
X125041658Y-79030786D01*
X125094000Y-79019400D01*
X128701800Y-79019400D01*
X129189154Y-78532046D01*
X129234213Y-78503087D01*
X129250063Y-78497175D01*
X129312375Y-78463148D01*
X129428124Y-78376494D01*
X129610759Y-78193850D01*
X129673071Y-78159823D01*
X129712696Y-78157599D01*
X129722193Y-78158572D01*
X129722204Y-78158573D01*
X129725400Y-78158900D01*
X130726200Y-78158900D01*
X130729446Y-78158563D01*
X130729450Y-78158563D01*
X130825108Y-78148638D01*
X130825112Y-78148637D01*
X130831966Y-78147926D01*
X130838502Y-78145745D01*
X130838504Y-78145745D01*
X130865087Y-78136876D01*
X130904963Y-78130400D01*
X131360506Y-78130400D01*
X131428627Y-78150402D01*
G37*
%TD.AperFunction*%
%TD*%
%TA.AperFunction,Conductor*%
%TO.N,Net-(D1-Pad2)*%
G36*
X129199572Y-81408580D02*
G01*
X129233702Y-81470834D01*
X129229028Y-81540919D01*
X129186766Y-81657034D01*
X129180997Y-81672885D01*
X129158263Y-81852840D01*
X129175963Y-82033360D01*
X129233218Y-82205473D01*
X129236867Y-82211499D01*
X129238381Y-82214775D01*
X129250000Y-82267624D01*
X129250000Y-82380954D01*
X129241982Y-82425183D01*
X129207455Y-82517284D01*
X129200700Y-82579466D01*
X129200700Y-84075734D01*
X129207455Y-84137916D01*
X129258585Y-84274305D01*
X129345939Y-84390861D01*
X129462495Y-84478215D01*
X129598884Y-84529345D01*
X129661066Y-84536100D01*
X129773938Y-84536100D01*
X129842059Y-84556102D01*
X129888552Y-84609758D01*
X129897491Y-84637389D01*
X129897553Y-84637699D01*
X129900000Y-84662410D01*
X129900000Y-85887590D01*
X129897579Y-85912171D01*
X129882054Y-85990223D01*
X129863241Y-86035642D01*
X129847785Y-86058774D01*
X129826056Y-86091294D01*
X129791295Y-86126055D01*
X129735642Y-86163241D01*
X129690225Y-86182053D01*
X129621876Y-86195649D01*
X129612171Y-86197579D01*
X129587590Y-86200000D01*
X127866624Y-86200000D01*
X127798503Y-86179998D01*
X127757505Y-86137000D01*
X127712341Y-86058774D01*
X127709040Y-86053056D01*
X127698225Y-86041044D01*
X127585675Y-85916045D01*
X127585674Y-85916044D01*
X127581253Y-85911134D01*
X127525668Y-85870749D01*
X127482314Y-85814527D01*
X127473729Y-85768813D01*
X127473729Y-84525800D01*
X127468500Y-84452689D01*
X127427304Y-84312389D01*
X127366956Y-84218486D01*
X127353122Y-84196959D01*
X127353120Y-84196956D01*
X127348250Y-84189379D01*
X127288859Y-84137916D01*
X127244555Y-84099526D01*
X127244552Y-84099524D01*
X127237743Y-84093624D01*
X127104734Y-84032881D01*
X127095811Y-84031598D01*
X127008068Y-84018982D01*
X126943487Y-83989489D01*
X126905104Y-83929763D01*
X126900000Y-83894265D01*
X126900000Y-81525300D01*
X126920002Y-81457179D01*
X126973658Y-81410686D01*
X127026000Y-81399300D01*
X128970334Y-81399300D01*
X129032516Y-81392545D01*
X129066396Y-81379844D01*
X129137203Y-81374660D01*
X129199572Y-81408580D01*
G37*
%TD.AperFunction*%
%TD*%
%TA.AperFunction,Conductor*%
%TO.N,Net-(C3-Pad1)*%
G36*
X133526356Y-81400496D02*
G01*
X133533074Y-81403919D01*
X133542865Y-81405470D01*
X133542866Y-81405470D01*
X133558080Y-81407880D01*
X133632712Y-81419700D01*
X134414700Y-81419700D01*
X134482821Y-81439702D01*
X134529314Y-81493358D01*
X134540700Y-81545700D01*
X134540700Y-81623135D01*
X134520698Y-81691256D01*
X134479417Y-81731245D01*
X134444457Y-81752173D01*
X134440298Y-81755777D01*
X134393666Y-81796183D01*
X134393662Y-81796187D01*
X134390801Y-81798666D01*
X134388261Y-81801467D01*
X134388256Y-81801472D01*
X134340442Y-81854202D01*
X134334392Y-81860874D01*
X134284179Y-81964573D01*
X134264177Y-82032694D01*
X134263537Y-82037142D01*
X134263536Y-82037149D01*
X134250639Y-82126852D01*
X134250638Y-82126859D01*
X134250000Y-82131300D01*
X134250000Y-83272778D01*
X134255356Y-83333774D01*
X134263010Y-83377021D01*
X134273835Y-83421214D01*
X134326077Y-83523906D01*
X134345314Y-83549962D01*
X134348468Y-83554235D01*
X134372836Y-83620919D01*
X134373100Y-83629072D01*
X134373100Y-84333995D01*
X134353098Y-84402116D01*
X134344975Y-84413344D01*
X134334392Y-84426396D01*
X134284179Y-84530095D01*
X134282713Y-84535086D01*
X134282712Y-84535090D01*
X134265445Y-84593897D01*
X134264177Y-84598216D01*
X134263757Y-84601135D01*
X134229916Y-84663101D01*
X134167601Y-84697122D01*
X134140826Y-84700000D01*
X133524264Y-84700000D01*
X133409459Y-84722836D01*
X133399140Y-84729731D01*
X133317278Y-84784429D01*
X133317274Y-84784432D01*
X133312132Y-84787868D01*
X133087868Y-85012132D01*
X133084432Y-85017274D01*
X133084429Y-85017278D01*
X133033983Y-85092777D01*
X133022836Y-85109459D01*
X133000000Y-85224264D01*
X133000000Y-85731352D01*
X132979998Y-85799473D01*
X132963095Y-85820447D01*
X132620447Y-86163095D01*
X132558135Y-86197121D01*
X132531352Y-86200000D01*
X130762410Y-86200000D01*
X130737829Y-86197579D01*
X130728124Y-86195649D01*
X130659775Y-86182053D01*
X130614358Y-86163241D01*
X130558705Y-86126055D01*
X130523944Y-86091294D01*
X130486759Y-86035642D01*
X130467946Y-85990223D01*
X130452421Y-85912171D01*
X130450000Y-85887590D01*
X130450000Y-84712410D01*
X130452421Y-84687829D01*
X130467946Y-84609777D01*
X130486759Y-84564358D01*
X130523945Y-84508705D01*
X130558705Y-84473945D01*
X130614358Y-84436759D01*
X130659775Y-84417947D01*
X130737828Y-84402421D01*
X130762410Y-84400000D01*
X132325736Y-84400000D01*
X132440541Y-84377164D01*
X132505148Y-84333995D01*
X132532722Y-84315571D01*
X132532726Y-84315568D01*
X132537868Y-84312132D01*
X133062132Y-83787868D01*
X133065568Y-83782726D01*
X133065571Y-83782722D01*
X133120269Y-83700860D01*
X133127164Y-83690541D01*
X133150000Y-83575736D01*
X133150000Y-81520700D01*
X133170002Y-81452579D01*
X133223658Y-81406086D01*
X133276000Y-81394700D01*
X133489765Y-81394700D01*
X133526356Y-81400496D01*
G37*
%TD.AperFunction*%
%TD*%
%TA.AperFunction,Conductor*%
%TO.N,GND*%
G36*
X138437256Y-86701530D02*
G01*
X138458485Y-86711805D01*
X138547101Y-86765472D01*
X138554348Y-86767743D01*
X138554350Y-86767744D01*
X138593230Y-86779928D01*
X138710738Y-86816753D01*
X138784165Y-86823500D01*
X138787063Y-86823500D01*
X139116660Y-86823499D01*
X139447434Y-86823499D01*
X139450292Y-86823236D01*
X139450301Y-86823236D01*
X139485804Y-86819974D01*
X139520862Y-86816753D01*
X139530020Y-86813883D01*
X139531746Y-86813852D01*
X139533796Y-86813441D01*
X139533871Y-86813813D01*
X139601002Y-86812596D01*
X139661414Y-86849891D01*
X139692073Y-86913926D01*
X139693701Y-86934116D01*
X139693701Y-86971034D01*
X139700447Y-87044462D01*
X139702446Y-87050840D01*
X139702446Y-87050841D01*
X139739602Y-87169404D01*
X139751728Y-87208099D01*
X139840561Y-87354781D01*
X139961819Y-87476039D01*
X140108501Y-87564872D01*
X140115748Y-87567143D01*
X140115750Y-87567144D01*
X140140985Y-87575052D01*
X140272138Y-87616153D01*
X140345565Y-87622900D01*
X140348463Y-87622900D01*
X140602865Y-87622899D01*
X140858834Y-87622899D01*
X140861692Y-87622636D01*
X140861701Y-87622636D01*
X140897204Y-87619374D01*
X140932262Y-87616153D01*
X140982051Y-87600550D01*
X141088650Y-87567144D01*
X141088652Y-87567143D01*
X141095899Y-87564872D01*
X141242581Y-87476039D01*
X141338105Y-87380515D01*
X141400417Y-87346489D01*
X141471232Y-87351554D01*
X141516295Y-87380515D01*
X141611819Y-87476039D01*
X141758501Y-87564872D01*
X141765748Y-87567143D01*
X141765750Y-87567144D01*
X141790985Y-87575052D01*
X141922138Y-87616153D01*
X141995565Y-87622900D01*
X141998463Y-87622900D01*
X142252865Y-87622899D01*
X142508834Y-87622899D01*
X142511692Y-87622636D01*
X142511701Y-87622636D01*
X142547204Y-87619374D01*
X142582262Y-87616153D01*
X142632051Y-87600550D01*
X142738650Y-87567144D01*
X142738652Y-87567143D01*
X142745899Y-87564872D01*
X142752396Y-87560937D01*
X142752399Y-87560936D01*
X142760731Y-87555890D01*
X142829361Y-87537712D01*
X142896924Y-87559524D01*
X142941969Y-87614400D01*
X142952000Y-87663667D01*
X142952000Y-90142029D01*
X142951019Y-90157723D01*
X142946853Y-90190909D01*
X142948280Y-90199773D01*
X142948436Y-90208746D01*
X142947418Y-90208764D01*
X142947678Y-90230331D01*
X142945877Y-90243529D01*
X142933606Y-90283093D01*
X142921958Y-90306260D01*
X142897521Y-90339706D01*
X142878984Y-90357847D01*
X142845015Y-90381562D01*
X142821604Y-90392707D01*
X142781783Y-90404123D01*
X142768745Y-90405616D01*
X142748938Y-90406118D01*
X142741683Y-90404605D01*
X142732740Y-90405312D01*
X142732738Y-90405312D01*
X142693590Y-90408408D01*
X142683657Y-90408800D01*
X138668729Y-90408800D01*
X138600608Y-90388798D01*
X138554115Y-90335142D01*
X138542729Y-90282800D01*
X138542729Y-88406600D01*
X138537500Y-88333489D01*
X138496304Y-88193189D01*
X138471035Y-88153870D01*
X138422122Y-88077759D01*
X138422120Y-88077756D01*
X138417250Y-88070179D01*
X138349664Y-88011615D01*
X138313555Y-87980326D01*
X138313552Y-87980324D01*
X138306743Y-87974424D01*
X138173734Y-87913681D01*
X138029000Y-87892871D01*
X137038913Y-87892871D01*
X136970792Y-87872869D01*
X136924299Y-87819213D01*
X136913052Y-87761133D01*
X136913300Y-87758435D01*
X136913299Y-87095166D01*
X136906553Y-87021738D01*
X136889760Y-86968151D01*
X136871810Y-86910872D01*
X136870526Y-86839887D01*
X136907823Y-86779476D01*
X136971860Y-86748820D01*
X137042305Y-86757652D01*
X137057309Y-86765414D01*
X137161101Y-86828272D01*
X137168348Y-86830543D01*
X137168350Y-86830544D01*
X137198164Y-86839887D01*
X137324738Y-86879553D01*
X137398165Y-86886300D01*
X137401063Y-86886300D01*
X137655465Y-86886299D01*
X137911434Y-86886299D01*
X137914292Y-86886036D01*
X137914301Y-86886036D01*
X137949804Y-86882774D01*
X137984862Y-86879553D01*
X137991247Y-86877552D01*
X138141250Y-86830544D01*
X138141252Y-86830543D01*
X138148499Y-86828272D01*
X138295181Y-86739439D01*
X138304129Y-86730491D01*
X138366441Y-86696465D01*
X138437256Y-86701530D01*
G37*
%TD.AperFunction*%
%TA.AperFunction,Conductor*%
G36*
X134716419Y-88284889D02*
G01*
X134724162Y-88290146D01*
X134732090Y-88295970D01*
X134736105Y-88298920D01*
X134736645Y-88299300D01*
X134736676Y-88299322D01*
X134743995Y-88304468D01*
X134744688Y-88304955D01*
X134762235Y-88316755D01*
X134766924Y-88318896D01*
X134766925Y-88318897D01*
X134798877Y-88333489D01*
X134893761Y-88376821D01*
X134917526Y-88383799D01*
X134924770Y-88385926D01*
X134984496Y-88424310D01*
X135013989Y-88488891D01*
X135015271Y-88506822D01*
X135015271Y-90282800D01*
X134995269Y-90350921D01*
X134941613Y-90397414D01*
X134889271Y-90408800D01*
X133603000Y-90408800D01*
X133534879Y-90388798D01*
X133488386Y-90335142D01*
X133477000Y-90282800D01*
X133477000Y-88832094D01*
X133497002Y-88763973D01*
X133513905Y-88742999D01*
X133802599Y-88454305D01*
X133864911Y-88420279D01*
X133891694Y-88417400D01*
X134194999Y-88417400D01*
X134195555Y-88417388D01*
X134195597Y-88417388D01*
X134211752Y-88417051D01*
X134216157Y-88416959D01*
X134216715Y-88416936D01*
X134216739Y-88416935D01*
X134221350Y-88416743D01*
X134226640Y-88416522D01*
X134247744Y-88415202D01*
X134388656Y-88382789D01*
X134392852Y-88381167D01*
X134392855Y-88381166D01*
X134434250Y-88365163D01*
X134454877Y-88357189D01*
X134526878Y-88316755D01*
X134577035Y-88288588D01*
X134577038Y-88288586D01*
X134580952Y-88286388D01*
X134581200Y-88286198D01*
X134648066Y-88265698D01*
X134716419Y-88284889D01*
G37*
%TD.AperFunction*%
%TA.AperFunction,Conductor*%
G36*
X130230392Y-86514991D02*
G01*
X130254933Y-86530763D01*
X130274065Y-86546464D01*
X130274073Y-86546470D01*
X130276476Y-86548442D01*
X130332129Y-86585628D01*
X130334859Y-86587087D01*
X130334862Y-86587089D01*
X130417216Y-86631108D01*
X130417226Y-86631113D01*
X130419958Y-86632573D01*
X130422824Y-86633760D01*
X130422828Y-86633762D01*
X130433601Y-86638224D01*
X130465375Y-86651385D01*
X130560665Y-86680291D01*
X130629014Y-86693887D01*
X130629084Y-86693901D01*
X130638745Y-86695822D01*
X130640255Y-86696046D01*
X130640261Y-86696047D01*
X130686533Y-86702910D01*
X130688037Y-86703133D01*
X130712618Y-86705554D01*
X130735334Y-86706670D01*
X130760855Y-86707924D01*
X130760871Y-86707924D01*
X130762410Y-86708000D01*
X132327138Y-86708000D01*
X132395259Y-86728002D01*
X132441752Y-86781658D01*
X132451856Y-86851932D01*
X132422362Y-86916512D01*
X132416233Y-86923095D01*
X132204913Y-87134415D01*
X132190311Y-87149636D01*
X132183206Y-87157357D01*
X132169162Y-87173273D01*
X132092444Y-87295834D01*
X132063722Y-87360762D01*
X132062508Y-87365086D01*
X132062507Y-87365089D01*
X132030291Y-87479844D01*
X132024642Y-87499966D01*
X132024055Y-87504428D01*
X132024054Y-87504431D01*
X132020481Y-87531575D01*
X131995522Y-87591832D01*
X131973014Y-87621165D01*
X131960504Y-87638190D01*
X131960153Y-87638689D01*
X131960125Y-87638728D01*
X131954841Y-87646242D01*
X131954468Y-87646773D01*
X131942645Y-87664353D01*
X131882579Y-87795879D01*
X131881311Y-87800198D01*
X131872014Y-87831862D01*
X131862577Y-87864000D01*
X131861937Y-87868448D01*
X131861936Y-87868455D01*
X131842639Y-88002671D01*
X131842638Y-88002678D01*
X131842000Y-88007119D01*
X131842000Y-88107390D01*
X131821998Y-88175511D01*
X131805095Y-88196485D01*
X131676210Y-88325370D01*
X131613898Y-88359396D01*
X131587251Y-88362275D01*
X128828815Y-88365163D01*
X127585905Y-88366464D01*
X127585896Y-88366464D01*
X127582536Y-88366468D01*
X127579186Y-88366831D01*
X127579183Y-88366831D01*
X127478169Y-88377772D01*
X127474827Y-88378134D01*
X127422617Y-88389520D01*
X127319828Y-88423761D01*
X127198190Y-88501933D01*
X127194795Y-88504875D01*
X127194792Y-88504877D01*
X127152408Y-88541603D01*
X127144534Y-88548426D01*
X127049845Y-88657702D01*
X126989779Y-88789228D01*
X126969777Y-88857349D01*
X126969137Y-88861797D01*
X126969136Y-88861804D01*
X126949839Y-88996020D01*
X126949838Y-88996027D01*
X126949200Y-89000468D01*
X126949200Y-90282800D01*
X126929198Y-90350921D01*
X126875542Y-90397414D01*
X126823200Y-90408800D01*
X125249540Y-90408800D01*
X125234015Y-90407840D01*
X125209307Y-90404772D01*
X125209306Y-90404772D01*
X125200398Y-90403666D01*
X125191536Y-90405105D01*
X125182564Y-90405273D01*
X125182547Y-90404353D01*
X125161025Y-90404683D01*
X125144724Y-90402547D01*
X125105979Y-90390921D01*
X125079455Y-90378019D01*
X125046391Y-90354716D01*
X125025318Y-90334070D01*
X125001343Y-90301491D01*
X124987898Y-90275232D01*
X124975481Y-90236731D01*
X124973089Y-90220984D01*
X124971824Y-90201255D01*
X124973092Y-90193634D01*
X124968900Y-90158743D01*
X124968000Y-90143713D01*
X124968000Y-87668671D01*
X124988002Y-87600550D01*
X125041658Y-87554057D01*
X125094000Y-87542671D01*
X126916830Y-87542671D01*
X126927087Y-87543163D01*
X126928170Y-87543319D01*
X126931108Y-87543463D01*
X126931115Y-87543464D01*
X127020163Y-87547839D01*
X127020169Y-87547839D01*
X127023120Y-87547984D01*
X127062280Y-87546236D01*
X127067069Y-87546022D01*
X127067070Y-87546022D01*
X127070025Y-87545890D01*
X127072961Y-87545481D01*
X127072964Y-87545481D01*
X127106569Y-87540802D01*
X127164186Y-87532781D01*
X127298739Y-87479844D01*
X127360435Y-87444713D01*
X127474628Y-87356007D01*
X127479898Y-87348699D01*
X127486157Y-87342213D01*
X127486732Y-87342768D01*
X127505608Y-87323826D01*
X127581253Y-87268866D01*
X127598097Y-87250159D01*
X127704621Y-87131852D01*
X127704622Y-87131851D01*
X127709040Y-87126944D01*
X127799055Y-86971034D01*
X127801223Y-86967279D01*
X127801224Y-86967278D01*
X127804527Y-86961556D01*
X127858624Y-86795064D01*
X127898698Y-86736458D01*
X127964094Y-86708821D01*
X127978457Y-86708000D01*
X129587590Y-86708000D01*
X129589129Y-86707924D01*
X129589145Y-86707924D01*
X129614666Y-86706670D01*
X129637382Y-86705554D01*
X129661963Y-86703133D01*
X129663467Y-86702910D01*
X129709739Y-86696047D01*
X129709745Y-86696046D01*
X129711255Y-86695822D01*
X129720916Y-86693901D01*
X129720986Y-86693887D01*
X129789335Y-86680291D01*
X129884625Y-86651385D01*
X129916399Y-86638224D01*
X129927172Y-86633762D01*
X129927176Y-86633760D01*
X129930042Y-86632573D01*
X129932774Y-86631113D01*
X129932784Y-86631108D01*
X130015138Y-86587089D01*
X130015141Y-86587087D01*
X130017871Y-86585628D01*
X130073524Y-86548442D01*
X130075927Y-86546470D01*
X130075935Y-86546464D01*
X130095067Y-86530763D01*
X130160414Y-86503009D01*
X130230392Y-86514991D01*
G37*
%TD.AperFunction*%
%TA.AperFunction,Conductor*%
G36*
X134157221Y-85228002D02*
G01*
X134203714Y-85281658D01*
X134215100Y-85334000D01*
X134215100Y-85740605D01*
X134195098Y-85808726D01*
X134178195Y-85829701D01*
X134102799Y-85905096D01*
X134040486Y-85939121D01*
X134013704Y-85942000D01*
X133659937Y-85942000D01*
X133658247Y-85942091D01*
X133658232Y-85942091D01*
X133636061Y-85943280D01*
X133629612Y-85943626D01*
X133560518Y-85927300D01*
X133511219Y-85876211D01*
X133498148Y-85799876D01*
X133507361Y-85735800D01*
X133507362Y-85735793D01*
X133508000Y-85731352D01*
X133508000Y-85362610D01*
X133528002Y-85294489D01*
X133544905Y-85273515D01*
X133573515Y-85244905D01*
X133635827Y-85210879D01*
X133662610Y-85208000D01*
X134089100Y-85208000D01*
X134157221Y-85228002D01*
G37*
%TD.AperFunction*%
%TA.AperFunction,Conductor*%
G36*
X129987942Y-81563451D02*
G01*
X130026830Y-81568088D01*
X130054178Y-81574503D01*
X130122591Y-81598864D01*
X130125176Y-81599542D01*
X130125182Y-81599544D01*
X130189164Y-81616329D01*
X130206533Y-81620886D01*
X130224718Y-81624027D01*
X130246153Y-81627730D01*
X130246158Y-81627731D01*
X130248800Y-81628187D01*
X130251459Y-81628415D01*
X130251467Y-81628416D01*
X130332596Y-81635371D01*
X130332600Y-81635371D01*
X130335269Y-81635600D01*
X132516000Y-81635600D01*
X132584121Y-81655602D01*
X132630614Y-81709258D01*
X132642000Y-81761600D01*
X132642000Y-83437390D01*
X132621998Y-83505511D01*
X132605095Y-83526485D01*
X132276485Y-83855095D01*
X132214173Y-83889121D01*
X132187390Y-83892000D01*
X130762410Y-83892000D01*
X130760871Y-83892076D01*
X130760855Y-83892076D01*
X130735355Y-83893329D01*
X130712620Y-83894446D01*
X130688038Y-83896867D01*
X130686494Y-83897096D01*
X130686486Y-83897097D01*
X130670795Y-83899425D01*
X130638720Y-83904182D01*
X130560667Y-83919708D01*
X130465375Y-83948615D01*
X130433601Y-83961776D01*
X130422828Y-83966238D01*
X130422824Y-83966240D01*
X130419958Y-83967427D01*
X130417226Y-83968887D01*
X130417216Y-83968892D01*
X130336434Y-84012071D01*
X130332129Y-84014372D01*
X130329559Y-84016089D01*
X130329556Y-84016091D01*
X130302367Y-84034258D01*
X130276476Y-84051558D01*
X130274073Y-84053530D01*
X130274065Y-84053536D01*
X130219695Y-84098156D01*
X130154348Y-84125910D01*
X130087420Y-84115371D01*
X130024985Y-84086858D01*
X129985178Y-84068679D01*
X129950498Y-84058496D01*
X129921380Y-84049946D01*
X129921376Y-84049945D01*
X129917057Y-84048677D01*
X129912609Y-84048037D01*
X129912602Y-84048036D01*
X129816769Y-84034258D01*
X129752188Y-84004765D01*
X129713804Y-83945039D01*
X129708700Y-83909540D01*
X129708700Y-82650236D01*
X129716183Y-82608961D01*
X129715793Y-82608834D01*
X129716666Y-82606145D01*
X129717656Y-82603504D01*
X129721917Y-82588050D01*
X129741087Y-82518511D01*
X129741835Y-82515798D01*
X129749853Y-82471569D01*
X129758000Y-82380954D01*
X129758000Y-82267624D01*
X129746151Y-82158544D01*
X129734532Y-82105695D01*
X129733443Y-82102459D01*
X129715900Y-82050334D01*
X129714791Y-82045273D01*
X129715246Y-82045122D01*
X129680441Y-81940494D01*
X129674600Y-81913019D01*
X129670778Y-81874038D01*
X129671171Y-81845948D01*
X129676079Y-81807105D01*
X129682683Y-81779807D01*
X129704872Y-81718839D01*
X129706392Y-81714664D01*
X129707532Y-81709258D01*
X129711543Y-81690242D01*
X129745171Y-81627715D01*
X129811614Y-81592400D01*
X129865035Y-81582385D01*
X129865036Y-81582385D01*
X129869462Y-81581555D01*
X129873723Y-81580105D01*
X129873725Y-81580104D01*
X129893477Y-81573380D01*
X129920910Y-81567348D01*
X129959852Y-81563255D01*
X129987942Y-81563451D01*
G37*
%TD.AperFunction*%
%TA.AperFunction,Conductor*%
G36*
X133738527Y-77005902D02*
G01*
X133759501Y-77022805D01*
X133913143Y-77176447D01*
X133920687Y-77184737D01*
X133924800Y-77191218D01*
X133930577Y-77196643D01*
X133974467Y-77237858D01*
X133977309Y-77240613D01*
X133997030Y-77260334D01*
X134000225Y-77262812D01*
X134009247Y-77270518D01*
X134041479Y-77300786D01*
X134048428Y-77304606D01*
X134059232Y-77310546D01*
X134075756Y-77321399D01*
X134091759Y-77333813D01*
X134132343Y-77351376D01*
X134142973Y-77356583D01*
X134181740Y-77377895D01*
X134189417Y-77379866D01*
X134189422Y-77379868D01*
X134201358Y-77382932D01*
X134220066Y-77389337D01*
X134238655Y-77397381D01*
X134246480Y-77398620D01*
X134246482Y-77398621D01*
X134282319Y-77404297D01*
X134293940Y-77406704D01*
X134329089Y-77415728D01*
X134336770Y-77417700D01*
X134357031Y-77417700D01*
X134376740Y-77419251D01*
X134396743Y-77422419D01*
X134404635Y-77421673D01*
X134409862Y-77421179D01*
X134440754Y-77418259D01*
X134452611Y-77417700D01*
X134881700Y-77417700D01*
X134949821Y-77437702D01*
X134996314Y-77491358D01*
X135007700Y-77543700D01*
X135007700Y-78092715D01*
X135001130Y-78125760D01*
X135003017Y-78126266D01*
X135000878Y-78134251D01*
X134997719Y-78141876D01*
X134982700Y-78255956D01*
X134982700Y-78884700D01*
X134962698Y-78952821D01*
X134909042Y-78999314D01*
X134856700Y-79010700D01*
X134853038Y-79010700D01*
X134804822Y-79001110D01*
X134743524Y-78975719D01*
X134672353Y-78966349D01*
X134633531Y-78961238D01*
X134633530Y-78961238D01*
X134629444Y-78960700D01*
X134086995Y-78960700D01*
X134018874Y-78940698D01*
X133997900Y-78923795D01*
X132881081Y-77806976D01*
X132847055Y-77744664D01*
X132850583Y-77678216D01*
X132888149Y-77564957D01*
X132898500Y-77463932D01*
X132898500Y-77111900D01*
X132918502Y-77043779D01*
X132972158Y-76997286D01*
X133024500Y-76985900D01*
X133670406Y-76985900D01*
X133738527Y-77005902D01*
G37*
%TD.AperFunction*%
%TA.AperFunction,Conductor*%
G36*
X142726157Y-71428782D02*
G01*
X142726156Y-71429648D01*
X142747663Y-71429736D01*
X142768165Y-71432805D01*
X142806204Y-71444892D01*
X142836606Y-71460211D01*
X142868956Y-71483591D01*
X142880945Y-71495567D01*
X142893043Y-71507653D01*
X142916453Y-71539974D01*
X142924828Y-71556550D01*
X142930983Y-71568732D01*
X142931802Y-71570354D01*
X142943931Y-71608380D01*
X142946920Y-71628196D01*
X142948184Y-71647914D01*
X142946895Y-71655712D01*
X142947976Y-71664629D01*
X142951084Y-71690265D01*
X142952000Y-71705429D01*
X142952000Y-76113671D01*
X142931998Y-76181792D01*
X142878342Y-76228285D01*
X142826000Y-76239671D01*
X140959200Y-76239671D01*
X140927214Y-76241959D01*
X140892827Y-76244418D01*
X140892826Y-76244418D01*
X140886089Y-76244900D01*
X140861987Y-76251977D01*
X140790991Y-76251977D01*
X140731265Y-76213594D01*
X140701162Y-76144087D01*
X140698998Y-76123237D01*
X140698287Y-76116381D01*
X140644156Y-75954132D01*
X140554152Y-75808687D01*
X140433102Y-75687848D01*
X140287501Y-75598098D01*
X140125157Y-75544251D01*
X140118320Y-75543551D01*
X140118318Y-75543550D01*
X140076999Y-75539317D01*
X140024132Y-75533900D01*
X139426668Y-75533900D01*
X139423422Y-75534237D01*
X139423418Y-75534237D01*
X139389317Y-75537775D01*
X139324381Y-75544513D01*
X139178575Y-75593158D01*
X139107627Y-75595742D01*
X139046543Y-75559559D01*
X139014718Y-75496094D01*
X139012700Y-75473634D01*
X139012700Y-74888994D01*
X139032702Y-74820873D01*
X139049605Y-74799899D01*
X139334241Y-74515263D01*
X139348506Y-74504198D01*
X139348072Y-74503639D01*
X139354341Y-74498776D01*
X139361162Y-74494742D01*
X139375483Y-74480421D01*
X139390517Y-74467580D01*
X139400494Y-74460331D01*
X139406907Y-74455672D01*
X139435098Y-74421595D01*
X139443088Y-74412816D01*
X139550499Y-74305405D01*
X139612811Y-74271379D01*
X139639594Y-74268500D01*
X139725487Y-74268500D01*
X139731939Y-74267128D01*
X139731944Y-74267128D01*
X139818888Y-74248647D01*
X139912288Y-74228794D01*
X139918319Y-74226109D01*
X140080722Y-74153803D01*
X140080724Y-74153802D01*
X140086752Y-74151118D01*
X140096328Y-74144161D01*
X140218595Y-74055328D01*
X140241253Y-74038866D01*
X140256980Y-74021400D01*
X140301262Y-73972219D01*
X140361708Y-73934979D01*
X140394898Y-73930529D01*
X142067600Y-73930529D01*
X142099586Y-73928241D01*
X142133973Y-73925782D01*
X142133974Y-73925782D01*
X142140711Y-73925300D01*
X142220218Y-73901955D01*
X142272365Y-73886643D01*
X142272367Y-73886642D01*
X142281011Y-73884104D01*
X142320330Y-73858835D01*
X142396441Y-73809922D01*
X142396444Y-73809920D01*
X142404021Y-73805050D01*
X142411824Y-73796045D01*
X142493874Y-73701355D01*
X142493876Y-73701352D01*
X142499776Y-73694543D01*
X142560519Y-73561534D01*
X142581329Y-73416800D01*
X142581329Y-71554750D01*
X142601331Y-71486629D01*
X142654987Y-71440136D01*
X142704324Y-71429448D01*
X142708295Y-71430024D01*
X142717186Y-71428767D01*
X142726157Y-71428782D01*
G37*
%TD.AperFunction*%
%TA.AperFunction,Conductor*%
G36*
X128861392Y-71444802D02*
G01*
X128907885Y-71498458D01*
X128919271Y-71550800D01*
X128919271Y-72089291D01*
X128918616Y-72102118D01*
X128918322Y-72104991D01*
X128913141Y-72129161D01*
X128913331Y-72129216D01*
X128912632Y-72131645D01*
X128911838Y-72134039D01*
X128892507Y-72212966D01*
X128886100Y-72252633D01*
X128879600Y-72333635D01*
X128879600Y-72589365D01*
X128859598Y-72657486D01*
X128805942Y-72703979D01*
X128740757Y-72714709D01*
X128719200Y-72712500D01*
X127668400Y-72712500D01*
X127665154Y-72712837D01*
X127665150Y-72712837D01*
X127569492Y-72722762D01*
X127569488Y-72722763D01*
X127562634Y-72723474D01*
X127556098Y-72725655D01*
X127556096Y-72725655D01*
X127507833Y-72741757D01*
X127394854Y-72779450D01*
X127244452Y-72872522D01*
X127119495Y-72997697D01*
X127026685Y-73148262D01*
X126971003Y-73316139D01*
X126960300Y-73420600D01*
X126960300Y-74021400D01*
X126960637Y-74024646D01*
X126960637Y-74024650D01*
X126967605Y-74091800D01*
X126971274Y-74127166D01*
X126973455Y-74133702D01*
X126973455Y-74133704D01*
X126979265Y-74151118D01*
X127027250Y-74294946D01*
X127120322Y-74445348D01*
X127245497Y-74570305D01*
X127396062Y-74663115D01*
X127400037Y-74664433D01*
X127452357Y-74710500D01*
X127471818Y-74778777D01*
X127465415Y-74817445D01*
X127434803Y-74909739D01*
X127424100Y-75014200D01*
X127424100Y-76056300D01*
X127404098Y-76124421D01*
X127350442Y-76170914D01*
X127298100Y-76182300D01*
X125094000Y-76182300D01*
X125025879Y-76162298D01*
X124979386Y-76108642D01*
X124968000Y-76056300D01*
X124968000Y-71715704D01*
X124969474Y-71696487D01*
X124971824Y-71681256D01*
X124973194Y-71672381D01*
X124972017Y-71663476D01*
X124972115Y-71654508D01*
X124972941Y-71654517D01*
X124973205Y-71633023D01*
X124976629Y-71611254D01*
X124988801Y-71573692D01*
X125004924Y-71542007D01*
X125028125Y-71510057D01*
X125053257Y-71484925D01*
X125085207Y-71461724D01*
X125116892Y-71445601D01*
X125154455Y-71433429D01*
X125175389Y-71430137D01*
X125195104Y-71428731D01*
X125203041Y-71429977D01*
X125211936Y-71428826D01*
X125211938Y-71428826D01*
X125225885Y-71427021D01*
X125234998Y-71425842D01*
X125251165Y-71424800D01*
X128793271Y-71424800D01*
X128861392Y-71444802D01*
G37*
%TD.AperFunction*%
%TA.AperFunction,Conductor*%
G36*
X137260960Y-71444802D02*
G01*
X137307453Y-71498458D01*
X137317557Y-71568732D01*
X137288064Y-71633312D01*
X137258824Y-71667057D01*
X137255080Y-71675254D01*
X137255080Y-71675255D01*
X137251016Y-71684155D01*
X137198081Y-71800066D01*
X137177271Y-71944800D01*
X137177271Y-72365319D01*
X137176767Y-72376577D01*
X137172318Y-72426173D01*
X137172167Y-72438515D01*
X137174243Y-72470402D01*
X137177005Y-72512836D01*
X137177271Y-72521021D01*
X137177271Y-72865319D01*
X137176767Y-72876577D01*
X137172318Y-72926173D01*
X137172167Y-72938515D01*
X137172325Y-72940937D01*
X137177005Y-73012836D01*
X137177271Y-73021021D01*
X137177271Y-73444800D01*
X137182500Y-73517911D01*
X137223696Y-73658211D01*
X137247045Y-73694543D01*
X137268498Y-73727924D01*
X137288500Y-73796045D01*
X137288500Y-73876638D01*
X137268498Y-73944759D01*
X137214842Y-73991252D01*
X137150971Y-74002109D01*
X137098635Y-73997300D01*
X137095737Y-73997300D01*
X136841335Y-73997301D01*
X136585366Y-73997301D01*
X136582508Y-73997564D01*
X136582499Y-73997564D01*
X136546996Y-74000826D01*
X136511938Y-74004047D01*
X136505560Y-74006046D01*
X136505559Y-74006046D01*
X136355550Y-74053056D01*
X136355548Y-74053057D01*
X136348301Y-74055328D01*
X136201619Y-74144161D01*
X136106095Y-74239685D01*
X136043783Y-74273711D01*
X135972968Y-74268646D01*
X135927905Y-74239685D01*
X135832381Y-74144161D01*
X135685699Y-74055328D01*
X135587806Y-74024650D01*
X135576491Y-74021104D01*
X135517469Y-73981646D01*
X135489149Y-73916542D01*
X135494578Y-73861204D01*
X135516949Y-73793757D01*
X135527300Y-73692732D01*
X135527300Y-73145268D01*
X135516687Y-73042981D01*
X135478527Y-72928602D01*
X135464873Y-72887676D01*
X135464872Y-72887674D01*
X135462556Y-72880732D01*
X135372552Y-72735287D01*
X135251502Y-72614448D01*
X135105901Y-72524698D01*
X134943557Y-72470851D01*
X134936720Y-72470151D01*
X134936718Y-72470150D01*
X134895399Y-72465917D01*
X134842532Y-72460500D01*
X134245068Y-72460500D01*
X134241822Y-72460837D01*
X134241818Y-72460837D01*
X134207717Y-72464375D01*
X134142781Y-72471113D01*
X134136240Y-72473295D01*
X134136241Y-72473295D01*
X133987476Y-72522927D01*
X133987474Y-72522928D01*
X133980532Y-72525244D01*
X133974308Y-72529096D01*
X133974307Y-72529096D01*
X133841314Y-72611394D01*
X133841310Y-72611397D01*
X133835087Y-72615248D01*
X133833002Y-72617337D01*
X133768857Y-72643300D01*
X133699093Y-72630129D01*
X133680397Y-72618137D01*
X133676702Y-72614448D01*
X133531101Y-72524698D01*
X133368757Y-72470851D01*
X133361920Y-72470151D01*
X133361918Y-72470150D01*
X133320599Y-72465917D01*
X133267732Y-72460500D01*
X132670268Y-72460500D01*
X132667024Y-72460837D01*
X132667016Y-72460837D01*
X132600003Y-72467790D01*
X132530182Y-72454925D01*
X132478400Y-72406354D01*
X132461000Y-72342463D01*
X132461000Y-71550800D01*
X132481002Y-71482679D01*
X132534658Y-71436186D01*
X132587000Y-71424800D01*
X137192839Y-71424800D01*
X137260960Y-71444802D01*
G37*
%TD.AperFunction*%
%TD*%
%TA.AperFunction,Conductor*%
%TO.N,GND*%
G36*
X134716419Y-88284889D02*
G01*
X134724162Y-88290146D01*
X134732090Y-88295970D01*
X134736105Y-88298920D01*
X134736645Y-88299300D01*
X134736676Y-88299322D01*
X134743995Y-88304468D01*
X134744688Y-88304955D01*
X134762235Y-88316755D01*
X134766924Y-88318896D01*
X134766925Y-88318897D01*
X134798877Y-88333489D01*
X134893761Y-88376821D01*
X134917526Y-88383799D01*
X134924770Y-88385926D01*
X134984496Y-88424310D01*
X135013989Y-88488891D01*
X135015271Y-88506822D01*
X135015271Y-90282800D01*
X134995269Y-90350921D01*
X134941613Y-90397414D01*
X134889271Y-90408800D01*
X133654800Y-90408800D01*
X133654800Y-88602104D01*
X133802599Y-88454305D01*
X133864911Y-88420279D01*
X133891694Y-88417400D01*
X134194999Y-88417400D01*
X134195555Y-88417388D01*
X134195597Y-88417388D01*
X134211752Y-88417051D01*
X134216157Y-88416959D01*
X134216715Y-88416936D01*
X134216739Y-88416935D01*
X134221350Y-88416743D01*
X134226640Y-88416522D01*
X134247744Y-88415202D01*
X134388656Y-88382789D01*
X134392852Y-88381167D01*
X134392855Y-88381166D01*
X134450686Y-88358809D01*
X134454877Y-88357189D01*
X134526878Y-88316755D01*
X134577035Y-88288588D01*
X134577038Y-88288586D01*
X134580952Y-88286388D01*
X134581200Y-88286198D01*
X134648066Y-88265698D01*
X134716419Y-88284889D01*
G37*
%TD.AperFunction*%
%TA.AperFunction,Conductor*%
G36*
X138437256Y-86701530D02*
G01*
X138458485Y-86711805D01*
X138547101Y-86765472D01*
X138554348Y-86767743D01*
X138554350Y-86767744D01*
X138620636Y-86788517D01*
X138710738Y-86816753D01*
X138784165Y-86823500D01*
X138787063Y-86823500D01*
X139116660Y-86823499D01*
X139447434Y-86823499D01*
X139450292Y-86823236D01*
X139450301Y-86823236D01*
X139485804Y-86819974D01*
X139520862Y-86816753D01*
X139530020Y-86813883D01*
X139531746Y-86813852D01*
X139533796Y-86813441D01*
X139533871Y-86813813D01*
X139601002Y-86812596D01*
X139661414Y-86849891D01*
X139692073Y-86913926D01*
X139693701Y-86934116D01*
X139693701Y-86971034D01*
X139700447Y-87044462D01*
X139702446Y-87050840D01*
X139702446Y-87050841D01*
X139733407Y-87149636D01*
X139751728Y-87208099D01*
X139840561Y-87354781D01*
X139961819Y-87476039D01*
X140108501Y-87564872D01*
X140115748Y-87567143D01*
X140115750Y-87567144D01*
X140140985Y-87575052D01*
X140272138Y-87616153D01*
X140345565Y-87622900D01*
X140348463Y-87622900D01*
X140602865Y-87622899D01*
X140858834Y-87622899D01*
X140861692Y-87622636D01*
X140861701Y-87622636D01*
X140897204Y-87619374D01*
X140932262Y-87616153D01*
X140938647Y-87614152D01*
X141088650Y-87567144D01*
X141088652Y-87567143D01*
X141095899Y-87564872D01*
X141242581Y-87476039D01*
X141338105Y-87380515D01*
X141400417Y-87346489D01*
X141471232Y-87351554D01*
X141516295Y-87380515D01*
X141611819Y-87476039D01*
X141758501Y-87564872D01*
X141765748Y-87567143D01*
X141765750Y-87567144D01*
X141790985Y-87575052D01*
X141922138Y-87616153D01*
X141995565Y-87622900D01*
X141998463Y-87622900D01*
X142252865Y-87622899D01*
X142508834Y-87622899D01*
X142511692Y-87622636D01*
X142511701Y-87622636D01*
X142547204Y-87619374D01*
X142582262Y-87616153D01*
X142588647Y-87614152D01*
X142738650Y-87567144D01*
X142738652Y-87567143D01*
X142745899Y-87564872D01*
X142752396Y-87560937D01*
X142752399Y-87560936D01*
X142760731Y-87555890D01*
X142829361Y-87537712D01*
X142896924Y-87559524D01*
X142941969Y-87614400D01*
X142952000Y-87663667D01*
X142952000Y-90142029D01*
X142951019Y-90157723D01*
X142946853Y-90190909D01*
X142948280Y-90199773D01*
X142948436Y-90208746D01*
X142947418Y-90208764D01*
X142947678Y-90230331D01*
X142945877Y-90243529D01*
X142933606Y-90283093D01*
X142921958Y-90306260D01*
X142897521Y-90339706D01*
X142878984Y-90357847D01*
X142845015Y-90381562D01*
X142821604Y-90392707D01*
X142781783Y-90404123D01*
X142768745Y-90405616D01*
X142748938Y-90406118D01*
X142741683Y-90404605D01*
X142732740Y-90405312D01*
X142732738Y-90405312D01*
X142693590Y-90408408D01*
X142683657Y-90408800D01*
X138668729Y-90408800D01*
X138600608Y-90388798D01*
X138554115Y-90335142D01*
X138542729Y-90282800D01*
X138542729Y-88406600D01*
X138537500Y-88333489D01*
X138496304Y-88193189D01*
X138471035Y-88153870D01*
X138422122Y-88077759D01*
X138422120Y-88077756D01*
X138417250Y-88070179D01*
X138410440Y-88064278D01*
X138313555Y-87980326D01*
X138313552Y-87980324D01*
X138306743Y-87974424D01*
X138173734Y-87913681D01*
X138029000Y-87892871D01*
X137038913Y-87892871D01*
X136970792Y-87872869D01*
X136924299Y-87819213D01*
X136913052Y-87761133D01*
X136913300Y-87758435D01*
X136913299Y-87095166D01*
X136906553Y-87021738D01*
X136871810Y-86910872D01*
X136870526Y-86839887D01*
X136907823Y-86779476D01*
X136971860Y-86748820D01*
X137042305Y-86757652D01*
X137057309Y-86765414D01*
X137161101Y-86828272D01*
X137168348Y-86830543D01*
X137168350Y-86830544D01*
X137198164Y-86839887D01*
X137324738Y-86879553D01*
X137398165Y-86886300D01*
X137401063Y-86886300D01*
X137655465Y-86886299D01*
X137911434Y-86886299D01*
X137914292Y-86886036D01*
X137914301Y-86886036D01*
X137949804Y-86882774D01*
X137984862Y-86879553D01*
X137991247Y-86877552D01*
X138141250Y-86830544D01*
X138141252Y-86830543D01*
X138148499Y-86828272D01*
X138295181Y-86739439D01*
X138304129Y-86730491D01*
X138366441Y-86696465D01*
X138437256Y-86701530D01*
G37*
%TD.AperFunction*%
%TA.AperFunction,Conductor*%
G36*
X134157221Y-85228002D02*
G01*
X134203714Y-85281658D01*
X134215100Y-85334000D01*
X134215100Y-85740605D01*
X134195098Y-85808726D01*
X134178195Y-85829701D01*
X134102799Y-85905096D01*
X134040486Y-85939121D01*
X134013704Y-85942000D01*
X133659937Y-85942000D01*
X133658247Y-85942091D01*
X133658232Y-85942091D01*
X133654800Y-85942275D01*
X133654800Y-85208840D01*
X133662610Y-85208000D01*
X134089100Y-85208000D01*
X134157221Y-85228002D01*
G37*
%TD.AperFunction*%
%TA.AperFunction,Conductor*%
G36*
X133738527Y-77005902D02*
G01*
X133759501Y-77022805D01*
X133913143Y-77176447D01*
X133920687Y-77184737D01*
X133924800Y-77191218D01*
X133930577Y-77196643D01*
X133974467Y-77237858D01*
X133977309Y-77240613D01*
X133997030Y-77260334D01*
X134000225Y-77262812D01*
X134009247Y-77270518D01*
X134041479Y-77300786D01*
X134048428Y-77304606D01*
X134059232Y-77310546D01*
X134075756Y-77321399D01*
X134091759Y-77333813D01*
X134132343Y-77351376D01*
X134142973Y-77356583D01*
X134181740Y-77377895D01*
X134189417Y-77379866D01*
X134189422Y-77379868D01*
X134201358Y-77382932D01*
X134220066Y-77389337D01*
X134238655Y-77397381D01*
X134246480Y-77398620D01*
X134246482Y-77398621D01*
X134282319Y-77404297D01*
X134293940Y-77406704D01*
X134329089Y-77415728D01*
X134336770Y-77417700D01*
X134357031Y-77417700D01*
X134376740Y-77419251D01*
X134396743Y-77422419D01*
X134404635Y-77421673D01*
X134409862Y-77421179D01*
X134440754Y-77418259D01*
X134452611Y-77417700D01*
X134881700Y-77417700D01*
X134949821Y-77437702D01*
X134996314Y-77491358D01*
X135007700Y-77543700D01*
X135007700Y-78092715D01*
X135001130Y-78125760D01*
X135003017Y-78126266D01*
X135000878Y-78134251D01*
X134997719Y-78141876D01*
X134982700Y-78255956D01*
X134982700Y-78884700D01*
X134962698Y-78952821D01*
X134909042Y-78999314D01*
X134856700Y-79010700D01*
X134853038Y-79010700D01*
X134804822Y-79001110D01*
X134743524Y-78975719D01*
X134672353Y-78966349D01*
X134633531Y-78961238D01*
X134633530Y-78961238D01*
X134629444Y-78960700D01*
X134086995Y-78960700D01*
X134018874Y-78940698D01*
X133997900Y-78923795D01*
X132881081Y-77806976D01*
X132847055Y-77744664D01*
X132850583Y-77678216D01*
X132888149Y-77564957D01*
X132898500Y-77463932D01*
X132898500Y-77111900D01*
X132918502Y-77043779D01*
X132972158Y-76997286D01*
X133024500Y-76985900D01*
X133670406Y-76985900D01*
X133738527Y-77005902D01*
G37*
%TD.AperFunction*%
%TA.AperFunction,Conductor*%
G36*
X142868956Y-71483591D02*
G01*
X142880945Y-71495567D01*
X142893043Y-71507653D01*
X142916453Y-71539974D01*
X142931802Y-71570354D01*
X142943931Y-71608380D01*
X142946920Y-71628196D01*
X142948184Y-71647914D01*
X142946895Y-71655712D01*
X142947976Y-71664629D01*
X142951084Y-71690265D01*
X142952000Y-71705429D01*
X142952000Y-76113671D01*
X142931998Y-76181792D01*
X142878342Y-76228285D01*
X142826000Y-76239671D01*
X140959200Y-76239671D01*
X140927214Y-76241959D01*
X140892827Y-76244418D01*
X140892826Y-76244418D01*
X140886089Y-76244900D01*
X140861987Y-76251977D01*
X140790991Y-76251977D01*
X140731265Y-76213594D01*
X140701162Y-76144087D01*
X140698998Y-76123237D01*
X140698287Y-76116381D01*
X140644156Y-75954132D01*
X140554152Y-75808687D01*
X140433102Y-75687848D01*
X140287501Y-75598098D01*
X140125157Y-75544251D01*
X140118320Y-75543551D01*
X140118318Y-75543550D01*
X140076999Y-75539317D01*
X140024132Y-75533900D01*
X139426668Y-75533900D01*
X139423422Y-75534237D01*
X139423418Y-75534237D01*
X139389317Y-75537775D01*
X139324381Y-75544513D01*
X139178575Y-75593158D01*
X139107627Y-75595742D01*
X139046543Y-75559559D01*
X139014718Y-75496094D01*
X139012700Y-75473634D01*
X139012700Y-74888994D01*
X139032702Y-74820873D01*
X139049605Y-74799899D01*
X139334241Y-74515263D01*
X139348506Y-74504198D01*
X139348072Y-74503639D01*
X139354341Y-74498776D01*
X139361162Y-74494742D01*
X139375483Y-74480421D01*
X139390517Y-74467580D01*
X139400494Y-74460331D01*
X139406907Y-74455672D01*
X139435098Y-74421595D01*
X139443088Y-74412816D01*
X139550499Y-74305405D01*
X139612811Y-74271379D01*
X139639594Y-74268500D01*
X139725487Y-74268500D01*
X139731939Y-74267128D01*
X139731944Y-74267128D01*
X139818888Y-74248647D01*
X139912288Y-74228794D01*
X139918319Y-74226109D01*
X140080722Y-74153803D01*
X140080724Y-74153802D01*
X140086752Y-74151118D01*
X140096328Y-74144161D01*
X140218595Y-74055328D01*
X140241253Y-74038866D01*
X140301262Y-73972219D01*
X140361708Y-73934979D01*
X140394898Y-73930529D01*
X142067600Y-73930529D01*
X142099586Y-73928241D01*
X142133973Y-73925782D01*
X142133974Y-73925782D01*
X142140711Y-73925300D01*
X142220218Y-73901955D01*
X142272365Y-73886643D01*
X142272367Y-73886642D01*
X142281011Y-73884104D01*
X142320330Y-73858835D01*
X142396441Y-73809922D01*
X142396444Y-73809920D01*
X142404021Y-73805050D01*
X142412713Y-73795019D01*
X142493874Y-73701355D01*
X142493876Y-73701352D01*
X142499776Y-73694543D01*
X142560519Y-73561534D01*
X142581329Y-73416800D01*
X142581329Y-71554750D01*
X142601331Y-71486629D01*
X142614059Y-71475600D01*
X142857899Y-71475600D01*
X142868956Y-71483591D01*
G37*
%TD.AperFunction*%
%TA.AperFunction,Conductor*%
G36*
X137477589Y-71477496D02*
G01*
X137470010Y-71482367D01*
X137362159Y-71551678D01*
X137362156Y-71551680D01*
X137354579Y-71556550D01*
X137348678Y-71563360D01*
X137264726Y-71660245D01*
X137264724Y-71660248D01*
X137258824Y-71667057D01*
X137198081Y-71800066D01*
X137177271Y-71944800D01*
X137177271Y-72365319D01*
X137176767Y-72376577D01*
X137172318Y-72426173D01*
X137172167Y-72438515D01*
X137174243Y-72470402D01*
X137177005Y-72512836D01*
X137177271Y-72521021D01*
X137177271Y-72865319D01*
X137176767Y-72876577D01*
X137172318Y-72926173D01*
X137172167Y-72938515D01*
X137172325Y-72940937D01*
X137177005Y-73012836D01*
X137177271Y-73021021D01*
X137177271Y-73444800D01*
X137182500Y-73517911D01*
X137223696Y-73658211D01*
X137247045Y-73694543D01*
X137268498Y-73727924D01*
X137288500Y-73796045D01*
X137288500Y-73876638D01*
X137268498Y-73944759D01*
X137214842Y-73991252D01*
X137150971Y-74002109D01*
X137098635Y-73997300D01*
X137095737Y-73997300D01*
X136841335Y-73997301D01*
X136585366Y-73997301D01*
X136582508Y-73997564D01*
X136582499Y-73997564D01*
X136546996Y-74000826D01*
X136511938Y-74004047D01*
X136505560Y-74006046D01*
X136505559Y-74006046D01*
X136355550Y-74053056D01*
X136355548Y-74053057D01*
X136348301Y-74055328D01*
X136201619Y-74144161D01*
X136106095Y-74239685D01*
X136043783Y-74273711D01*
X135972968Y-74268646D01*
X135927905Y-74239685D01*
X135832381Y-74144161D01*
X135685699Y-74055328D01*
X135576491Y-74021104D01*
X135517469Y-73981646D01*
X135489149Y-73916542D01*
X135494578Y-73861204D01*
X135516949Y-73793757D01*
X135527300Y-73692732D01*
X135527300Y-73145268D01*
X135516687Y-73042981D01*
X135478527Y-72928602D01*
X135464873Y-72887676D01*
X135464872Y-72887674D01*
X135462556Y-72880732D01*
X135372552Y-72735287D01*
X135251502Y-72614448D01*
X135105901Y-72524698D01*
X134943557Y-72470851D01*
X134936720Y-72470151D01*
X134936718Y-72470150D01*
X134895399Y-72465917D01*
X134842532Y-72460500D01*
X134245068Y-72460500D01*
X134241822Y-72460837D01*
X134241818Y-72460837D01*
X134207717Y-72464375D01*
X134142781Y-72471113D01*
X134136240Y-72473295D01*
X134136241Y-72473295D01*
X133987476Y-72522927D01*
X133987474Y-72522928D01*
X133980532Y-72525244D01*
X133974308Y-72529096D01*
X133974307Y-72529096D01*
X133841314Y-72611394D01*
X133841310Y-72611397D01*
X133835087Y-72615248D01*
X133833002Y-72617337D01*
X133768857Y-72643300D01*
X133699093Y-72630129D01*
X133680397Y-72618137D01*
X133676702Y-72614448D01*
X133531101Y-72524698D01*
X133368757Y-72470851D01*
X133361920Y-72470151D01*
X133361918Y-72470150D01*
X133320599Y-72465917D01*
X133267732Y-72460500D01*
X132670268Y-72460500D01*
X132667022Y-72460837D01*
X132667018Y-72460837D01*
X132632917Y-72464375D01*
X132567981Y-72471113D01*
X132537200Y-72481382D01*
X132537200Y-71475600D01*
X137484046Y-71475600D01*
X137477589Y-71477496D01*
G37*
%TD.AperFunction*%
%TD*%
%TA.AperFunction,Conductor*%
%TO.N,/Charger*%
G36*
X126334121Y-81419302D02*
G01*
X126380614Y-81472958D01*
X126392000Y-81525300D01*
X126392000Y-83894265D01*
X126397171Y-83966563D01*
X126402275Y-84002061D01*
X126417681Y-84072880D01*
X126477745Y-84204406D01*
X126516128Y-84264132D01*
X126519075Y-84267533D01*
X126519078Y-84267537D01*
X126594048Y-84354056D01*
X126610819Y-84373410D01*
X126732457Y-84451582D01*
X126736547Y-84453450D01*
X126736551Y-84453452D01*
X126792945Y-84479206D01*
X126797038Y-84481075D01*
X126875228Y-84504034D01*
X126934954Y-84542418D01*
X126964447Y-84606999D01*
X126965729Y-84624930D01*
X126965729Y-85768813D01*
X126974457Y-85862575D01*
X126983042Y-85908289D01*
X126983846Y-85911100D01*
X126983848Y-85911110D01*
X127006885Y-85991691D01*
X127006887Y-85991696D01*
X127008928Y-85998835D01*
X127080029Y-86124738D01*
X127082782Y-86128308D01*
X127114220Y-86169078D01*
X127132421Y-86201788D01*
X127141981Y-86227288D01*
X127150000Y-86271519D01*
X127150000Y-86887590D01*
X127147579Y-86912172D01*
X127141973Y-86940354D01*
X127109065Y-87003264D01*
X127047369Y-87038395D01*
X127000464Y-87040489D01*
X126977268Y-87037154D01*
X126964460Y-87035312D01*
X126964456Y-87035312D01*
X126960000Y-87034671D01*
X125094000Y-87034671D01*
X125025879Y-87014669D01*
X124979386Y-86961013D01*
X124968000Y-86908671D01*
X124968000Y-81525300D01*
X124988002Y-81457179D01*
X125041658Y-81410686D01*
X125094000Y-81399300D01*
X126266000Y-81399300D01*
X126334121Y-81419302D01*
G37*
%TD.AperFunction*%
%TD*%
%TA.AperFunction,Conductor*%
%TO.N,Net-(C1-Pad1)*%
G36*
X134846554Y-81969700D02*
G01*
X135064700Y-81969700D01*
X135132821Y-81989702D01*
X135179314Y-82043358D01*
X135190700Y-82095700D01*
X135190700Y-82929790D01*
X135201565Y-83003596D01*
X135205883Y-83012390D01*
X135208786Y-83021733D01*
X135206590Y-83022416D01*
X135215700Y-83061648D01*
X135215700Y-85606593D01*
X135223114Y-85629410D01*
X135227728Y-85648629D01*
X135231481Y-85672326D01*
X135235984Y-85681163D01*
X135235984Y-85681164D01*
X135242372Y-85693702D01*
X135249936Y-85711963D01*
X135254285Y-85725347D01*
X135254287Y-85725350D01*
X135257351Y-85734781D01*
X135263180Y-85742804D01*
X135271453Y-85754191D01*
X135281780Y-85771043D01*
X135286014Y-85779353D01*
X135290567Y-85788288D01*
X135304300Y-85845490D01*
X135304301Y-86047646D01*
X135304301Y-86225176D01*
X135304670Y-86228570D01*
X135304670Y-86228576D01*
X135307567Y-86255241D01*
X135310949Y-86286380D01*
X135361274Y-86420624D01*
X135366654Y-86427803D01*
X135366656Y-86427806D01*
X135410949Y-86486905D01*
X135447254Y-86535346D01*
X135454435Y-86540728D01*
X135454437Y-86540730D01*
X135464204Y-86548050D01*
X135506718Y-86604910D01*
X135513606Y-86664963D01*
X135509068Y-86700214D01*
X135480532Y-86765223D01*
X135459667Y-86784950D01*
X135454439Y-86788869D01*
X135447254Y-86794254D01*
X135441870Y-86801438D01*
X135366656Y-86901794D01*
X135366654Y-86901797D01*
X135361274Y-86908976D01*
X135310949Y-87043220D01*
X135304300Y-87104423D01*
X135304301Y-87749176D01*
X135306541Y-87769794D01*
X135294013Y-87839674D01*
X135245693Y-87891690D01*
X135181278Y-87909400D01*
X135105001Y-87909400D01*
X135036880Y-87889398D01*
X135028297Y-87883363D01*
X134971360Y-87839674D01*
X134952841Y-87825464D01*
X134806762Y-87764956D01*
X134650000Y-87744318D01*
X134493238Y-87764956D01*
X134347159Y-87825464D01*
X134328640Y-87839674D01*
X134271703Y-87883363D01*
X134205482Y-87908963D01*
X134194999Y-87909400D01*
X133591902Y-87909400D01*
X133580968Y-87911598D01*
X133565549Y-87914698D01*
X133565547Y-87914699D01*
X133553256Y-87917170D01*
X133542875Y-87924198D01*
X133542874Y-87924199D01*
X133533694Y-87930415D01*
X133520614Y-87939271D01*
X132997712Y-88470813D01*
X132976456Y-88503053D01*
X132969000Y-88540942D01*
X132969000Y-90490800D01*
X132948998Y-90558921D01*
X132895342Y-90605414D01*
X132843000Y-90616800D01*
X127583200Y-90616800D01*
X127515079Y-90596798D01*
X127468586Y-90543142D01*
X127457200Y-90490800D01*
X127457200Y-89000468D01*
X127477202Y-88932347D01*
X127530858Y-88885854D01*
X127583068Y-88874468D01*
X128829347Y-88873163D01*
X131808640Y-88870043D01*
X131814697Y-88868833D01*
X131814699Y-88868833D01*
X131834702Y-88864838D01*
X131834703Y-88864837D01*
X131846852Y-88862411D01*
X131879246Y-88840754D01*
X132320711Y-88399289D01*
X132324147Y-88394147D01*
X132324150Y-88394143D01*
X132335493Y-88377166D01*
X132342388Y-88366847D01*
X132350000Y-88328579D01*
X132350000Y-88007119D01*
X132370002Y-87938998D01*
X132376038Y-87930415D01*
X132447106Y-87837797D01*
X132447108Y-87837794D01*
X132452136Y-87831241D01*
X132512644Y-87685162D01*
X132528296Y-87566274D01*
X132557018Y-87501346D01*
X132564123Y-87493625D01*
X133053884Y-87003864D01*
X133570842Y-86486905D01*
X133633154Y-86452880D01*
X133659937Y-86450000D01*
X134500000Y-86450000D01*
X134511465Y-86445251D01*
X134511466Y-86445251D01*
X134529311Y-86437859D01*
X134570711Y-86420711D01*
X134600000Y-86350000D01*
X134600000Y-86246822D01*
X134620002Y-86178701D01*
X134649822Y-86146458D01*
X134665078Y-86134878D01*
X134752128Y-86020195D01*
X134805129Y-85886328D01*
X134815500Y-85800629D01*
X134815499Y-85268972D01*
X134805129Y-85183272D01*
X134782969Y-85127300D01*
X134755292Y-85057397D01*
X134752128Y-85049405D01*
X134665078Y-84934722D01*
X134649822Y-84923142D01*
X134607654Y-84866025D01*
X134600000Y-84822778D01*
X134600000Y-84696822D01*
X134620002Y-84628701D01*
X134649822Y-84596458D01*
X134665078Y-84584878D01*
X134752128Y-84470195D01*
X134805129Y-84336328D01*
X134815500Y-84250629D01*
X134815499Y-83718972D01*
X134805129Y-83633272D01*
X134752128Y-83499405D01*
X134665078Y-83384722D01*
X134649822Y-83373142D01*
X134607654Y-83316025D01*
X134600000Y-83272778D01*
X134600000Y-82131300D01*
X134620002Y-82063179D01*
X134673658Y-82016686D01*
X134688609Y-82010976D01*
X134690911Y-82010261D01*
X134700596Y-82008835D01*
X134709384Y-82004520D01*
X134709388Y-82004519D01*
X134759731Y-81979802D01*
X134829848Y-81967752D01*
X134846554Y-81969700D01*
G37*
%TD.AperFunction*%
%TD*%
M02*
