%FSLAX45Y45*%
G04 Gerber Fmt 4.5, Leading zero omitted, Abs format (unit mm)*
G04 Created by KiCad (PCBNEW (6.0.0)) date 2022-08-29 11:13:16*
%MOMM*%
%LPD*%
G01*
G04 APERTURE LIST*
%TA.AperFunction,Profile*%
%ADD10C,0.100000*%
%TD*%
%ADD11C,0.200000*%
G04 APERTURE END LIST*
D10*
X14270920Y-9091680D02*
G75*
G03*
X14346000Y-9018200I3651J71367D01*
G01*
X12446000Y-7166680D02*
X12446000Y-9018200D01*
X14270920Y-7091680D02*
X12521000Y-7091680D01*
X12446000Y-9018200D02*
G75*
G03*
X12521000Y-9091680I72750J-761D01*
G01*
X12521000Y-9091680D02*
X14270920Y-9091680D01*
X12521000Y-7091680D02*
G75*
G03*
X12446000Y-7166680I-101J-74900D01*
G01*
X14346000Y-9018200D02*
X14346000Y-7166680D01*
X14346000Y-7166680D02*
G75*
G03*
X14270920Y-7091680I-74303J698D01*
G01*
D11*
X12698615Y-9407250D02*
X12698615Y-9207250D01*
X12746234Y-9207250D01*
X12774805Y-9216773D01*
X12793853Y-9235821D01*
X12803377Y-9254869D01*
X12812901Y-9292964D01*
X12812901Y-9321535D01*
X12803377Y-9359631D01*
X12793853Y-9378678D01*
X12774805Y-9397726D01*
X12746234Y-9407250D01*
X12698615Y-9407250D01*
X12898615Y-9407250D02*
X12898615Y-9273916D01*
X12898615Y-9312011D02*
X12908139Y-9292964D01*
X12917663Y-9283440D01*
X12936710Y-9273916D01*
X12955758Y-9273916D01*
X13022424Y-9407250D02*
X13022424Y-9273916D01*
X13022424Y-9207250D02*
X13012901Y-9216773D01*
X13022424Y-9226297D01*
X13031948Y-9216773D01*
X13022424Y-9207250D01*
X13022424Y-9226297D01*
X13146234Y-9407250D02*
X13127186Y-9397726D01*
X13117663Y-9378678D01*
X13117663Y-9207250D01*
X13250996Y-9407250D02*
X13231948Y-9397726D01*
X13222424Y-9378678D01*
X13222424Y-9207250D01*
X13479567Y-9407250D02*
X13479567Y-9207250D01*
X13546234Y-9350107D01*
X13612901Y-9207250D01*
X13612901Y-9407250D01*
X13793853Y-9407250D02*
X13793853Y-9302488D01*
X13784329Y-9283440D01*
X13765282Y-9273916D01*
X13727186Y-9273916D01*
X13708139Y-9283440D01*
X13793853Y-9397726D02*
X13774805Y-9407250D01*
X13727186Y-9407250D01*
X13708139Y-9397726D01*
X13698615Y-9378678D01*
X13698615Y-9359631D01*
X13708139Y-9340583D01*
X13727186Y-9331059D01*
X13774805Y-9331059D01*
X13793853Y-9321535D01*
X13889091Y-9273916D02*
X13889091Y-9473916D01*
X13889091Y-9283440D02*
X13908139Y-9273916D01*
X13946234Y-9273916D01*
X13965282Y-9283440D01*
X13974805Y-9292964D01*
X13984329Y-9312011D01*
X13984329Y-9369154D01*
X13974805Y-9388202D01*
X13965282Y-9397726D01*
X13946234Y-9407250D01*
X13908139Y-9407250D01*
X13889091Y-9397726D01*
X14070044Y-9388202D02*
X14079567Y-9397726D01*
X14070044Y-9407250D01*
X14060520Y-9397726D01*
X14070044Y-9388202D01*
X14070044Y-9407250D01*
X14070044Y-9283440D02*
X14079567Y-9292964D01*
X14070044Y-9302488D01*
X14060520Y-9292964D01*
X14070044Y-9283440D01*
X14070044Y-9302488D01*
M02*
