%TF.GenerationSoftware,KiCad,Pcbnew,(6.0.0)*%
%TF.CreationDate,2022-08-29T11:13:11+02:00*%
%TF.ProjectId,LiIon_Charger,4c69496f-6e5f-4436-9861-726765722e6b,rev?*%
%TF.SameCoordinates,Original*%
%TF.FileFunction,Legend,Bot*%
%TF.FilePolarity,Positive*%
%FSLAX46Y46*%
G04 Gerber Fmt 4.6, Leading zero omitted, Abs format (unit mm)*
G04 Created by KiCad (PCBNEW (6.0.0)) date 2022-08-29 11:13:11*
%MOMM*%
%LPD*%
G01*
G04 APERTURE LIST*
G04 Aperture macros list*
%AMFreePoly0*
4,1,5,2.500000,-1.250000,-2.500000,-1.250000,-2.500000,1.250000,2.500000,1.250000,2.500000,-1.250000,2.500000,-1.250000,$1*%
G04 Aperture macros list end*
%ADD10C,0.130000*%
%ADD11C,0.100000*%
%ADD12FreePoly0,90.000000*%
%ADD13FreePoly0,0.000000*%
%ADD14FreePoly0,180.000000*%
G04 APERTURE END LIST*
D10*
X132390942Y-74390257D02*
X132276657Y-74428352D01*
X132238561Y-74466447D01*
X132200466Y-74542638D01*
X132200466Y-74656923D01*
X132238561Y-74733114D01*
X132276657Y-74771209D01*
X132352847Y-74809304D01*
X132657609Y-74809304D01*
X132657609Y-74009304D01*
X132390942Y-74009304D01*
X132314752Y-74047400D01*
X132276657Y-74085495D01*
X132238561Y-74161685D01*
X132238561Y-74237876D01*
X132276657Y-74314066D01*
X132314752Y-74352161D01*
X132390942Y-74390257D01*
X132657609Y-74390257D01*
X131514752Y-74809304D02*
X131514752Y-74390257D01*
X131552847Y-74314066D01*
X131629038Y-74275971D01*
X131781419Y-74275971D01*
X131857609Y-74314066D01*
X131514752Y-74771209D02*
X131590942Y-74809304D01*
X131781419Y-74809304D01*
X131857609Y-74771209D01*
X131895704Y-74695019D01*
X131895704Y-74618828D01*
X131857609Y-74542638D01*
X131781419Y-74504542D01*
X131590942Y-74504542D01*
X131514752Y-74466447D01*
X131248085Y-74275971D02*
X130943323Y-74275971D01*
X131133800Y-74009304D02*
X131133800Y-74695019D01*
X131095704Y-74771209D01*
X131019514Y-74809304D01*
X130943323Y-74809304D01*
X130790942Y-74275971D02*
X130486180Y-74275971D01*
X130676657Y-74009304D02*
X130676657Y-74695019D01*
X130638561Y-74771209D01*
X130562371Y-74809304D01*
X130486180Y-74809304D01*
X129914752Y-74771209D02*
X129990942Y-74809304D01*
X130143323Y-74809304D01*
X130219514Y-74771209D01*
X130257609Y-74695019D01*
X130257609Y-74390257D01*
X130219514Y-74314066D01*
X130143323Y-74275971D01*
X129990942Y-74275971D01*
X129914752Y-74314066D01*
X129876657Y-74390257D01*
X129876657Y-74466447D01*
X130257609Y-74542638D01*
X129533800Y-74809304D02*
X129533800Y-74275971D01*
X129533800Y-74428352D02*
X129495704Y-74352161D01*
X129457609Y-74314066D01*
X129381419Y-74275971D01*
X129305228Y-74275971D01*
X129114752Y-74275971D02*
X128924276Y-74809304D01*
X128733800Y-74275971D02*
X128924276Y-74809304D01*
X129000466Y-74999780D01*
X129038561Y-75037876D01*
X129114752Y-75075971D01*
X140096190Y-78492314D02*
X140134285Y-78530409D01*
X140248571Y-78568504D01*
X140324761Y-78568504D01*
X140439047Y-78530409D01*
X140515238Y-78454219D01*
X140553333Y-78378028D01*
X140591428Y-78225647D01*
X140591428Y-78111361D01*
X140553333Y-77958980D01*
X140515238Y-77882790D01*
X140439047Y-77806600D01*
X140324761Y-77768504D01*
X140248571Y-77768504D01*
X140134285Y-77806600D01*
X140096190Y-77844695D01*
X139753333Y-78568504D02*
X139753333Y-77768504D01*
X139753333Y-78149457D02*
X139296190Y-78149457D01*
X139296190Y-78568504D02*
X139296190Y-77768504D01*
X138953333Y-78339933D02*
X138572380Y-78339933D01*
X139029523Y-78568504D02*
X138762857Y-77768504D01*
X138496190Y-78568504D01*
X137772380Y-78568504D02*
X138039047Y-78187552D01*
X138229523Y-78568504D02*
X138229523Y-77768504D01*
X137924761Y-77768504D01*
X137848571Y-77806600D01*
X137810476Y-77844695D01*
X137772380Y-77920885D01*
X137772380Y-78035171D01*
X137810476Y-78111361D01*
X137848571Y-78149457D01*
X137924761Y-78187552D01*
X138229523Y-78187552D01*
X137010476Y-77806600D02*
X137086666Y-77768504D01*
X137200952Y-77768504D01*
X137315238Y-77806600D01*
X137391428Y-77882790D01*
X137429523Y-77958980D01*
X137467619Y-78111361D01*
X137467619Y-78225647D01*
X137429523Y-78378028D01*
X137391428Y-78454219D01*
X137315238Y-78530409D01*
X137200952Y-78568504D01*
X137124761Y-78568504D01*
X137010476Y-78530409D01*
X136972380Y-78492314D01*
X136972380Y-78225647D01*
X137124761Y-78225647D01*
X136629523Y-78149457D02*
X136362857Y-78149457D01*
X136248571Y-78568504D02*
X136629523Y-78568504D01*
X136629523Y-77768504D01*
X136248571Y-77768504D01*
D11*
X135265571Y-79035628D02*
X135265571Y-78435628D01*
X134922714Y-79035628D01*
X134922714Y-78435628D01*
X134379857Y-79035628D02*
X134379857Y-78721342D01*
X134408428Y-78664200D01*
X134465571Y-78635628D01*
X134579857Y-78635628D01*
X134637000Y-78664200D01*
X134379857Y-79007057D02*
X134437000Y-79035628D01*
X134579857Y-79035628D01*
X134637000Y-79007057D01*
X134665571Y-78949914D01*
X134665571Y-78892771D01*
X134637000Y-78835628D01*
X134579857Y-78807057D01*
X134437000Y-78807057D01*
X134379857Y-78778485D01*
X134179857Y-78635628D02*
X133951285Y-78635628D01*
X134094142Y-78435628D02*
X134094142Y-78949914D01*
X134065571Y-79007057D01*
X134008428Y-79035628D01*
X133951285Y-79035628D01*
X133751285Y-79035628D02*
X133751285Y-78435628D01*
X133494142Y-79035628D02*
X133494142Y-78721342D01*
X133522714Y-78664200D01*
X133579857Y-78635628D01*
X133665571Y-78635628D01*
X133722714Y-78664200D01*
X133751285Y-78692771D01*
X132951285Y-79035628D02*
X132951285Y-78721342D01*
X132979857Y-78664200D01*
X133037000Y-78635628D01*
X133151285Y-78635628D01*
X133208428Y-78664200D01*
X132951285Y-79007057D02*
X133008428Y-79035628D01*
X133151285Y-79035628D01*
X133208428Y-79007057D01*
X133237000Y-78949914D01*
X133237000Y-78892771D01*
X133208428Y-78835628D01*
X133151285Y-78807057D01*
X133008428Y-78807057D01*
X132951285Y-78778485D01*
X132665571Y-78635628D02*
X132665571Y-79035628D01*
X132665571Y-78692771D02*
X132637000Y-78664200D01*
X132579857Y-78635628D01*
X132494142Y-78635628D01*
X132437000Y-78664200D01*
X132408428Y-78721342D01*
X132408428Y-79035628D01*
X131322714Y-79035628D02*
X131522714Y-78749914D01*
X131665571Y-79035628D02*
X131665571Y-78435628D01*
X131437000Y-78435628D01*
X131379857Y-78464200D01*
X131351285Y-78492771D01*
X131322714Y-78549914D01*
X131322714Y-78635628D01*
X131351285Y-78692771D01*
X131379857Y-78721342D01*
X131437000Y-78749914D01*
X131665571Y-78749914D01*
X130808428Y-78635628D02*
X130808428Y-79035628D01*
X131065571Y-78635628D02*
X131065571Y-78949914D01*
X131037000Y-79007057D01*
X130979857Y-79035628D01*
X130894142Y-79035628D01*
X130837000Y-79007057D01*
X130808428Y-78978485D01*
X130522714Y-78635628D02*
X130522714Y-79035628D01*
X130522714Y-78692771D02*
X130494142Y-78664200D01*
X130437000Y-78635628D01*
X130351285Y-78635628D01*
X130294142Y-78664200D01*
X130265571Y-78721342D01*
X130265571Y-79035628D01*
X129722714Y-78635628D02*
X129722714Y-79121342D01*
X129751285Y-79178485D01*
X129779857Y-79207057D01*
X129837000Y-79235628D01*
X129922714Y-79235628D01*
X129979857Y-79207057D01*
X129722714Y-79007057D02*
X129779857Y-79035628D01*
X129894142Y-79035628D01*
X129951285Y-79007057D01*
X129979857Y-78978485D01*
X130008428Y-78921342D01*
X130008428Y-78749914D01*
X129979857Y-78692771D01*
X129951285Y-78664200D01*
X129894142Y-78635628D01*
X129779857Y-78635628D01*
X129722714Y-78664200D01*
X129179857Y-78635628D02*
X129179857Y-79121342D01*
X129208428Y-79178485D01*
X129237000Y-79207057D01*
X129294142Y-79235628D01*
X129379857Y-79235628D01*
X129437000Y-79207057D01*
X129179857Y-79007057D02*
X129237000Y-79035628D01*
X129351285Y-79035628D01*
X129408428Y-79007057D01*
X129437000Y-78978485D01*
X129465571Y-78921342D01*
X129465571Y-78749914D01*
X129437000Y-78692771D01*
X129408428Y-78664200D01*
X129351285Y-78635628D01*
X129237000Y-78635628D01*
X129179857Y-78664200D01*
X128637000Y-79035628D02*
X128637000Y-78721342D01*
X128665571Y-78664200D01*
X128722714Y-78635628D01*
X128837000Y-78635628D01*
X128894142Y-78664200D01*
X128637000Y-79007057D02*
X128694142Y-79035628D01*
X128837000Y-79035628D01*
X128894142Y-79007057D01*
X128922714Y-78949914D01*
X128922714Y-78892771D01*
X128894142Y-78835628D01*
X128837000Y-78807057D01*
X128694142Y-78807057D01*
X128637000Y-78778485D01*
X128265571Y-79035628D02*
X128322714Y-79007057D01*
X128351285Y-78949914D01*
X128351285Y-78435628D01*
X127779857Y-79035628D02*
X127779857Y-78435628D01*
X127779857Y-79007057D02*
X127837000Y-79035628D01*
X127951285Y-79035628D01*
X128008428Y-79007057D01*
X128037000Y-78978485D01*
X128065571Y-78921342D01*
X128065571Y-78749914D01*
X128037000Y-78692771D01*
X128008428Y-78664200D01*
X127951285Y-78635628D01*
X127837000Y-78635628D01*
X127779857Y-78664200D01*
X127494142Y-79035628D02*
X127494142Y-78635628D01*
X127494142Y-78435628D02*
X127522714Y-78464200D01*
X127494142Y-78492771D01*
X127465571Y-78464200D01*
X127494142Y-78435628D01*
X127494142Y-78492771D01*
X126979857Y-79007057D02*
X127037000Y-79035628D01*
X127151285Y-79035628D01*
X127208428Y-79007057D01*
X127237000Y-78949914D01*
X127237000Y-78721342D01*
X127208428Y-78664200D01*
X127151285Y-78635628D01*
X127037000Y-78635628D01*
X126979857Y-78664200D01*
X126951285Y-78721342D01*
X126951285Y-78778485D01*
X127237000Y-78835628D01*
X126694142Y-79035628D02*
X126694142Y-78635628D01*
X126694142Y-78749914D02*
X126665571Y-78692771D01*
X126637000Y-78664200D01*
X126579857Y-78635628D01*
X126522714Y-78635628D01*
X132708428Y-79401628D02*
X132651285Y-79401628D01*
X132594142Y-79430200D01*
X132565571Y-79458771D01*
X132537000Y-79515914D01*
X132508428Y-79630200D01*
X132508428Y-79773057D01*
X132537000Y-79887342D01*
X132565571Y-79944485D01*
X132594142Y-79973057D01*
X132651285Y-80001628D01*
X132708428Y-80001628D01*
X132765571Y-79973057D01*
X132794142Y-79944485D01*
X132822714Y-79887342D01*
X132851285Y-79773057D01*
X132851285Y-79630200D01*
X132822714Y-79515914D01*
X132794142Y-79458771D01*
X132765571Y-79430200D01*
X132708428Y-79401628D01*
X132165571Y-79658771D02*
X132222714Y-79630200D01*
X132251285Y-79601628D01*
X132279857Y-79544485D01*
X132279857Y-79515914D01*
X132251285Y-79458771D01*
X132222714Y-79430200D01*
X132165571Y-79401628D01*
X132051285Y-79401628D01*
X131994142Y-79430200D01*
X131965571Y-79458771D01*
X131937000Y-79515914D01*
X131937000Y-79544485D01*
X131965571Y-79601628D01*
X131994142Y-79630200D01*
X132051285Y-79658771D01*
X132165571Y-79658771D01*
X132222714Y-79687342D01*
X132251285Y-79715914D01*
X132279857Y-79773057D01*
X132279857Y-79887342D01*
X132251285Y-79944485D01*
X132222714Y-79973057D01*
X132165571Y-80001628D01*
X132051285Y-80001628D01*
X131994142Y-79973057D01*
X131965571Y-79944485D01*
X131937000Y-79887342D01*
X131937000Y-79773057D01*
X131965571Y-79715914D01*
X131994142Y-79687342D01*
X132051285Y-79658771D01*
X131251285Y-79373057D02*
X131765571Y-80144485D01*
X131079857Y-79458771D02*
X131051285Y-79430200D01*
X130994142Y-79401628D01*
X130851285Y-79401628D01*
X130794142Y-79430200D01*
X130765571Y-79458771D01*
X130737000Y-79515914D01*
X130737000Y-79573057D01*
X130765571Y-79658771D01*
X131108428Y-80001628D01*
X130737000Y-80001628D01*
X130365571Y-79401628D02*
X130308428Y-79401628D01*
X130251285Y-79430200D01*
X130222714Y-79458771D01*
X130194142Y-79515914D01*
X130165571Y-79630200D01*
X130165571Y-79773057D01*
X130194142Y-79887342D01*
X130222714Y-79944485D01*
X130251285Y-79973057D01*
X130308428Y-80001628D01*
X130365571Y-80001628D01*
X130422714Y-79973057D01*
X130451285Y-79944485D01*
X130479857Y-79887342D01*
X130508428Y-79773057D01*
X130508428Y-79630200D01*
X130479857Y-79515914D01*
X130451285Y-79458771D01*
X130422714Y-79430200D01*
X130365571Y-79401628D01*
X129937000Y-79458771D02*
X129908428Y-79430200D01*
X129851285Y-79401628D01*
X129708428Y-79401628D01*
X129651285Y-79430200D01*
X129622714Y-79458771D01*
X129594142Y-79515914D01*
X129594142Y-79573057D01*
X129622714Y-79658771D01*
X129965571Y-80001628D01*
X129594142Y-80001628D01*
X129365571Y-79458771D02*
X129337000Y-79430200D01*
X129279857Y-79401628D01*
X129137000Y-79401628D01*
X129079857Y-79430200D01*
X129051285Y-79458771D01*
X129022714Y-79515914D01*
X129022714Y-79573057D01*
X129051285Y-79658771D01*
X129394142Y-80001628D01*
X129022714Y-80001628D01*
X133551285Y-80967628D02*
X133837000Y-80967628D01*
X133837000Y-80367628D01*
X133351285Y-80967628D02*
X133351285Y-80567628D01*
X133351285Y-80367628D02*
X133379857Y-80396200D01*
X133351285Y-80424771D01*
X133322714Y-80396200D01*
X133351285Y-80367628D01*
X133351285Y-80424771D01*
X133065571Y-80967628D02*
X133065571Y-80367628D01*
X132694142Y-80967628D02*
X132751285Y-80939057D01*
X132779857Y-80910485D01*
X132808428Y-80853342D01*
X132808428Y-80681914D01*
X132779857Y-80624771D01*
X132751285Y-80596200D01*
X132694142Y-80567628D01*
X132608428Y-80567628D01*
X132551285Y-80596200D01*
X132522714Y-80624771D01*
X132494142Y-80681914D01*
X132494142Y-80853342D01*
X132522714Y-80910485D01*
X132551285Y-80939057D01*
X132608428Y-80967628D01*
X132694142Y-80967628D01*
X132237000Y-80567628D02*
X132237000Y-80967628D01*
X132237000Y-80624771D02*
X132208428Y-80596200D01*
X132151285Y-80567628D01*
X132065571Y-80567628D01*
X132008428Y-80596200D01*
X131979857Y-80653342D01*
X131979857Y-80967628D01*
X130894142Y-80910485D02*
X130922714Y-80939057D01*
X131008428Y-80967628D01*
X131065571Y-80967628D01*
X131151285Y-80939057D01*
X131208428Y-80881914D01*
X131237000Y-80824771D01*
X131265571Y-80710485D01*
X131265571Y-80624771D01*
X131237000Y-80510485D01*
X131208428Y-80453342D01*
X131151285Y-80396200D01*
X131065571Y-80367628D01*
X131008428Y-80367628D01*
X130922714Y-80396200D01*
X130894142Y-80424771D01*
X130637000Y-80967628D02*
X130637000Y-80367628D01*
X130379857Y-80967628D02*
X130379857Y-80653342D01*
X130408428Y-80596200D01*
X130465571Y-80567628D01*
X130551285Y-80567628D01*
X130608428Y-80596200D01*
X130637000Y-80624771D01*
X129837000Y-80967628D02*
X129837000Y-80653342D01*
X129865571Y-80596200D01*
X129922714Y-80567628D01*
X130037000Y-80567628D01*
X130094142Y-80596200D01*
X129837000Y-80939057D02*
X129894142Y-80967628D01*
X130037000Y-80967628D01*
X130094142Y-80939057D01*
X130122714Y-80881914D01*
X130122714Y-80824771D01*
X130094142Y-80767628D01*
X130037000Y-80739057D01*
X129894142Y-80739057D01*
X129837000Y-80710485D01*
X129551285Y-80967628D02*
X129551285Y-80567628D01*
X129551285Y-80681914D02*
X129522714Y-80624771D01*
X129494142Y-80596200D01*
X129437000Y-80567628D01*
X129379857Y-80567628D01*
X128922714Y-80567628D02*
X128922714Y-81053342D01*
X128951285Y-81110485D01*
X128979857Y-81139057D01*
X129037000Y-81167628D01*
X129122714Y-81167628D01*
X129179857Y-81139057D01*
X128922714Y-80939057D02*
X128979857Y-80967628D01*
X129094142Y-80967628D01*
X129151285Y-80939057D01*
X129179857Y-80910485D01*
X129208428Y-80853342D01*
X129208428Y-80681914D01*
X129179857Y-80624771D01*
X129151285Y-80596200D01*
X129094142Y-80567628D01*
X128979857Y-80567628D01*
X128922714Y-80596200D01*
X128408428Y-80939057D02*
X128465571Y-80967628D01*
X128579857Y-80967628D01*
X128637000Y-80939057D01*
X128665571Y-80881914D01*
X128665571Y-80653342D01*
X128637000Y-80596200D01*
X128579857Y-80567628D01*
X128465571Y-80567628D01*
X128408428Y-80596200D01*
X128379857Y-80653342D01*
X128379857Y-80710485D01*
X128665571Y-80767628D01*
X128122714Y-80967628D02*
X128122714Y-80567628D01*
X128122714Y-80681914D02*
X128094142Y-80624771D01*
X128065571Y-80596200D01*
X128008428Y-80567628D01*
X127951285Y-80567628D01*
X131565571Y-81333628D02*
X131365571Y-81933628D01*
X131165571Y-81333628D01*
X130965571Y-81876485D02*
X130937000Y-81905057D01*
X130965571Y-81933628D01*
X130994142Y-81905057D01*
X130965571Y-81876485D01*
X130965571Y-81933628D01*
X130365571Y-81933628D02*
X130708428Y-81933628D01*
X130537000Y-81933628D02*
X130537000Y-81333628D01*
X130594142Y-81419342D01*
X130651285Y-81476485D01*
X130708428Y-81505057D01*
D10*
X129387523Y-88728600D02*
X129463714Y-88690504D01*
X129578000Y-88690504D01*
X129692285Y-88728600D01*
X129768476Y-88804790D01*
X129806571Y-88880980D01*
X129844666Y-89033361D01*
X129844666Y-89147647D01*
X129806571Y-89300028D01*
X129768476Y-89376219D01*
X129692285Y-89452409D01*
X129578000Y-89490504D01*
X129501809Y-89490504D01*
X129387523Y-89452409D01*
X129349428Y-89414314D01*
X129349428Y-89147647D01*
X129501809Y-89147647D01*
X129006571Y-89490504D02*
X129006571Y-88690504D01*
X128549428Y-89490504D01*
X128549428Y-88690504D01*
X128168476Y-89490504D02*
X128168476Y-88690504D01*
X127978000Y-88690504D01*
X127863714Y-88728600D01*
X127787523Y-88804790D01*
X127749428Y-88880980D01*
X127711333Y-89033361D01*
X127711333Y-89147647D01*
X127749428Y-89300028D01*
X127787523Y-89376219D01*
X127863714Y-89452409D01*
X127978000Y-89490504D01*
X128168476Y-89490504D01*
X140537619Y-81471904D02*
X140537619Y-80671904D01*
X140232857Y-80671904D01*
X140156666Y-80710000D01*
X140118571Y-80748095D01*
X140080476Y-80824285D01*
X140080476Y-80938571D01*
X140118571Y-81014761D01*
X140156666Y-81052857D01*
X140232857Y-81090952D01*
X140537619Y-81090952D01*
X139585238Y-80671904D02*
X139432857Y-80671904D01*
X139356666Y-80710000D01*
X139280476Y-80786190D01*
X139242380Y-80938571D01*
X139242380Y-81205238D01*
X139280476Y-81357619D01*
X139356666Y-81433809D01*
X139432857Y-81471904D01*
X139585238Y-81471904D01*
X139661428Y-81433809D01*
X139737619Y-81357619D01*
X139775714Y-81205238D01*
X139775714Y-80938571D01*
X139737619Y-80786190D01*
X139661428Y-80710000D01*
X139585238Y-80671904D01*
X138975714Y-80671904D02*
X138785238Y-81471904D01*
X138632857Y-80900476D01*
X138480476Y-81471904D01*
X138290000Y-80671904D01*
X137985238Y-81052857D02*
X137718571Y-81052857D01*
X137604285Y-81471904D02*
X137985238Y-81471904D01*
X137985238Y-80671904D01*
X137604285Y-80671904D01*
X136804285Y-81471904D02*
X137070952Y-81090952D01*
X137261428Y-81471904D02*
X137261428Y-80671904D01*
X136956666Y-80671904D01*
X136880476Y-80710000D01*
X136842380Y-80748095D01*
X136804285Y-80824285D01*
X136804285Y-80938571D01*
X136842380Y-81014761D01*
X136880476Y-81052857D01*
X136956666Y-81090952D01*
X137261428Y-81090952D01*
X133006771Y-85591704D02*
X133006771Y-86239323D01*
X132968676Y-86315514D01*
X132930580Y-86353609D01*
X132854390Y-86391704D01*
X132702009Y-86391704D01*
X132625819Y-86353609D01*
X132587723Y-86315514D01*
X132549628Y-86239323D01*
X132549628Y-85591704D01*
X132168676Y-86391704D02*
X132168676Y-85858371D01*
X132168676Y-85934561D02*
X132130580Y-85896466D01*
X132054390Y-85858371D01*
X131940104Y-85858371D01*
X131863914Y-85896466D01*
X131825819Y-85972657D01*
X131825819Y-86391704D01*
X131825819Y-85972657D02*
X131787723Y-85896466D01*
X131711533Y-85858371D01*
X131597247Y-85858371D01*
X131521057Y-85896466D01*
X131482961Y-85972657D01*
X131482961Y-86391704D01*
X131102009Y-86391704D02*
X131102009Y-85591704D01*
X131102009Y-85896466D02*
X131025819Y-85858371D01*
X130873438Y-85858371D01*
X130797247Y-85896466D01*
X130759152Y-85934561D01*
X130721057Y-86010752D01*
X130721057Y-86239323D01*
X130759152Y-86315514D01*
X130797247Y-86353609D01*
X130873438Y-86391704D01*
X131025819Y-86391704D01*
X131102009Y-86353609D01*
X130378200Y-86391704D02*
X130378200Y-85858371D01*
X130378200Y-85591704D02*
X130416295Y-85629800D01*
X130378200Y-85667895D01*
X130340104Y-85629800D01*
X130378200Y-85591704D01*
X130378200Y-85667895D01*
X129882961Y-86391704D02*
X129959152Y-86353609D01*
X129997247Y-86277419D01*
X129997247Y-85591704D01*
X129578200Y-86391704D02*
X129578200Y-85858371D01*
X129578200Y-85591704D02*
X129616295Y-85629800D01*
X129578200Y-85667895D01*
X129540104Y-85629800D01*
X129578200Y-85591704D01*
X129578200Y-85667895D01*
X128854390Y-86353609D02*
X128930580Y-86391704D01*
X129082961Y-86391704D01*
X129159152Y-86353609D01*
X129197247Y-86315514D01*
X129235342Y-86239323D01*
X129235342Y-86010752D01*
X129197247Y-85934561D01*
X129159152Y-85896466D01*
X129082961Y-85858371D01*
X128930580Y-85858371D01*
X128854390Y-85896466D01*
X128168676Y-86391704D02*
X128168676Y-85972657D01*
X128206771Y-85896466D01*
X128282961Y-85858371D01*
X128435342Y-85858371D01*
X128511533Y-85896466D01*
X128168676Y-86353609D02*
X128244866Y-86391704D01*
X128435342Y-86391704D01*
X128511533Y-86353609D01*
X128549628Y-86277419D01*
X128549628Y-86201228D01*
X128511533Y-86125038D01*
X128435342Y-86086942D01*
X128244866Y-86086942D01*
X128168676Y-86048847D01*
X127673438Y-86391704D02*
X127749628Y-86353609D01*
X127787723Y-86277419D01*
X127787723Y-85591704D01*
X138940952Y-72306000D02*
X138217142Y-72306000D01*
X138750476Y-72912857D02*
X138483809Y-72912857D01*
X138369523Y-73331904D02*
X138750476Y-73331904D01*
X138750476Y-72531904D01*
X138369523Y-72531904D01*
X138217142Y-72306000D02*
X137379047Y-72306000D01*
X138026666Y-73331904D02*
X138026666Y-72531904D01*
X137569523Y-73331904D01*
X137569523Y-72531904D01*
X141960523Y-86137800D02*
X142036714Y-86099704D01*
X142151000Y-86099704D01*
X142265285Y-86137800D01*
X142341476Y-86213990D01*
X142379571Y-86290180D01*
X142417666Y-86442561D01*
X142417666Y-86556847D01*
X142379571Y-86709228D01*
X142341476Y-86785419D01*
X142265285Y-86861609D01*
X142151000Y-86899704D01*
X142074809Y-86899704D01*
X141960523Y-86861609D01*
X141922428Y-86823514D01*
X141922428Y-86556847D01*
X142074809Y-86556847D01*
X141579571Y-86899704D02*
X141579571Y-86099704D01*
X141122428Y-86899704D01*
X141122428Y-86099704D01*
X140741476Y-86899704D02*
X140741476Y-86099704D01*
X140551000Y-86099704D01*
X140436714Y-86137800D01*
X140360523Y-86213990D01*
X140322428Y-86290180D01*
X140284333Y-86442561D01*
X140284333Y-86556847D01*
X140322428Y-86709228D01*
X140360523Y-86785419D01*
X140436714Y-86861609D01*
X140551000Y-86899704D01*
X140741476Y-86899704D01*
X137585333Y-87636304D02*
X137585333Y-86836304D01*
X137128190Y-87636304D01*
X137128190Y-86836304D01*
X136861523Y-86836304D02*
X136404380Y-86836304D01*
X136632952Y-87636304D02*
X136632952Y-86836304D01*
X135680571Y-87560114D02*
X135718666Y-87598209D01*
X135832952Y-87636304D01*
X135909142Y-87636304D01*
X136023428Y-87598209D01*
X136099619Y-87522019D01*
X136137714Y-87445828D01*
X136175809Y-87293447D01*
X136175809Y-87179161D01*
X136137714Y-87026780D01*
X136099619Y-86950590D01*
X136023428Y-86874400D01*
X135909142Y-86836304D01*
X135832952Y-86836304D01*
X135718666Y-86874400D01*
X135680571Y-86912495D01*
X127609523Y-75292000D02*
X127685714Y-75253904D01*
X127800000Y-75253904D01*
X127914285Y-75292000D01*
X127990476Y-75368190D01*
X128028571Y-75444380D01*
X128066666Y-75596761D01*
X128066666Y-75711047D01*
X128028571Y-75863428D01*
X127990476Y-75939619D01*
X127914285Y-76015809D01*
X127800000Y-76053904D01*
X127723809Y-76053904D01*
X127609523Y-76015809D01*
X127571428Y-75977714D01*
X127571428Y-75711047D01*
X127723809Y-75711047D01*
X127228571Y-76053904D02*
X127228571Y-75253904D01*
X126771428Y-76053904D01*
X126771428Y-75253904D01*
X126390476Y-76053904D02*
X126390476Y-75253904D01*
X126200000Y-75253904D01*
X126085714Y-75292000D01*
X126009523Y-75368190D01*
X125971428Y-75444380D01*
X125933333Y-75596761D01*
X125933333Y-75711047D01*
X125971428Y-75863428D01*
X126009523Y-75939619D01*
X126085714Y-76015809D01*
X126200000Y-76053904D01*
X126390476Y-76053904D01*
X139877723Y-74834800D02*
X139953914Y-74796704D01*
X140068200Y-74796704D01*
X140182485Y-74834800D01*
X140258676Y-74910990D01*
X140296771Y-74987180D01*
X140334866Y-75139561D01*
X140334866Y-75253847D01*
X140296771Y-75406228D01*
X140258676Y-75482419D01*
X140182485Y-75558609D01*
X140068200Y-75596704D01*
X139992009Y-75596704D01*
X139877723Y-75558609D01*
X139839628Y-75520514D01*
X139839628Y-75253847D01*
X139992009Y-75253847D01*
X139496771Y-75596704D02*
X139496771Y-74796704D01*
X139039628Y-75596704D01*
X139039628Y-74796704D01*
X138658676Y-75596704D02*
X138658676Y-74796704D01*
X138468200Y-74796704D01*
X138353914Y-74834800D01*
X138277723Y-74910990D01*
X138239628Y-74987180D01*
X138201533Y-75139561D01*
X138201533Y-75253847D01*
X138239628Y-75406228D01*
X138277723Y-75482419D01*
X138353914Y-75558609D01*
X138468200Y-75596704D01*
X138658676Y-75596704D01*
%LPC*%
D12*
%TO.C,j5*%
X140817600Y-70916800D03*
%TD*%
D13*
%TO.C,H2*%
X143459200Y-75082400D03*
%TD*%
D12*
%TO.C,j6*%
X130683000Y-70916800D03*
%TD*%
D13*
%TO.C,H4*%
X124460000Y-73050400D03*
%TD*%
%TO.C,j4*%
X143459200Y-78003400D03*
%TD*%
%TO.C,H3*%
X143459200Y-88849200D03*
%TD*%
%TO.C,H1*%
X124460000Y-88798400D03*
%TD*%
%TO.C,j1*%
X124460000Y-85775800D03*
%TD*%
D12*
%TO.C,j2*%
X136779000Y-90906600D03*
%TD*%
D14*
%TO.C,j3*%
X143459200Y-80949800D03*
%TD*%
M02*
