M48
; DRILL file {KiCad (6.0.0)} date Mon Aug 29 11:13:13 2022
; FORMAT={-:-/ absolute / metric / decimal}
; #@! TF.CreationDate,2022-08-29T11:13:13+02:00
; #@! TF.GenerationSoftware,Kicad,Pcbnew,(6.0.0)
; #@! TF.FileFunction,Plated,1,2,PTH
FMAT,2
METRIC
; #@! TA.AperFunction,Plated,PTH,ViaDrill
T1C0.300
; #@! TA.AperFunction,Plated,PTH,ComponentDrill
T2C0.300
; #@! TA.AperFunction,Plated,PTH,ViaDrill
T3C0.400
; #@! TA.AperFunction,Plated,PTH,ComponentDrill
T4C1.750
%
G90
G05
T1
X125.451Y-75.565
X128.194Y-72.593
X128.27Y-87.528
X129.972Y-81.864
X130.124Y-87.528
X131.928Y-87.528
X132.27Y-81.95
X133.655Y-78.003
X133.75Y-72.03
X134.21Y-78.52
X134.62Y-77.8
X134.65Y-88.35
X135.661Y-71.882
X135.74Y-72.76
X135.89Y-73.736
X137.668Y-84.328
X138.82Y-87.4
X139.014Y-83.16
X139.116Y-81.585
X139.55Y-88.41
X139.57Y-89.6
X143.002Y-84.328
T2
X135.191Y-79.819
X135.191Y-80.594
X135.191Y-81.369
X135.966Y-79.819
X135.966Y-80.594
X135.966Y-81.369
X136.741Y-79.819
X136.741Y-80.594
X136.741Y-81.369
T3
X126.01Y-84.54
X126.83Y-72.96
X126.97Y-86.59
X127.01Y-88.13
X130.34Y-73.43
X136.005Y-88.425
X139.63Y-73.36
X140.64Y-78.156
X140.87Y-89.01
X141.04Y-75.22
X142.875Y-82.345
T4
X124.46Y-73.05
X124.46Y-85.776
X124.46Y-88.798
X130.683Y-70.917
X136.779Y-90.907
X140.818Y-70.917
X143.459Y-75.082
X143.459Y-78.003
X143.459Y-80.95
X143.459Y-88.849
T0
M30
