%TF.GenerationSoftware,KiCad,Pcbnew,(6.0.0)*%
%TF.CreationDate,2022-08-29T11:13:11+02:00*%
%TF.ProjectId,LiIon_Charger,4c69496f-6e5f-4436-9861-726765722e6b,rev?*%
%TF.SameCoordinates,Original*%
%TF.FileFunction,Legend,Top*%
%TF.FilePolarity,Positive*%
%FSLAX46Y46*%
G04 Gerber Fmt 4.6, Leading zero omitted, Abs format (unit mm)*
G04 Created by KiCad (PCBNEW (6.0.0)) date 2022-08-29 11:13:11*
%MOMM*%
%LPD*%
G01*
G04 APERTURE LIST*
G04 Aperture macros list*
%AMRoundRect*
0 Rectangle with rounded corners*
0 $1 Rounding radius*
0 $2 $3 $4 $5 $6 $7 $8 $9 X,Y pos of 4 corners*
0 Add a 4 corners polygon primitive as box body*
4,1,4,$2,$3,$4,$5,$6,$7,$8,$9,$2,$3,0*
0 Add four circle primitives for the rounded corners*
1,1,$1+$1,$2,$3*
1,1,$1+$1,$4,$5*
1,1,$1+$1,$6,$7*
1,1,$1+$1,$8,$9*
0 Add four rect primitives between the rounded corners*
20,1,$1+$1,$2,$3,$4,$5,0*
20,1,$1+$1,$4,$5,$6,$7,0*
20,1,$1+$1,$6,$7,$8,$9,0*
20,1,$1+$1,$8,$9,$2,$3,0*%
%AMFreePoly0*
4,1,5,2.500000,-1.250000,-2.500000,-1.250000,-2.500000,1.250000,2.500000,1.250000,2.500000,-1.250000,2.500000,-1.250000,$1*%
%AMFreePoly1*
4,1,22,0.500000,-0.750000,0.000000,-0.750000,0.000000,-0.745033,-0.079941,-0.743568,-0.215256,-0.701293,-0.333266,-0.622738,-0.424486,-0.514219,-0.481581,-0.384460,-0.499164,-0.250000,-0.500000,-0.250000,-0.500000,0.250000,-0.499164,0.250000,-0.499963,0.256109,-0.478152,0.396186,-0.417904,0.524511,-0.324060,0.630769,-0.204165,0.706417,-0.067858,0.745374,0.000000,0.744959,0.000000,0.750000,
0.500000,0.750000,0.500000,-0.750000,0.500000,-0.750000,$1*%
%AMFreePoly2*
4,1,20,0.000000,0.744959,0.073905,0.744508,0.209726,0.703889,0.328688,0.626782,0.421226,0.519385,0.479903,0.390333,0.500000,0.250000,0.500000,-0.250000,0.499851,-0.262216,0.476331,-0.402017,0.414519,-0.529596,0.319384,-0.634700,0.198574,-0.708877,0.061801,-0.746166,0.000000,-0.745033,0.000000,-0.750000,-0.500000,-0.750000,-0.500000,0.750000,0.000000,0.750000,0.000000,0.744959,
0.000000,0.744959,$1*%
G04 Aperture macros list end*
%ADD10C,0.200000*%
%ADD11C,0.120000*%
%ADD12C,0.150000*%
%ADD13FreePoly0,90.000000*%
%ADD14R,2.100000X1.400000*%
%ADD15FreePoly0,0.000000*%
%ADD16RoundRect,0.140000X0.170000X-0.140000X0.170000X0.140000X-0.170000X0.140000X-0.170000X-0.140000X0*%
%ADD17RoundRect,0.250000X0.250000X0.475000X-0.250000X0.475000X-0.250000X-0.475000X0.250000X-0.475000X0*%
%ADD18RoundRect,0.200000X-0.200000X-0.275000X0.200000X-0.275000X0.200000X0.275000X-0.200000X0.275000X0*%
%ADD19RoundRect,0.225000X-0.225000X-0.250000X0.225000X-0.250000X0.225000X0.250000X-0.225000X0.250000X0*%
%ADD20RoundRect,0.218750X0.218750X0.256250X-0.218750X0.256250X-0.218750X-0.256250X0.218750X-0.256250X0*%
%ADD21RoundRect,0.250000X-0.475000X0.250000X-0.475000X-0.250000X0.475000X-0.250000X0.475000X0.250000X0*%
%ADD22R,4.200000X1.400000*%
%ADD23RoundRect,0.250000X-0.450000X0.262500X-0.450000X-0.262500X0.450000X-0.262500X0.450000X0.262500X0*%
%ADD24RoundRect,0.225000X0.250000X-0.225000X0.250000X0.225000X-0.250000X0.225000X-0.250000X-0.225000X0*%
%ADD25RoundRect,0.200000X0.200000X0.275000X-0.200000X0.275000X-0.200000X-0.275000X0.200000X-0.275000X0*%
%ADD26RoundRect,0.225000X-0.250000X0.225000X-0.250000X-0.225000X0.250000X-0.225000X0.250000X0.225000X0*%
%ADD27FreePoly1,180.000000*%
%ADD28FreePoly2,180.000000*%
%ADD29RoundRect,0.075000X0.075000X-0.462500X0.075000X0.462500X-0.075000X0.462500X-0.075000X-0.462500X0*%
%ADD30RoundRect,0.075000X0.462500X-0.075000X0.462500X0.075000X-0.462500X0.075000X-0.462500X-0.075000X0*%
%ADD31R,2.150000X2.150000*%
%ADD32RoundRect,0.200000X0.275000X-0.200000X0.275000X0.200000X-0.275000X0.200000X-0.275000X-0.200000X0*%
%ADD33RoundRect,0.250000X0.475000X-0.250000X0.475000X0.250000X-0.475000X0.250000X-0.475000X-0.250000X0*%
%ADD34FreePoly0,180.000000*%
%ADD35RoundRect,0.250000X-0.312500X-1.075000X0.312500X-1.075000X0.312500X1.075000X-0.312500X1.075000X0*%
G04 APERTURE END LIST*
D10*
X138410000Y-87450000D02*
X140680000Y-87450000D01*
X140680000Y-87450000D02*
X140680000Y-90470000D01*
X140680000Y-90470000D02*
X138410000Y-90470000D01*
X138410000Y-90470000D02*
X138410000Y-87450000D01*
G36*
X138410000Y-87450000D02*
G01*
X140680000Y-87450000D01*
X140680000Y-90470000D01*
X138410000Y-90470000D01*
X138410000Y-87450000D01*
G37*
D11*
%TO.C,D4*%
X130364400Y-84423000D02*
X130364400Y-89403000D01*
X133084400Y-84423000D02*
X133084400Y-89403000D01*
X133084400Y-84423000D02*
X130364400Y-84423000D01*
%TO.C,C5*%
X132431200Y-80371836D02*
X132431200Y-80156164D01*
X133151200Y-80371836D02*
X133151200Y-80156164D01*
%TO.C,C9*%
X127743852Y-76274600D02*
X127221348Y-76274600D01*
X127743852Y-74804600D02*
X127221348Y-74804600D01*
%TO.C,R2*%
X136592542Y-86904300D02*
X137067058Y-86904300D01*
X136592542Y-87949300D02*
X137067058Y-87949300D01*
%TO.C,C4*%
X132574420Y-76655200D02*
X132855580Y-76655200D01*
X132574420Y-77675200D02*
X132855580Y-77675200D01*
%TO.C,D3*%
X142895000Y-84235000D02*
X142895000Y-82765000D01*
X142895000Y-82765000D02*
X140610000Y-82765000D01*
X140610000Y-84235000D02*
X142895000Y-84235000D01*
%TO.C,C1*%
X133554800Y-87902148D02*
X133554800Y-88424652D01*
X135024800Y-87902148D02*
X135024800Y-88424652D01*
D12*
%TO.C,L1*%
X128822200Y-79390800D02*
X128822200Y-78190800D01*
X124822200Y-79390800D02*
X124822200Y-78190800D01*
D11*
%TO.C,R7*%
X129490800Y-75998336D02*
X129490800Y-76452464D01*
X130960800Y-75998336D02*
X130960800Y-76452464D01*
%TO.C,C7*%
X133479000Y-72784580D02*
X133479000Y-72503420D01*
X132459000Y-72784580D02*
X132459000Y-72503420D01*
%TO.C,R1*%
X137067058Y-85380300D02*
X136592542Y-85380300D01*
X137067058Y-86425300D02*
X136592542Y-86425300D01*
%TO.C,D2*%
X142912200Y-84380400D02*
X140627200Y-84380400D01*
X142912200Y-85850400D02*
X142912200Y-84380400D01*
X140627200Y-85850400D02*
X142912200Y-85850400D01*
%TO.C,D5*%
X132119200Y-78047600D02*
X129399200Y-78047600D01*
X132119200Y-78047600D02*
X132119200Y-83027600D01*
X129399200Y-78047600D02*
X129399200Y-83027600D01*
%TO.C,R3*%
X141189942Y-86116900D02*
X141664458Y-86116900D01*
X141189942Y-87161900D02*
X141664458Y-87161900D01*
%TO.C,R5*%
X132553942Y-75503300D02*
X133028458Y-75503300D01*
X132553942Y-74458300D02*
X133028458Y-74458300D01*
%TO.C,D1*%
X127291000Y-90583000D02*
X130011000Y-90583000D01*
X130011000Y-90583000D02*
X130011000Y-85603000D01*
X127291000Y-90583000D02*
X127291000Y-85603000D01*
%TO.C,C3*%
X134550000Y-84619220D02*
X134550000Y-84900380D01*
X133530000Y-84619220D02*
X133530000Y-84900380D01*
%TO.C,C6*%
X135053800Y-72784580D02*
X135053800Y-72503420D01*
X134033800Y-72784580D02*
X134033800Y-72503420D01*
%TO.C,JP1*%
X138241000Y-73694800D02*
X136841000Y-73694800D01*
X136141000Y-72994800D02*
X136141000Y-72394800D01*
X136841000Y-71694800D02*
X138241000Y-71694800D01*
X138941000Y-72394800D02*
X138941000Y-72994800D01*
X138241000Y-73694800D02*
G75*
G03*
X138941000Y-72994800I1J699999D01*
G01*
X136141000Y-72994800D02*
G75*
G03*
X136841000Y-73694800I699999J-1D01*
G01*
X138941000Y-72394800D02*
G75*
G03*
X138241000Y-71694800I-699999J1D01*
G01*
X136841000Y-71694800D02*
G75*
G03*
X136141000Y-72394800I-1J-699999D01*
G01*
%TO.C,U1*%
X138076200Y-79209200D02*
X138076200Y-78484200D01*
X138076200Y-81979200D02*
X138076200Y-82704200D01*
X133856200Y-78484200D02*
X134581200Y-78484200D01*
X138076200Y-82704200D02*
X137351200Y-82704200D01*
X133856200Y-79209200D02*
X133856200Y-78484200D01*
X138076200Y-78484200D02*
X137351200Y-78484200D01*
X133856200Y-81979200D02*
X133856200Y-82704200D01*
%TO.C,R4*%
X139638300Y-85327258D02*
X139638300Y-84852742D01*
X138593300Y-85327258D02*
X138593300Y-84852742D01*
%TO.C,C8*%
X128928800Y-73032252D02*
X128928800Y-72509748D01*
X127458800Y-73032252D02*
X127458800Y-72509748D01*
%TO.C,C2*%
X139215400Y-75857980D02*
X139215400Y-75576820D01*
X140235400Y-75857980D02*
X140235400Y-75576820D01*
%TO.C,R6*%
X135779742Y-74458300D02*
X136254258Y-74458300D01*
X135779742Y-75503300D02*
X136254258Y-75503300D01*
%TO.C,F1*%
X126174663Y-84032000D02*
X127622137Y-84032000D01*
X126174663Y-81322000D02*
X127622137Y-81322000D01*
%TD*%
%LPC*%
D13*
%TO.C,j5*%
X140817600Y-70916800D03*
%TD*%
D14*
%TO.C,D4*%
X131724400Y-85303000D03*
X131724400Y-89703000D03*
%TD*%
D15*
%TO.C,H2*%
X143459200Y-75082400D03*
%TD*%
D16*
%TO.C,C5*%
X132791200Y-80744000D03*
X132791200Y-79784000D03*
%TD*%
D13*
%TO.C,j6*%
X130683000Y-70916800D03*
%TD*%
D17*
%TO.C,C9*%
X128432600Y-75539600D03*
X126532600Y-75539600D03*
%TD*%
D18*
%TO.C,R2*%
X136004800Y-87426800D03*
X137654800Y-87426800D03*
%TD*%
D19*
%TO.C,C4*%
X131940000Y-77165200D03*
X133490000Y-77165200D03*
%TD*%
D20*
%TO.C,D3*%
X142197500Y-83500000D03*
X140622500Y-83500000D03*
%TD*%
D15*
%TO.C,H4*%
X124460000Y-73050400D03*
%TD*%
D21*
%TO.C,C1*%
X134289800Y-87213400D03*
X134289800Y-89113400D03*
%TD*%
D22*
%TO.C,L1*%
X126822200Y-80190800D03*
X126822200Y-77390800D03*
%TD*%
D23*
%TO.C,R7*%
X130225800Y-75312900D03*
X130225800Y-77137900D03*
%TD*%
D24*
%TO.C,C7*%
X132969000Y-73419000D03*
X132969000Y-71869000D03*
%TD*%
D15*
%TO.C,j4*%
X143459200Y-78003400D03*
%TD*%
D25*
%TO.C,R1*%
X137654800Y-85902800D03*
X136004800Y-85902800D03*
%TD*%
D20*
%TO.C,D2*%
X142214700Y-85115400D03*
X140639700Y-85115400D03*
%TD*%
D14*
%TO.C,D5*%
X130759200Y-78927600D03*
X130759200Y-83327600D03*
%TD*%
D18*
%TO.C,R3*%
X140602200Y-86639400D03*
X142252200Y-86639400D03*
%TD*%
D15*
%TO.C,H3*%
X143459200Y-88849200D03*
%TD*%
D18*
%TO.C,R5*%
X131966200Y-74980800D03*
X133616200Y-74980800D03*
%TD*%
D14*
%TO.C,D1*%
X128651000Y-89703000D03*
X128651000Y-85303000D03*
%TD*%
D26*
%TO.C,C3*%
X134040000Y-83984800D03*
X134040000Y-85534800D03*
%TD*%
D24*
%TO.C,C6*%
X134543800Y-73419000D03*
X134543800Y-71869000D03*
%TD*%
D27*
%TO.C,JP1*%
X138191000Y-72694800D03*
D28*
X136891000Y-72694800D03*
%TD*%
D29*
%TO.C,U1*%
X134991200Y-82431700D03*
X135641200Y-82431700D03*
X136291200Y-82431700D03*
X136941200Y-82431700D03*
D30*
X137803700Y-81569200D03*
X137803700Y-80919200D03*
X137803700Y-80269200D03*
X137803700Y-79619200D03*
D29*
X136941200Y-78756700D03*
X136291200Y-78756700D03*
X135641200Y-78756700D03*
X134991200Y-78756700D03*
D30*
X134128700Y-79619200D03*
X134128700Y-80269200D03*
X134128700Y-80919200D03*
X134128700Y-81569200D03*
D31*
X135966200Y-80594200D03*
%TD*%
D15*
%TO.C,H1*%
X124460000Y-88798400D03*
%TD*%
D32*
%TO.C,R4*%
X139115800Y-85915000D03*
X139115800Y-84265000D03*
%TD*%
D33*
%TO.C,C8*%
X128193800Y-73721000D03*
X128193800Y-71821000D03*
%TD*%
D15*
%TO.C,j1*%
X124460000Y-85775800D03*
%TD*%
D24*
%TO.C,C2*%
X139725400Y-76492400D03*
X139725400Y-74942400D03*
%TD*%
D13*
%TO.C,j2*%
X136779000Y-90906600D03*
%TD*%
D18*
%TO.C,R6*%
X135192000Y-74980800D03*
X136842000Y-74980800D03*
%TD*%
D34*
%TO.C,j3*%
X143459200Y-80949800D03*
%TD*%
D35*
%TO.C,F1*%
X125435900Y-82677000D03*
X128360900Y-82677000D03*
%TD*%
M02*
