%TF.GenerationSoftware,KiCad,Pcbnew,(6.0.0)*%
%TF.CreationDate,2022-08-29T11:13:11+02:00*%
%TF.ProjectId,LiIon_Charger,4c69496f-6e5f-4436-9861-726765722e6b,rev?*%
%TF.SameCoordinates,Original*%
%TF.FileFunction,Copper,L2,Bot*%
%TF.FilePolarity,Positive*%
%FSLAX46Y46*%
G04 Gerber Fmt 4.6, Leading zero omitted, Abs format (unit mm)*
G04 Created by KiCad (PCBNEW (6.0.0)) date 2022-08-29 11:13:11*
%MOMM*%
%LPD*%
G01*
G04 APERTURE LIST*
G04 Aperture macros list*
%AMFreePoly0*
4,1,5,2.500000,-1.250000,-2.500000,-1.250000,-2.500000,1.250000,2.500000,1.250000,2.500000,-1.250000,2.500000,-1.250000,$1*%
G04 Aperture macros list end*
%TA.AperFunction,ComponentPad*%
%ADD10FreePoly0,90.000000*%
%TD*%
%TA.AperFunction,ComponentPad*%
%ADD11FreePoly0,0.000000*%
%TD*%
%TA.AperFunction,ComponentPad*%
%ADD12C,0.600000*%
%TD*%
%TA.AperFunction,SMDPad,CuDef*%
%ADD13R,2.150000X2.150000*%
%TD*%
%TA.AperFunction,ComponentPad*%
%ADD14FreePoly0,180.000000*%
%TD*%
%TA.AperFunction,ViaPad*%
%ADD15C,0.800000*%
%TD*%
%TA.AperFunction,ViaPad*%
%ADD16C,0.600000*%
%TD*%
%TA.AperFunction,Conductor*%
%ADD17C,0.250000*%
%TD*%
G04 APERTURE END LIST*
D10*
%TO.P,j5,1,Pin_1*%
%TO.N,Net-(U1-Pad6)*%
X140817600Y-70916800D03*
%TD*%
D11*
%TO.P,H2,1,1*%
%TO.N,GND*%
X143459200Y-75082400D03*
%TD*%
D10*
%TO.P,j6,1,Pin_1*%
%TO.N,/Battery*%
X130683000Y-70916800D03*
%TD*%
D11*
%TO.P,H4,1,1*%
%TO.N,GND*%
X124460000Y-73050400D03*
%TD*%
%TO.P,j4,1,Pin_1*%
%TO.N,/~{CHGOK}*%
X143459200Y-78003400D03*
%TD*%
%TO.P,H3,1,1*%
%TO.N,GND*%
X143459200Y-88849200D03*
%TD*%
D12*
%TO.P,U1,17,NC*%
%TO.N,unconnected-(U1-Pad17)*%
X135191200Y-81369200D03*
X136741200Y-79819200D03*
X136741200Y-81369200D03*
X135191200Y-79819200D03*
X135966200Y-80594200D03*
X135966200Y-79819200D03*
D13*
X135966200Y-80594200D03*
D12*
X135966200Y-81369200D03*
X136741200Y-80594200D03*
X135191200Y-80594200D03*
%TD*%
D11*
%TO.P,H1,1,1*%
%TO.N,GND*%
X124460000Y-88798400D03*
%TD*%
%TO.P,j1,1,Pin_1*%
%TO.N,/Charger*%
X124460000Y-85775800D03*
%TD*%
D10*
%TO.P,j2,1,Pin_1*%
%TO.N,/NTC*%
X136779000Y-90906600D03*
%TD*%
D14*
%TO.P,j3,1,Pin_1*%
%TO.N,/~{ACOK}*%
X143459200Y-80949800D03*
%TD*%
D15*
%TO.N,Net-(U1-Pad6)*%
X139630000Y-73360000D03*
%TO.N,GND*%
X141040000Y-75220000D03*
%TO.N,/Battery*%
X130340000Y-73430000D03*
%TO.N,GND*%
X126830000Y-72960000D03*
%TO.N,/Charger*%
X126010000Y-84540000D03*
X126970000Y-86590000D03*
%TO.N,GND*%
X127010000Y-88130000D03*
%TO.N,/NTC*%
X136004800Y-88425200D03*
%TO.N,GND*%
X140870000Y-89010000D03*
%TO.N,/~{ACOK}*%
X142875000Y-82345000D03*
%TO.N,/~{CHGOK}*%
X140639800Y-78155800D03*
D16*
%TO.N,GND*%
X139570000Y-89600000D03*
X132270000Y-81950000D03*
X131927600Y-87528400D03*
X125450600Y-75565000D03*
X130124200Y-87528400D03*
X135890000Y-73736200D03*
X135740000Y-72760000D03*
X135661400Y-71882000D03*
X129971800Y-81864200D03*
X139550000Y-88410000D03*
X128270000Y-87528400D03*
X134210000Y-78520000D03*
X134650000Y-88350000D03*
X138820000Y-87400000D03*
X134620000Y-77800200D03*
X128193800Y-72593200D03*
X133750000Y-72030000D03*
X133654800Y-78003400D03*
%TO.N,Net-(C2-Pad1)*%
X139115800Y-81584800D03*
X139014200Y-83159600D03*
%TO.N,/~{ACOK}*%
X137668000Y-84328000D03*
X143002000Y-84328000D03*
%TD*%
D17*
%TO.N,/Battery*%
X130340000Y-71259800D02*
X130557980Y-71041820D01*
X130340000Y-73430000D02*
X130340000Y-71259800D01*
%TO.N,/Charger*%
X125695800Y-84540000D02*
X124585020Y-85650780D01*
X126010000Y-84540000D02*
X125695800Y-84540000D01*
X125274200Y-86590000D02*
X124585020Y-85900820D01*
X126970000Y-86590000D02*
X125274200Y-86590000D01*
%TO.N,/NTC*%
X136004800Y-88425200D02*
X136004800Y-90132400D01*
X136004800Y-90132400D02*
X136664180Y-90791780D01*
%TO.N,/~{ACOK}*%
X142875000Y-81534000D02*
X143334980Y-81074020D01*
X142875000Y-82345000D02*
X142875000Y-81534000D01*
%TO.N,/~{CHGOK}*%
X143306800Y-78155800D02*
X143334980Y-78127620D01*
X140639800Y-78155800D02*
X143306800Y-78155800D01*
%TO.N,Net-(U1-Pad6)*%
X140692580Y-72297420D02*
X140692580Y-71041820D01*
X139630000Y-73360000D02*
X140692580Y-72297420D01*
%TO.N,Net-(C2-Pad1)*%
X139115800Y-83058000D02*
X139115800Y-81584800D01*
X139014200Y-83159600D02*
X139115800Y-83058000D01*
%TO.N,/~{ACOK}*%
X137668000Y-84328000D02*
X143002000Y-84328000D01*
%TD*%
%TA.AperFunction,Conductor*%
%TO.N,GND*%
G36*
X128861392Y-71444802D02*
G01*
X128907885Y-71498458D01*
X128919271Y-71550800D01*
X128919271Y-73416800D01*
X128924500Y-73489911D01*
X128965696Y-73630211D01*
X128970567Y-73637790D01*
X129039878Y-73745641D01*
X129039880Y-73745644D01*
X129044750Y-73753221D01*
X129051560Y-73759122D01*
X129148445Y-73843074D01*
X129148448Y-73843076D01*
X129155257Y-73848976D01*
X129288266Y-73909719D01*
X129433000Y-73930529D01*
X129512074Y-73930529D01*
X129580195Y-73950531D01*
X129605708Y-73972218D01*
X129728747Y-74108866D01*
X129883248Y-74221118D01*
X129889276Y-74223802D01*
X129889278Y-74223803D01*
X129989670Y-74268500D01*
X130057712Y-74298794D01*
X130151113Y-74318647D01*
X130238056Y-74337128D01*
X130238061Y-74337128D01*
X130244513Y-74338500D01*
X130435487Y-74338500D01*
X130441939Y-74337128D01*
X130441944Y-74337128D01*
X130528887Y-74318647D01*
X130622288Y-74298794D01*
X130690330Y-74268500D01*
X130790722Y-74223803D01*
X130790724Y-74223802D01*
X130796752Y-74221118D01*
X130951253Y-74108866D01*
X131074291Y-73972218D01*
X131134736Y-73934979D01*
X131167926Y-73930529D01*
X131933000Y-73930529D01*
X131964986Y-73928241D01*
X131999373Y-73925782D01*
X131999374Y-73925782D01*
X132006111Y-73925300D01*
X132085967Y-73901852D01*
X132137765Y-73886643D01*
X132137767Y-73886642D01*
X132146411Y-73884104D01*
X132210255Y-73843074D01*
X132261841Y-73809922D01*
X132261844Y-73809920D01*
X132269421Y-73805050D01*
X132314331Y-73753221D01*
X132359274Y-73701355D01*
X132359276Y-73701352D01*
X132365176Y-73694543D01*
X132425919Y-73561534D01*
X132446729Y-73416800D01*
X132446729Y-71550800D01*
X132466731Y-71482679D01*
X132520387Y-71436186D01*
X132572729Y-71424800D01*
X138927871Y-71424800D01*
X138995992Y-71444802D01*
X139042485Y-71498458D01*
X139053871Y-71550800D01*
X139053871Y-72594339D01*
X139033869Y-72662460D01*
X139018321Y-72680751D01*
X139018747Y-72681134D01*
X138890960Y-72823056D01*
X138795473Y-72988444D01*
X138736458Y-73170072D01*
X138716496Y-73360000D01*
X138736458Y-73549928D01*
X138795473Y-73731556D01*
X138890960Y-73896944D01*
X138895378Y-73901851D01*
X138895379Y-73901852D01*
X138903618Y-73911002D01*
X139018747Y-74038866D01*
X139173248Y-74151118D01*
X139179276Y-74153802D01*
X139179278Y-74153803D01*
X139321754Y-74217237D01*
X139347712Y-74228794D01*
X139441112Y-74248647D01*
X139528056Y-74267128D01*
X139528061Y-74267128D01*
X139534513Y-74268500D01*
X139725487Y-74268500D01*
X139731939Y-74267128D01*
X139731944Y-74267128D01*
X139818888Y-74248647D01*
X139912288Y-74228794D01*
X139938246Y-74217237D01*
X140080722Y-74153803D01*
X140080724Y-74153802D01*
X140086752Y-74151118D01*
X140241253Y-74038866D01*
X140301262Y-73972219D01*
X140361708Y-73934979D01*
X140394898Y-73930529D01*
X142067600Y-73930529D01*
X142099586Y-73928241D01*
X142133973Y-73925782D01*
X142133974Y-73925782D01*
X142140711Y-73925300D01*
X142220567Y-73901852D01*
X142272365Y-73886643D01*
X142272367Y-73886642D01*
X142281011Y-73884104D01*
X142344855Y-73843074D01*
X142396441Y-73809922D01*
X142396444Y-73809920D01*
X142404021Y-73805050D01*
X142448931Y-73753221D01*
X142493874Y-73701355D01*
X142493876Y-73701352D01*
X142499776Y-73694543D01*
X142560519Y-73561534D01*
X142581329Y-73416800D01*
X142581329Y-71554750D01*
X142601331Y-71486629D01*
X142654987Y-71440136D01*
X142704324Y-71429448D01*
X142708295Y-71430024D01*
X142717186Y-71428767D01*
X142726157Y-71428782D01*
X142726156Y-71429648D01*
X142747663Y-71429736D01*
X142768165Y-71432805D01*
X142806204Y-71444892D01*
X142836606Y-71460211D01*
X142868956Y-71483591D01*
X142880945Y-71495567D01*
X142893043Y-71507653D01*
X142916453Y-71539974D01*
X142931802Y-71570354D01*
X142943931Y-71608380D01*
X142946920Y-71628196D01*
X142948184Y-71647914D01*
X142946895Y-71655712D01*
X142947976Y-71664629D01*
X142951084Y-71690265D01*
X142952000Y-71705429D01*
X142952000Y-76113671D01*
X142931998Y-76181792D01*
X142878342Y-76228285D01*
X142826000Y-76239671D01*
X140959200Y-76239671D01*
X140927214Y-76241959D01*
X140892827Y-76244418D01*
X140892826Y-76244418D01*
X140886089Y-76244900D01*
X140806582Y-76268245D01*
X140754435Y-76283557D01*
X140754433Y-76283558D01*
X140745789Y-76286096D01*
X140738210Y-76290967D01*
X140630359Y-76360278D01*
X140630356Y-76360280D01*
X140622779Y-76365150D01*
X140616878Y-76371960D01*
X140532926Y-76468845D01*
X140532924Y-76468848D01*
X140527024Y-76475657D01*
X140466281Y-76608666D01*
X140445471Y-76753400D01*
X140445471Y-77167607D01*
X140425469Y-77235728D01*
X140371813Y-77282221D01*
X140361941Y-77286065D01*
X140357512Y-77287006D01*
X140351485Y-77289689D01*
X140351483Y-77289690D01*
X140189078Y-77361997D01*
X140189076Y-77361998D01*
X140183048Y-77364682D01*
X140028547Y-77476934D01*
X139900760Y-77618856D01*
X139805273Y-77784244D01*
X139746258Y-77965872D01*
X139726296Y-78155800D01*
X139746258Y-78345728D01*
X139805273Y-78527356D01*
X139900760Y-78692744D01*
X140028547Y-78834666D01*
X140183048Y-78946918D01*
X140189076Y-78949602D01*
X140189078Y-78949603D01*
X140351483Y-79021910D01*
X140351485Y-79021911D01*
X140357512Y-79024594D01*
X140359735Y-79025067D01*
X140417015Y-79064237D01*
X140444650Y-79129634D01*
X140445471Y-79143993D01*
X140445471Y-79253400D01*
X140450700Y-79326511D01*
X140452604Y-79332994D01*
X140484404Y-79441297D01*
X140484404Y-79512294D01*
X140478122Y-79529136D01*
X140470026Y-79546865D01*
X140466281Y-79555066D01*
X140445471Y-79699800D01*
X140445471Y-82199800D01*
X140450700Y-82272911D01*
X140491896Y-82413211D01*
X140496767Y-82420790D01*
X140566078Y-82528641D01*
X140566080Y-82528644D01*
X140570950Y-82536221D01*
X140577760Y-82542122D01*
X140674645Y-82626074D01*
X140674648Y-82626076D01*
X140681457Y-82631976D01*
X140689654Y-82635720D01*
X140689655Y-82635720D01*
X140710788Y-82645371D01*
X140814466Y-82692719D01*
X140959200Y-82713529D01*
X141965979Y-82713529D01*
X142034100Y-82733531D01*
X142075098Y-82776529D01*
X142132658Y-82876226D01*
X142132661Y-82876231D01*
X142135960Y-82881944D01*
X142140378Y-82886851D01*
X142140379Y-82886852D01*
X142223660Y-82979345D01*
X142263747Y-83023866D01*
X142418248Y-83136118D01*
X142424276Y-83138802D01*
X142424278Y-83138803D01*
X142522013Y-83182317D01*
X142592712Y-83213794D01*
X142686112Y-83233647D01*
X142773056Y-83252128D01*
X142773061Y-83252128D01*
X142779513Y-83253500D01*
X142826000Y-83253500D01*
X142894121Y-83273502D01*
X142940614Y-83327158D01*
X142952000Y-83379500D01*
X142952000Y-83406805D01*
X142931998Y-83474926D01*
X142878342Y-83521419D01*
X142839171Y-83532115D01*
X142834288Y-83532628D01*
X142834286Y-83532628D01*
X142827288Y-83533364D01*
X142655579Y-83591818D01*
X142519039Y-83675819D01*
X142453019Y-83694500D01*
X139858573Y-83694500D01*
X139790452Y-83674498D01*
X139743959Y-83620842D01*
X139733855Y-83550568D01*
X139740785Y-83523756D01*
X139799755Y-83368520D01*
X139799756Y-83368518D01*
X139802255Y-83361938D01*
X139803235Y-83354966D01*
X139826948Y-83186239D01*
X139826948Y-83186236D01*
X139827499Y-83182317D01*
X139827816Y-83159600D01*
X139807597Y-82979345D01*
X139803746Y-82968285D01*
X139756309Y-82832066D01*
X139749300Y-82790629D01*
X139749300Y-82130420D01*
X139770352Y-82060693D01*
X139789109Y-82032461D01*
X139839443Y-81956702D01*
X139903855Y-81787138D01*
X139906030Y-81771660D01*
X139928548Y-81611439D01*
X139928548Y-81611436D01*
X139929099Y-81607517D01*
X139929416Y-81584800D01*
X139909197Y-81404545D01*
X139906165Y-81395839D01*
X139851864Y-81239906D01*
X139851862Y-81239903D01*
X139849545Y-81233248D01*
X139753426Y-81079424D01*
X139739741Y-81065643D01*
X139630578Y-80955715D01*
X139630574Y-80955712D01*
X139625615Y-80950718D01*
X139614497Y-80943662D01*
X139566338Y-80913100D01*
X139472466Y-80853527D01*
X139443263Y-80843128D01*
X139308225Y-80795043D01*
X139308220Y-80795042D01*
X139301590Y-80792681D01*
X139294602Y-80791848D01*
X139294599Y-80791847D01*
X139171498Y-80777168D01*
X139121480Y-80771204D01*
X139114477Y-80771940D01*
X139114476Y-80771940D01*
X138948088Y-80789428D01*
X138948086Y-80789429D01*
X138941088Y-80790164D01*
X138769379Y-80848618D01*
X138763375Y-80852312D01*
X138620895Y-80939966D01*
X138620892Y-80939968D01*
X138614888Y-80943662D01*
X138609853Y-80948593D01*
X138609850Y-80948595D01*
X138490325Y-81065643D01*
X138485293Y-81070571D01*
X138387035Y-81223038D01*
X138384626Y-81229658D01*
X138384624Y-81229661D01*
X138350437Y-81323590D01*
X138324997Y-81393485D01*
X138302263Y-81573440D01*
X138319963Y-81753960D01*
X138377218Y-81926073D01*
X138380865Y-81932095D01*
X138380866Y-81932097D01*
X138464076Y-82069494D01*
X138482300Y-82134765D01*
X138482300Y-82495842D01*
X138462298Y-82563963D01*
X138444457Y-82585866D01*
X138393548Y-82635720D01*
X138383693Y-82645371D01*
X138285435Y-82797838D01*
X138283026Y-82804458D01*
X138283024Y-82804461D01*
X138253036Y-82886852D01*
X138223397Y-82968285D01*
X138200663Y-83148240D01*
X138218363Y-83328760D01*
X138270727Y-83486171D01*
X138271501Y-83488497D01*
X138274024Y-83559449D01*
X138237787Y-83620501D01*
X138174295Y-83652270D01*
X138103707Y-83644670D01*
X138084432Y-83634656D01*
X138061900Y-83620356D01*
X138030620Y-83600505D01*
X138030617Y-83600503D01*
X138024666Y-83596727D01*
X137995463Y-83586328D01*
X137860425Y-83538243D01*
X137860420Y-83538242D01*
X137853790Y-83535881D01*
X137846802Y-83535048D01*
X137846799Y-83535047D01*
X137722756Y-83520256D01*
X137673680Y-83514404D01*
X137666677Y-83515140D01*
X137666676Y-83515140D01*
X137500288Y-83532628D01*
X137500286Y-83532629D01*
X137493288Y-83533364D01*
X137321579Y-83591818D01*
X137259109Y-83630250D01*
X137173095Y-83683166D01*
X137173092Y-83683168D01*
X137167088Y-83686862D01*
X137162053Y-83691793D01*
X137162050Y-83691795D01*
X137159288Y-83694500D01*
X137037493Y-83813771D01*
X136939235Y-83966238D01*
X136936826Y-83972858D01*
X136936824Y-83972861D01*
X136894233Y-84089880D01*
X136877197Y-84136685D01*
X136854463Y-84316640D01*
X136872163Y-84497160D01*
X136929418Y-84669273D01*
X137023380Y-84824424D01*
X137149382Y-84954902D01*
X137301159Y-85054222D01*
X137307763Y-85056678D01*
X137307765Y-85056679D01*
X137464558Y-85114990D01*
X137464560Y-85114990D01*
X137471168Y-85117448D01*
X137554995Y-85128633D01*
X137643980Y-85140507D01*
X137643984Y-85140507D01*
X137650961Y-85141438D01*
X137657972Y-85140800D01*
X137657976Y-85140800D01*
X137800459Y-85127832D01*
X137831600Y-85124998D01*
X137838302Y-85122820D01*
X137838304Y-85122820D01*
X137997409Y-85071124D01*
X137997412Y-85071123D01*
X138004108Y-85068947D01*
X138154540Y-84979271D01*
X138219058Y-84961500D01*
X142455903Y-84961500D01*
X142524896Y-84982068D01*
X142635159Y-85054222D01*
X142641763Y-85056678D01*
X142641765Y-85056679D01*
X142798558Y-85114990D01*
X142798560Y-85114990D01*
X142805168Y-85117448D01*
X142812151Y-85118380D01*
X142812156Y-85118381D01*
X142836609Y-85121643D01*
X142842664Y-85122451D01*
X142907541Y-85151286D01*
X142946529Y-85210619D01*
X142952000Y-85247344D01*
X142952000Y-90142029D01*
X142951019Y-90157723D01*
X142946853Y-90190909D01*
X142948280Y-90199773D01*
X142948436Y-90208746D01*
X142947418Y-90208764D01*
X142947678Y-90230331D01*
X142945877Y-90243529D01*
X142933606Y-90283093D01*
X142921958Y-90306260D01*
X142897521Y-90339706D01*
X142878984Y-90357847D01*
X142845015Y-90381562D01*
X142821604Y-90392707D01*
X142781783Y-90404123D01*
X142768745Y-90405616D01*
X142748938Y-90406118D01*
X142741683Y-90404605D01*
X142732740Y-90405312D01*
X142732738Y-90405312D01*
X142693590Y-90408408D01*
X142683657Y-90408800D01*
X138668729Y-90408800D01*
X138600608Y-90388798D01*
X138554115Y-90335142D01*
X138542729Y-90282800D01*
X138542729Y-88406600D01*
X138537500Y-88333489D01*
X138496304Y-88193189D01*
X138450583Y-88122046D01*
X138422122Y-88077759D01*
X138422120Y-88077756D01*
X138417250Y-88070179D01*
X138353109Y-88014600D01*
X138313555Y-87980326D01*
X138313552Y-87980324D01*
X138306743Y-87974424D01*
X138173734Y-87913681D01*
X138029000Y-87892871D01*
X136804094Y-87892871D01*
X136735973Y-87872869D01*
X136710458Y-87851182D01*
X136616053Y-87746334D01*
X136461552Y-87634082D01*
X136455524Y-87631398D01*
X136455522Y-87631397D01*
X136293119Y-87559091D01*
X136293118Y-87559091D01*
X136287088Y-87556406D01*
X136183088Y-87534300D01*
X136106744Y-87518072D01*
X136106739Y-87518072D01*
X136100287Y-87516700D01*
X135909313Y-87516700D01*
X135902861Y-87518072D01*
X135902856Y-87518072D01*
X135826512Y-87534300D01*
X135722512Y-87556406D01*
X135716482Y-87559091D01*
X135716481Y-87559091D01*
X135554078Y-87631397D01*
X135554076Y-87631398D01*
X135548048Y-87634082D01*
X135393547Y-87746334D01*
X135389129Y-87751241D01*
X135389125Y-87751245D01*
X135279615Y-87872869D01*
X135265760Y-87888256D01*
X135262459Y-87893974D01*
X135192815Y-88014600D01*
X135178921Y-88034112D01*
X135152782Y-88064278D01*
X135096824Y-88128857D01*
X135036081Y-88261866D01*
X135015271Y-88406600D01*
X135015271Y-90282800D01*
X134995269Y-90350921D01*
X134941613Y-90397414D01*
X134889271Y-90408800D01*
X125249540Y-90408800D01*
X125234015Y-90407840D01*
X125209307Y-90404772D01*
X125209306Y-90404772D01*
X125200398Y-90403666D01*
X125191536Y-90405105D01*
X125182564Y-90405273D01*
X125182547Y-90404353D01*
X125161025Y-90404683D01*
X125144724Y-90402547D01*
X125105979Y-90390921D01*
X125079455Y-90378019D01*
X125046391Y-90354716D01*
X125025318Y-90334070D01*
X125001343Y-90301491D01*
X124987898Y-90275232D01*
X124975481Y-90236731D01*
X124973089Y-90220984D01*
X124971824Y-90201255D01*
X124973092Y-90193634D01*
X124968900Y-90158743D01*
X124968000Y-90143713D01*
X124968000Y-87665529D01*
X124988002Y-87597408D01*
X125041658Y-87550915D01*
X125094000Y-87539529D01*
X126960000Y-87539529D01*
X126991986Y-87537241D01*
X127026373Y-87534782D01*
X127026374Y-87534782D01*
X127033111Y-87534300D01*
X127173411Y-87493104D01*
X127194816Y-87479348D01*
X127236735Y-87462100D01*
X127252288Y-87458794D01*
X127258321Y-87456108D01*
X127420722Y-87383803D01*
X127420724Y-87383802D01*
X127426752Y-87381118D01*
X127452762Y-87362221D01*
X127482157Y-87340864D01*
X127581253Y-87268866D01*
X127585675Y-87263955D01*
X127704621Y-87131852D01*
X127704622Y-87131851D01*
X127709040Y-87126944D01*
X127804527Y-86961556D01*
X127863542Y-86779928D01*
X127883504Y-86590000D01*
X127863542Y-86400072D01*
X127804527Y-86218444D01*
X127709040Y-86053056D01*
X127581253Y-85911134D01*
X127525668Y-85870749D01*
X127482314Y-85814527D01*
X127473729Y-85768813D01*
X127473729Y-84525800D01*
X127468500Y-84452689D01*
X127445155Y-84373182D01*
X127429843Y-84321035D01*
X127429842Y-84321033D01*
X127427304Y-84312389D01*
X127385960Y-84248057D01*
X127353122Y-84196959D01*
X127353120Y-84196956D01*
X127348250Y-84189379D01*
X127295505Y-84143675D01*
X127244555Y-84099526D01*
X127244552Y-84099524D01*
X127237743Y-84093624D01*
X127104734Y-84032881D01*
X126960000Y-84012071D01*
X126813255Y-84012071D01*
X126745134Y-83992069D01*
X126719619Y-83970381D01*
X126625675Y-83866045D01*
X126625674Y-83866044D01*
X126621253Y-83861134D01*
X126466752Y-83748882D01*
X126460724Y-83746198D01*
X126460722Y-83746197D01*
X126298319Y-83673891D01*
X126298318Y-83673891D01*
X126292288Y-83671206D01*
X126167447Y-83644670D01*
X126111944Y-83632872D01*
X126111939Y-83632872D01*
X126105487Y-83631500D01*
X125914513Y-83631500D01*
X125908061Y-83632872D01*
X125908056Y-83632872D01*
X125852553Y-83644670D01*
X125727712Y-83671206D01*
X125721682Y-83673891D01*
X125721681Y-83673891D01*
X125559278Y-83746197D01*
X125559276Y-83746198D01*
X125553248Y-83748882D01*
X125398747Y-83861134D01*
X125394326Y-83866044D01*
X125394325Y-83866045D01*
X125300381Y-83970381D01*
X125239935Y-84007621D01*
X125206745Y-84012071D01*
X125094000Y-84012071D01*
X125025879Y-83992069D01*
X124979386Y-83938413D01*
X124968000Y-83886071D01*
X124968000Y-81357840D01*
X134377663Y-81357840D01*
X134380509Y-81386866D01*
X134382099Y-81403082D01*
X134382700Y-81415377D01*
X134382700Y-81717334D01*
X134389455Y-81779516D01*
X134440585Y-81915905D01*
X134527939Y-82032461D01*
X134644495Y-82119815D01*
X134780884Y-82170945D01*
X134843066Y-82177700D01*
X135128784Y-82177700D01*
X135145448Y-82178807D01*
X135167179Y-82181707D01*
X135167184Y-82181707D01*
X135174161Y-82182638D01*
X135181172Y-82182000D01*
X135181176Y-82182000D01*
X135222716Y-82178219D01*
X135234136Y-82177700D01*
X135903784Y-82177700D01*
X135920448Y-82178807D01*
X135942179Y-82181707D01*
X135942184Y-82181707D01*
X135949161Y-82182638D01*
X135956172Y-82182000D01*
X135956176Y-82182000D01*
X135997716Y-82178219D01*
X136009136Y-82177700D01*
X136678784Y-82177700D01*
X136695448Y-82178807D01*
X136717179Y-82181707D01*
X136717184Y-82181707D01*
X136724161Y-82182638D01*
X136731172Y-82182000D01*
X136731176Y-82182000D01*
X136772716Y-82178219D01*
X136784136Y-82177700D01*
X137089334Y-82177700D01*
X137151516Y-82170945D01*
X137287905Y-82119815D01*
X137404461Y-82032461D01*
X137491815Y-81915905D01*
X137542945Y-81779516D01*
X137549700Y-81717334D01*
X137549700Y-81434876D01*
X137550926Y-81417340D01*
X137553948Y-81395839D01*
X137553948Y-81395836D01*
X137554499Y-81391917D01*
X137554816Y-81369200D01*
X137550485Y-81330588D01*
X137549700Y-81316543D01*
X137549700Y-80659876D01*
X137550926Y-80642340D01*
X137553948Y-80620839D01*
X137553948Y-80620836D01*
X137554499Y-80616917D01*
X137554816Y-80594200D01*
X137550485Y-80555588D01*
X137549700Y-80541543D01*
X137549700Y-79884876D01*
X137550926Y-79867340D01*
X137553948Y-79845839D01*
X137553948Y-79845836D01*
X137554499Y-79841917D01*
X137554816Y-79819200D01*
X137550485Y-79780588D01*
X137549700Y-79766543D01*
X137549700Y-79471066D01*
X137542945Y-79408884D01*
X137491815Y-79272495D01*
X137404461Y-79155939D01*
X137287905Y-79068585D01*
X137151516Y-79017455D01*
X137089334Y-79010700D01*
X136797105Y-79010700D01*
X136782186Y-79009814D01*
X136778526Y-79009378D01*
X136746880Y-79005604D01*
X136739877Y-79006340D01*
X136739876Y-79006340D01*
X136704960Y-79010010D01*
X136691789Y-79010700D01*
X136022105Y-79010700D01*
X136007186Y-79009814D01*
X136003526Y-79009378D01*
X135971880Y-79005604D01*
X135964877Y-79006340D01*
X135964876Y-79006340D01*
X135929960Y-79010010D01*
X135916789Y-79010700D01*
X135247105Y-79010700D01*
X135232186Y-79009814D01*
X135228526Y-79009378D01*
X135196880Y-79005604D01*
X135189877Y-79006340D01*
X135189876Y-79006340D01*
X135154960Y-79010010D01*
X135141789Y-79010700D01*
X134843066Y-79010700D01*
X134780884Y-79017455D01*
X134644495Y-79068585D01*
X134527939Y-79155939D01*
X134440585Y-79272495D01*
X134389455Y-79408884D01*
X134382700Y-79471066D01*
X134382700Y-79760045D01*
X134381706Y-79775837D01*
X134377663Y-79807840D01*
X134380616Y-79837957D01*
X134382099Y-79853082D01*
X134382700Y-79865377D01*
X134382700Y-80535045D01*
X134381706Y-80550837D01*
X134377663Y-80582840D01*
X134380616Y-80612957D01*
X134382099Y-80628082D01*
X134382700Y-80640377D01*
X134382700Y-81310045D01*
X134381706Y-81325837D01*
X134377663Y-81357840D01*
X124968000Y-81357840D01*
X124968000Y-71715704D01*
X124969474Y-71696487D01*
X124971824Y-71681256D01*
X124973194Y-71672381D01*
X124972017Y-71663476D01*
X124972115Y-71654508D01*
X124972941Y-71654517D01*
X124973205Y-71633023D01*
X124976629Y-71611254D01*
X124988801Y-71573692D01*
X125004924Y-71542007D01*
X125028125Y-71510057D01*
X125053257Y-71484925D01*
X125085207Y-71461724D01*
X125116892Y-71445601D01*
X125154455Y-71433429D01*
X125175389Y-71430137D01*
X125195104Y-71428731D01*
X125203041Y-71429977D01*
X125211936Y-71428826D01*
X125211938Y-71428826D01*
X125225885Y-71427021D01*
X125234998Y-71425842D01*
X125251165Y-71424800D01*
X128793271Y-71424800D01*
X128861392Y-71444802D01*
G37*
%TD.AperFunction*%
%TD*%
M02*
